<svg xmlns="http://www.w3.org/2000/svg" width="105.44" height="37.416" viewBox="0 0 105.44 37.416">
  <g id="Groupe_10970" data-name="Groupe 10970" transform="translate(-976.001 -7555)">
    <path id="Tracé_10992" data-name="Tracé 10992" d="M602.124-451.708a4.05,4.05,0,0,1-3.551-1.377c-.727-.736-1.227-.565-1.821.046a11.227,11.227,0,0,0-2.245,2.764,11.548,11.548,0,0,1-.821,1.359c-.781,1.155-.8,1.154-2.093.785-.635-.182-1.276-.344-1.909-.531a.893.893,0,0,0-1.07.277,1,1,0,0,0,.044,1.124,14.8,14.8,0,0,0,2.038,2.682,1.815,1.815,0,0,1,.608,1.407c-.066.749-.2,1.616-.988,1.781-.863.182-.971-.762-1.128-1.344a7.519,7.519,0,0,0-2.373-4.036,1.5,1.5,0,0,1-.362-.471c-.346-.68-1.073-1.317-.488-2.162a2.439,2.439,0,0,1,2.444-1c.524.063,1.04.192,1.562.277a2.871,2.871,0,0,0,3.19-1.452,23.82,23.82,0,0,1,2.147-2.853c.984-1.161,2.031-1.912,3.79-1.306a3.553,3.553,0,0,0,4.029-1.486,7.03,7.03,0,0,0,1.59-3.159,2.369,2.369,0,0,0-1.8-3.062,10.49,10.49,0,0,0-2.324-.5,5.586,5.586,0,0,1-5.035-3.6,7.693,7.693,0,0,0-.915-1.528,2.673,2.673,0,0,0-2.7-1.292,5.019,5.019,0,0,1-3.612-.847c.025.908.584,1.31.865,1.833.761,1.417.417,2.087-1.159,2.247-.259.026-.524,0-.967,0a3.887,3.887,0,0,1-.052,2.293,17.006,17.006,0,0,1-1.13,1.863,25.892,25.892,0,0,0-2.579,4c-.194.4-.583.813-.285,1.289.58.924.071,1.649-.382,2.377a57.769,57.769,0,0,0-3.484,6.237,3.4,3.4,0,0,0-.593,1.785.457.457,0,0,0,.6.005c1.485-.839,1.476-.836,2.113.6.375.845.8,1.67,1.164,2.518a.55.55,0,0,1-.162.712.671.671,0,0,1-.542-.038c-1.239-.631-2.465-1.289-3.7-1.927a1.58,1.58,0,0,1-.863-1.633,5.664,5.664,0,0,1,.641-2.271,37.467,37.467,0,0,1,2.768-4.587c.431-.665.8-1.366,1.192-2.059a.94.94,0,0,0,.037-1.119c-.817-.952-.279-1.662.312-2.445,1.037-1.373,2.028-2.781,3.006-4.2a2.744,2.744,0,0,0,.553-2.766,2.528,2.528,0,0,1,.245-1.733,10.812,10.812,0,0,0,.743-2.656,1.374,1.374,0,0,1,.634-1.293,1.433,1.433,0,0,1,1.513-.078,6.948,6.948,0,0,0,4.066.625,2.836,2.836,0,0,1,2.322.9,7.831,7.831,0,0,1,1.876,2.776,3.525,3.525,0,0,0,3.421,2.263c.4.02.8.027,1.195.017a4.453,4.453,0,0,1,4.612,2.794,5.013,5.013,0,0,1-.983,5.362,12.586,12.586,0,0,1-3.826,3.13c-.293.156-.608.274-.885.454-.616.4-.639.759-.05,1.232C600.913-452.414,601.328-452.206,602.124-451.708Z" transform="translate(398.836 8033.784)" fill="#16005f"/>
    <path id="Tracé_10993" data-name="Tracé 10993" d="M643.766-446.464a6.069,6.069,0,0,1,.964.131,14.689,14.689,0,0,1,5.839,3.657.968.968,0,0,1,.249,1.408c-.391.52-.865.478-1.409.2a25.166,25.166,0,0,0-3.519-1.348,7.1,7.1,0,0,0-6.728,1.327q-.805.582-1.623,1.148c-.58.4-1,.123-1.341-.354a2.171,2.171,0,0,1,.255-2.586A10.977,10.977,0,0,1,643.766-446.464Z" transform="translate(368.941 8020.563)" fill="#16005f"/>
    <path id="Tracé_10994" data-name="Tracé 10994" d="M633.781-478.23a5.081,5.081,0,0,1,2.7.525c.941.577.962,1.461-.036,1.975-1.665.857-3.463,1.574-5.335,1.11a8.168,8.168,0,0,0-6.444,1.172c-.624.375-1.22.8-1.838,1.18-.956.6-1.429.493-2.122-.443-.579-.781-.513-1.29.412-2a9.163,9.163,0,0,1,1.876-1.1A34.9,34.9,0,0,1,633.781-478.23Z" transform="translate(376.854 8036.736)" fill="#16005f"/>
    <path id="Tracé_10995" data-name="Tracé 10995" d="M653.19-464.627c-.075.8-.508.831-1.123.664-1.654-.451-3.308-.9-4.979-1.28a13.547,13.547,0,0,0-4.15-.167,6.287,6.287,0,0,0-3.445,1.817c-.824.7-1.151.656-1.871,0-.929-.851-.938-1.607.1-2.482a8.782,8.782,0,0,1,5.625-2.171,34.113,34.113,0,0,1,7.262.805,3.066,3.066,0,0,1,2.5,2.277A4.01,4.01,0,0,1,653.19-464.627Z" transform="translate(368.404 8031.656)" fill="#16005f"/>
    <path id="Tracé_10996" data-name="Tracé 10996" d="M678.23-464.986a31.065,31.065,0,0,0-.576,3.943,6.955,6.955,0,0,1-.315,1.547c-.165.6-.674.536-1.137.5-.533-.039-.627-.431-.586-.848.116-1.182.26-2.362.4-3.542s.29-2.359.424-3.541c.063-.555.181-1.077.838-1.18a1.348,1.348,0,0,1,1.662.727c.627,1.386,1.283,2.759,1.923,4.14.164.354.312.716.616,1.418.206-1.748.361-3.143.538-4.534a6.969,6.969,0,0,1,.251-1.158.912.912,0,0,1,1.1-.617c.615.059.744.469.682.987-.292,2.426-.578,4.851-.9,7.274a.893.893,0,0,1-.895.892c-.592.011-1.213.123-1.535-.591-.353-.784-.735-1.555-1.1-2.336C679.191-462.858,678.761-463.816,678.23-464.986Z" transform="translate(348.711 8031.602)" fill="#16005f"/>
    <path id="Tracé_10997" data-name="Tracé 10997" d="M608.7-484.606a14.5,14.5,0,0,0,6.071-.63c1.016-.414,1.489.136,1.258,1.225a3.5,3.5,0,0,1-4.284,2.812,11.967,11.967,0,0,1-2.107-.548,4.543,4.543,0,0,0-4.354.457c-.167.107-.34.2-.509.31-.628.39-1.256.853-1.924.073a2.173,2.173,0,0,1-.148-2.574,2.714,2.714,0,0,1,2.219-1.127C606.183-484.6,607.442-484.606,608.7-484.606Z" transform="translate(386.012 8040.374)" fill="#16005f"/>
    <path id="Tracé_10998" data-name="Tracé 10998" d="M699.773-432.459a1.789,1.789,0,0,0-.5.005,2.683,2.683,0,0,1-3.264-.616,3.652,3.652,0,0,1-.714-3.878c.836-2.359,2.859-3.378,5.129-2.464.565.228.651-.183.966-.262.774-.194,1.143.077,1.061.869-.3,2.948-.653,5.891-.971,8.838-.067.625-.342.964-1,.953-.638-.01-1.061-.223-.874-.942A6.2,6.2,0,0,0,699.773-432.459Zm-1.211-1.479a2.514,2.514,0,0,0,1.963-2.418,1.69,1.69,0,0,0-1.758-1.751,2.4,2.4,0,0,0-1.95,2.4A1.727,1.727,0,0,0,698.562-433.938Z" transform="translate(338.82 8017.141)" fill="#16005f"/>
    <path id="Tracé_10999" data-name="Tracé 10999" d="M684.385-435.417a.562.562,0,0,1-.4.786,1.135,1.135,0,0,1-1.288-.215,2.348,2.348,0,0,1-.352-.705c-.617-1.608-.871-1.716-2.514-1.622-.857.05-1.114.6-1.4,1.194-.355.735-.708,1.431-1.7,1.439-.619,0-.878-.267-.617-.827.5-1.079,1.053-2.139,1.6-3.2.821-1.588,1.657-3.169,2.484-4.754a1.229,1.229,0,0,1,1.227-.825c.7.046.8.559.942,1.085.63,2.363,1.276,4.722,1.912,7.083C684.33-435.783,684.353-435.585,684.385-435.417Zm-3.561-5.643c-.265.548-.471.951-.654,1.365-.094.214-.334.49.007.654a1.715,1.715,0,0,0,.753.066c.324-.009.443-.249.437-.524A2.17,2.17,0,0,0,680.824-441.059Z" transform="translate(348.506 8019.383)" fill="#16005f"/>
    <path id="Tracé_11000" data-name="Tracé 11000" d="M780.8-435.237c-.531,0-1.063-.022-1.592.01-.234.014-.573-.014-.574.375,0,.314.267.431.491.555a1.474,1.474,0,0,0,1.513-.051,5.063,5.063,0,0,1,1.055-.522c.371-.1.858-.149,1.078.238.172.3-.122.613-.34.866a3.487,3.487,0,0,1-4.461.956A3.483,3.483,0,0,1,776.675-437a4.428,4.428,0,0,1,1.714-2.366,3.154,3.154,0,0,1,5.167,2.036c.281,1.426-.259,2.073-1.762,2.1-.332.006-.664,0-1,0Zm-2.338-1.844a5.954,5.954,0,0,0,2.176.184c.367.006.889.116.925-.447a.889.889,0,0,0-.84-.937A2.126,2.126,0,0,0,778.46-437.081Z" transform="translate(297.357 8017.322)" fill="#16005f"/>
    <path id="Tracé_11001" data-name="Tracé 11001" d="M746.982-438.3c-.227,1.577-.464,3.275-.72,4.971-.114.761-.632,1.128-1.25.681-.57-.412-.944-.185-1.439-.015-2.318.793-3.878-.341-3.975-2.813a4.23,4.23,0,0,1,1.828-3.944,2.813,2.813,0,0,1,2.444-.552c.788.243,1.46.688,2.326.12.339-.222.737.159.781.635C747-438.96,746.982-438.694,746.982-438.3Zm-5.628,2.35c-.011,1.136.588,1.855,1.549,1.862a2.247,2.247,0,0,0,2.016-2.443c-.021-1.059-.551-1.7-1.444-1.754A2.222,2.222,0,0,0,741.354-435.954Z" transform="translate(316.133 8017.309)" fill="#16005f"/>
    <path id="Tracé_11002" data-name="Tracé 11002" d="M742.672-456.618a3.372,3.372,0,0,1-2.911-1.766,4.153,4.153,0,0,1,.916-4.548,3.782,3.782,0,0,1,4.361-.843,3.317,3.317,0,0,1,1.778,2.9c.072.86-.224,1.162-1.161,1.2-1.257.049-2.516.025-3.773.04-.189,0-.441.019-.429.276a.763.763,0,0,0,.24.5,1.645,1.645,0,0,0,2,.27c.716-.378,1.779-1.09,2.172-.092.3.773-.913,1.287-1.671,1.665A3.062,3.062,0,0,1,742.672-456.618Zm-1.255-4.462c1.082,0,1.927.012,2.771-.01a.644.644,0,0,0,.477-.219c.154-.263-.037-.5-.225-.68C743.565-462.813,742.8-462.61,741.417-461.08Z" transform="translate(316.223 8029.563)" fill="#16005f"/>
    <path id="Tracé_11003" data-name="Tracé 11003" d="M775.151-459.021a4.442,4.442,0,0,1-2.764,2.189,3.261,3.261,0,0,1-4.073-3.836,4.33,4.33,0,0,1,3.438-3.459,3.253,3.253,0,0,1,3.526,1.642,2.8,2.8,0,0,1,.163,2.313c-.314.8-1.152.424-1.768.462-.926.057-1.858.024-2.786.04-.192,0-.438.024-.445.272a.8.8,0,0,0,.19.515,1.439,1.439,0,0,0,1.975.251A2.772,2.772,0,0,1,775.151-459.021Zm-4.663-2.117a13.422,13.422,0,0,0,3.34-.106C772.452-462.978,771.607-462.916,770.488-461.139Z" transform="translate(301.553 8029.596)" fill="#16005f"/>
    <path id="Tracé_11004" data-name="Tracé 11004" d="M701.19-460.919a4.438,4.438,0,0,1-4.136,4.278,3.533,3.533,0,0,1-3.481-3.364,4.63,4.63,0,0,1,4.277-4.173A3.415,3.415,0,0,1,701.19-460.919Zm-2.008.22a1.647,1.647,0,0,0-1.463-1.766,2.308,2.308,0,0,0-2.158,2.341,1.669,1.669,0,0,0,1.688,1.755A2.253,2.253,0,0,0,699.182-460.7Z" transform="translate(339.564 8029.582)" fill="#16005f"/>
    <path id="Tracé_11005" data-name="Tracé 11005" d="M654.362-452.216c-.53.2-.721-.249-1-.475a15.391,15.391,0,0,0-3.809-2.467,5.933,5.933,0,0,0-5.849.565c-.654.447-1.306.9-1.953,1.353-.534.377-1.07.571-1.58-.01s-.194-1.082.218-1.566a7.962,7.962,0,0,1,9.18-2.225,8.639,8.639,0,0,1,4.064,2.708A2.472,2.472,0,0,1,654.362-452.216Z" transform="translate(366.895 8026.255)" fill="#16005f"/>
    <path id="Tracé_11006" data-name="Tracé 11006" d="M717.914-438.129c-.162,1.574-.3,3.152-.5,4.72-.13,1-.461,1.265-1.456.865-.51-.2-.7.047-1.03.152-2,.636-3.526-.429-3.446-2.482.051-1.313.275-2.621.426-3.93a.982.982,0,0,1,.5-.807,1,1,0,0,1,.951,0,.77.77,0,0,1,.41,1,13.532,13.532,0,0,0-.318,3.344c-.016.614.082,1.235.876,1.323a1.174,1.174,0,0,0,1.274-1.026c.264-1.016.4-2.066.572-3.1a7.5,7.5,0,0,1,.123-.98.924.924,0,0,1,1.081-.662c.615.07.727.464.609,1a5.022,5.022,0,0,0-.062.591Z" transform="translate(330.447 8017.134)" fill="#16005f"/>
    <path id="Tracé_11007" data-name="Tracé 11007" d="M765.982-434.105c.1-.72.153-1.447.3-2.156a1.921,1.921,0,0,0-.181-1.34.989.989,0,0,0-1.762-.185,2.658,2.658,0,0,0-.548,1.464c-.1.984-.267,1.962-.39,2.945a.936.936,0,0,1-1.084.907c-.619-.038-.7-.531-.641-1.023q.336-2.752.707-5.5c.066-.495.284-1,.864-.831a4.41,4.41,0,0,0,2.114-.122,2.264,2.264,0,0,1,2.758,2.346,39.9,39.9,0,0,1-.392,4.137c-.076.706-.467,1.1-1.2.992-.785-.12-.617-.7-.526-1.231.023-.13.022-.264.032-.4Z" transform="translate(304.896 8017.265)" fill="#16005f"/>
    <path id="Tracé_11008" data-name="Tracé 11008" d="M712.684-461.792c-.1.65-.222,1.3-.3,1.951a1.539,1.539,0,0,0,.9,1.774c.627.158,1.313-.313,1.559-1.2a8.879,8.879,0,0,0,.434-2.528,4.225,4.225,0,0,1,.133-1.175c.189-.687.775-.616,1.3-.554.5.059.61.409.548.863-.229,1.7-.459,3.391-.666,5.09-.063.518-.242.977-.811.9a5.924,5.924,0,0,0-2.449.263,2.3,2.3,0,0,1-2.766-1.93c-.274-1.595.241-3.143.458-4.7.093-.664.808-.559,1.325-.465.549.1.477.512.382.922-.06.256-.075.522-.11.783Z" transform="translate(330.951 8029.275)" fill="#16005f"/>
    <path id="Tracé_11009" data-name="Tracé 11009" d="M729.083-459.69c.474-.974.918-1.932,1.4-2.871.569-1.109.583-1.1,2.234-.768-.864,2.093-2.066,4-3.1,5.986a1.143,1.143,0,0,1-1.315.651c-.571-.1-.649-.577-.775-1.029-.442-1.59-.9-3.177-1.35-4.764-.107-.379-.292-.861.208-1.012.548-.165,1.248-.312,1.569.4a9.677,9.677,0,0,1,.479,1.714A2.9,2.9,0,0,0,729.083-459.69Z" transform="translate(323.029 8029.305)" fill="#16005f"/>
    <path id="Tracé_11010" data-name="Tracé 11010" d="M732.512-435.795a11.233,11.233,0,0,0,.334-2.686c.022-.678.4-1.362-.313-2-.3-.271-.161-.9.222-1.251a2.375,2.375,0,0,0,.782-1.552c.068-.68.428-.9,1.057-.855a.668.668,0,0,1,.669.95c-.337.953.772,1.328.746,2.156-.027.849-1.135.872-1.167,1.722a19.183,19.183,0,0,1-.334,2.337c-.1.583-.207,1.164-.325,1.742s-.525.718-1.038.671C732.53-434.617,732.42-435.03,732.512-435.795Z" transform="translate(319.811 8019.381)" fill="#16005f"/>
    <path id="Tracé_11011" data-name="Tracé 11011" d="M764.665-467.127c-.3,2.473-.579,4.831-.886,7.185a.955.955,0,0,1-1.1.9c-.57-.019-.892-.257-.817-.844.311-2.419.64-4.837.963-7.254.009-.065.041-.127.048-.192.074-.732.458-1.064,1.2-.926C764.851-468.116,764.659-467.515,764.665-467.127Z" transform="translate(304.799 8031.676)" fill="#16005f"/>
    <path id="Tracé_11012" data-name="Tracé 11012" d="M758.341-466.412c-.266,2.12-.55,4.345-.822,6.573-.1.843-.7.863-1.322.794-.684-.077-.552-.547-.486-1.037.316-2.355.595-4.714.892-7.072a2.252,2.252,0,0,1,.161-.768c.173-.324.531-.354.871-.337.362.019.662.159.7.554S758.341-466.915,758.341-466.412Z" transform="translate(307.955 8031.662)" fill="#16005f"/>
    <path id="Tracé_11013" data-name="Tracé 11013" d="M725.92-433.84c.219-1.563.454-3.263.7-4.962.069-.482.217-.915.817-.949.646-.037,1.048.217.959.914-.226,1.768-.5,3.53-.71,5.3-.079.677-.28,1.2-1.038,1.175C725.716-432.394,725.955-433.136,725.92-433.84Z" transform="translate(323.096 8017.146)" fill="#16005f"/>
    <path id="Tracé_11014" data-name="Tracé 11014" d="M757.815-438.042c-.169,1.525-.321,2.96-.491,4.394a3.277,3.277,0,0,1-.21.757.819.819,0,0,1-1.108.532.76.76,0,0,1-.6-.885c.231-1.821.475-3.641.71-5.462.078-.6.382-1,1.015-.982.77.02.721.611.711,1.145C757.833-438.346,757.82-438.149,757.815-438.042Z" transform="translate(308.088 8017.113)" fill="#16005f"/>
    <path id="Tracé_11015" data-name="Tracé 11015" d="M726.349-473.457c.063-.526.306-.872.889-.843a3.3,3.3,0,0,1,1.557.147c.2.114.135.341.071.522a2.1,2.1,0,0,1-2.728,1.293,1.8,1.8,0,0,1-.918-2.486,2.242,2.242,0,0,1,2.823-1.119c.3.154.66.411.567.726-.114.387-.5.21-.83.139-1.4-.3-1.853.068-1.724,1.382.009.1.176.177.269.265a.587.587,0,0,0,.649.323,1.011,1.011,0,0,0,.323-.166,1.872,1.872,0,0,0-.359-.139C726.745-473.444,726.546-473.443,726.349-473.457Z" transform="translate(323.549 8035.66)" fill="#16005f"/>
    <path id="Tracé_11016" data-name="Tracé 11016" d="M748.589-474.3c.6-.3.4-.852.554-1.258.072-.187.165-.4.4-.285.153.076.363.279.351.407-.083.913-.213,1.821-.338,2.73a.477.477,0,0,1-.36.416.578.578,0,0,1-.664-.3c-.275-.427-.5-.888-.741-1.339-.644.417-.3,1.734-.955,1.557-1-.268.024-1.207-.133-1.855a2.872,2.872,0,0,1,.062-.98.708.708,0,0,1,.586-.7.664.664,0,0,1,.617.42C748.181-475.1,748.381-474.7,748.589-474.3Z" transform="translate(312.668 8035.557)" fill="#16005f"/>
    <path id="Tracé_11017" data-name="Tracé 11017" d="M739.608-472.226a1.876,1.876,0,0,1-1.907-1.65,2.528,2.528,0,0,1,2.129-2.291,1.736,1.736,0,0,1,1.836,1.682A2.226,2.226,0,0,1,739.608-472.226Zm1.146-2.141a.912.912,0,0,0-.958-.978A1.348,1.348,0,0,0,738.618-474a.894.894,0,0,0,.9.871A1.128,1.128,0,0,0,740.754-474.367Z" transform="translate(317.096 8035.688)" fill="#16005f"/>
    <path id="Tracé_11018" data-name="Tracé 11018" d="M712.468-473.1c.078-.712.12-1.43.244-2.134.139-.787.636-1.063,1.428-.875.868.206,1.325.837.976,1.562-.3.62-.831,1.1-.465,1.909.117.259-.336.409-.531.194-.42-.462-.76-1.1-1.154.006-.017.047-.267.077-.345.024A.522.522,0,0,1,712.468-473.1Zm1.392-2.145a.446.446,0,0,0-.241.48c.018.214.123.4.376.316a.4.4,0,0,0,.26-.461C714.22-475.119,714.117-475.287,713.859-475.248Z" transform="translate(329.977 8035.688)" fill="#16005f"/>
    <path id="Tracé_11019" data-name="Tracé 11019" d="M720.561-476.453c.315.09.724.147.81.476.128.483-.332.427-.626.5-.474.117-.821.312-.137.635s.912.6.017.9c-.288.1-.712.079-.575.524.04.128.473.121.715.205.192.067.352.21.22.433-.291.492-.791.367-1.235.37-.336,0-.811-.1-.737-.452.236-1.117-.127-2.368.714-3.348a1.432,1.432,0,0,1,.327-.216l.059.055c.08.125.161.236.286.04A1.489,1.489,0,0,1,720.561-476.453Z" transform="translate(326.615 8035.832)" fill="#16005f"/>
    <path id="Tracé_11020" data-name="Tracé 11020" d="M595.033-443.72c.406-.018.552.215.492.486a5.826,5.826,0,0,1-.44,1.3c-.19.388-.075,1.026-.649,1.113-.592.09-.93-.422-1.263-.813-.527-.619-.452-.981.3-1.385C593.987-443.3,594.544-443.5,595.033-443.72Z" transform="translate(390.857 8019.166)" fill="#16005f"/>
    <path id="Tracé_11021" data-name="Tracé 11021" d="M728.57-443.207a.979.979,0,0,1-.99-.966,1.248,1.248,0,0,1,1.222-1.242.9.9,0,0,1,.9.849A1.251,1.251,0,0,1,728.57-443.207Z" transform="translate(322.252 8020.029)" fill="#16005f"/>
    <path id="Tracé_11022" data-name="Tracé 11022" d="M786.94-456.52c-.511-.111-1.467.282-1.481-.675-.014-.916.909-.762,1.524-.734.587.027,1.393-.345,1.65.572C788.8-456.776,788.274-456.52,786.94-456.52Z" transform="translate(292.779 8026.426)" fill="#16005f"/>
    <path id="Tracé_11023" data-name="Tracé 11023" d="M758.323-444.939c.506.028.881.224.911.783a1.192,1.192,0,0,1-1.032,1.2,1.064,1.064,0,0,1-1.048-.959C757.063-444.43,757.684-444.939,758.323-444.939Z" transform="translate(307.195 8019.785)" fill="#16005f"/>
    <path id="Tracé_11024" data-name="Tracé 11024" d="M735.389-474.776a5.256,5.256,0,0,1-.743,2.563c-1.1-.887.032-1.883-.132-2.818a.556.556,0,0,1,.075-.376c.1-.149.237-.331.393-.374.393-.107.375.245.426.479A2.567,2.567,0,0,1,735.389-474.776Z" transform="translate(318.9 8035.5)" fill="#16005f"/>
    <path id="Tracé_11025" data-name="Tracé 11025" d="M597.96-447.753c-.577,1.127-1.748,1.256-2.7,1.832C595.419-447.709,595.89-448.022,597.96-447.753Z" transform="translate(389.623 8021.262)" fill="#16005f"/>
    <path id="Tracé_11026" data-name="Tracé 11026" d="M721.142-477.421c.043-.187.027-.433.141-.549.26-.262.688-.671.959-.289.33.467-.434.492-.593.807a1.494,1.494,0,0,0-.162.126.429.429,0,0,1-.286-.04Z" transform="translate(325.527 8036.83)" fill="#16005f"/>
  </g>
</svg>
