<svg xmlns="http://www.w3.org/2000/svg" width="92.804" height="24.084" viewBox="0 0 92.804 24.084">
  <g id="Groupe_10967" data-name="Groupe 10967" transform="translate(-569 -7562)">
    <path id="Tracé_11123" data-name="Tracé 11123" d="M15.832-170.509c.6,0,1.2.015,1.805.011,1.481-.011,1.829-.348,1.831-1.788q.005-4.326,0-8.652c0-2.779-.006-5.557,0-8.336,0-1.586.571-2.14,2.189-2.146q3.186-.012,6.371,0c.934.005.959.023.95.951-.007.661.265,1.444-.144,1.952s-1.2.177-1.823.239a1.362,1.362,0,0,0-1.411,1.407c-.046.559-.019,1.125-.017,1.687q.021,7.491.043,14.983a5.191,5.191,0,0,1-.046.842,1.976,1.976,0,0,1-2.1,1.809c-2.549.013-5.1,0-7.646-.006Z" transform="translate(553.168 7753.427)" fill="#16005f"/>
    <path id="Tracé_11124" data-name="Tracé 11124" d="M114.784-167.331c0-.774.014-1.548-.017-2.32-.022-.571.179-.8.785-.828,2.585-.134,2.674-.247,2.674-2.764q0-8.492,0-16.984c0-1.167.008-1.171,1.162-1.176,1.31,0,2.619-.009,3.928,0,.96.008.987.022.988.92q.01,10.285,0,20.571c0,1.781-.676,2.419-2.431,2.425-1.911.007-3.822,0-5.733,0a2.163,2.163,0,0,0-1.142.148Z" transform="translate(496.287 7753.415)" fill="#16005f"/>
    <path id="Tracé_11125" data-name="Tracé 11125" d="M54.9-172.22c0,1.827.005,3.653,0,5.48,0,1.145-.012,1.147-1.2,1.154-.813,0-1.626.007-2.439,0-1.03-.01-1.031-.015-1.043-1.08-.006-.527-.025-1.055,0-1.58.034-.754-.476-.728-.99-.726s-1.027-.038-1,.72c.022.561.007,1.124,0,1.686-.017.95-.026.967-.928.979-.99.014-1.981-.032-2.969.015-.707.033-.92-.241-.912-.919.029-2.318.011-4.636.011-6.955,0-1.37-.009-2.74,0-4.11.011-1.344.512-1.9,1.823-1.914q3.977-.041,7.953,0c1.21.01,1.667.471,1.683,1.671.026,1.861.007,3.723.007,5.585Zm-4.688-2.236c0-.668.021-1.336-.006-2-.029-.75-.369-1.133-.959-1.149s-.991.369-1.007,1.1c-.029,1.37.013,2.742-.017,4.112-.019.847.554.716,1.078.745.586.032.958-.1.92-.8C50.184-173.119,50.212-173.788,50.211-174.456Z" transform="translate(537.311 7746.564)" fill="#16005f"/>
    <path id="Tracé_11126" data-name="Tracé 11126" d="M207.253-172.2c0-1.829-.009-3.658,0-5.486.008-1.241.477-1.77,1.707-1.785,2.689-.034,5.379-.03,8.069-.006,1.113.01,1.586.481,1.628,1.643.051,1.44.021,2.883.022,4.325,0,2.321.008,4.642,0,6.963,0,.93-.025.943-.956.954-.991.012-1.982-.018-2.973.008-.593.015-.841-.227-.825-.807.018-.632-.017-1.267.01-1.9.021-.492-.161-.674-.667-.7-1.228-.057-1.324.009-1.333,1.239-.015,2.159-.015,2.159-2.191,2.159-.566,0-1.134-.024-1.7,0-.6.03-.8-.234-.8-.813C207.266-168.328,207.253-170.262,207.253-172.2Zm6.668-2.251h-.007c0-.736.03-1.474-.009-2.209-.037-.694-.361-.978-.991-.957a.9.9,0,0,0-.974,1c-.006,1.4.021,2.807-.013,4.208-.018.741.427.753.963.755.57,0,1.077,0,1.038-.8C213.894-173.113,213.92-173.781,213.92-174.447Z" transform="translate(443.115 7746.564)" fill="#16005f"/>
    <path id="Tracé_11127" data-name="Tracé 11127" d="M174.4-172.622c0-1.97-.008-3.939,0-5.909.006-.927.024-.945.958-.949,2.69-.009,5.381-.018,8.07,0,1.722.014,2.381.688,2.393,2.365.008.985-.011,1.97.006,2.954a1.79,1.79,0,0,1-.706,1.669c-.312.213-.317.388-.055.661a3.034,3.034,0,0,1,.737,2.246c-.005,1.055-.02,2.111.005,3.165.013.554-.135.857-.765.838-1.026-.03-2.053-.021-3.079,0-.553.01-.756-.247-.752-.768.008-1.055,0-2.11-.01-3.165a1.061,1.061,0,0,0-.716-1.158c-.97-.336-1.389-.07-1.4.956-.014,1.125-.022,2.251,0,3.376.011.593-.236.811-.824.791-.99-.034-1.983-.054-2.972-.015-.715.028-.913-.27-.9-.938C174.416-168.542,174.4-170.583,174.4-172.622Zm4.686-2.88c0,.384-.012.768,0,1.151.017.441-.071.94.626.989.742.052,1.423-.278,1.462-.857a17.647,17.647,0,0,0-.005-2.509c-.047-.624-.643-.911-1.44-.882-.708.026-.633.509-.645.957C179.075-176.27,179.083-175.886,179.083-175.5Z" transform="translate(462.008 7746.563)" fill="#16005f"/>
    <path id="Tracé_11128" data-name="Tracé 11128" d="M153.672-173.124c0,1.687.007,3.375,0,5.062-.01,1.829-.672,2.5-2.48,2.514q-3.29.017-6.581,0c-1.814-.011-2.447-.631-2.45-2.4q-.011-5.221,0-10.442c0-1.049.02-1.055,1.069-1.071q1.327-.019,2.654-.012c.97.006.982.013.985,1.016.007,3.023,0,6.047,0,9.07a7.246,7.246,0,0,0,.035.947.9.9,0,0,0,.909.865.909.909,0,0,0,.979-.788,5.322,5.322,0,0,0,.063-1.049c0-2.988,0-5.977,0-8.965,0-1.094.012-1.1,1.126-1.1q1.273-.008,2.547,0c1.131.006,1.134.009,1.137,1.186Q153.677-175.708,153.672-173.124Z" transform="translate(480.539 7746.559)" fill="#16005f"/>
    <path id="Tracé_11129" data-name="Tracé 11129" d="M75.808-172.664c0-1.969-.007-3.938,0-5.907.005-.931.022-.94.95-.953s1.84-.014,2.76,0c.392.007.842-.14.995.493.088.364.419.078.61-.012a6.8,6.8,0,0,1,3.532-.485,2.049,2.049,0,0,1,2.145,2.243c.018,3.587-.008,7.174.019,10.76.005.694-.23.943-.924.906-.847-.046-1.7,0-2.547-.014-.92-.014-.936-.024-.939-.965-.008-3.059,0-6.119,0-9.178a8.32,8.32,0,0,0-.013-.843.991.991,0,0,0-1.109-1.01,1.039,1.039,0,0,0-1.19,1.048c-.027.279-.013.562-.013.843,0,3.024,0,6.048,0,9.072,0,.986-.02.994-1.017,1.009q-1.114.017-2.229,0c-1-.013-1.019-.021-1.024-1C75.8-168.655,75.808-170.66,75.808-172.664Z" transform="translate(518.688 7746.607)" fill="#16005f"/>
    <path id="Tracé_11130" data-name="Tracé 11130" d="M111.746-172.412c0,1.967.009,3.933,0,5.9-.006.919-.037.941-.962.954-.883.013-1.769-.028-2.65.012-.694.031-.932-.237-.919-.919.034-1.721.01-3.442.01-5.163,0-2.283-.008-4.566.005-6.848,0-.924.026-.935.962-.948.883-.012,1.769.03,2.65-.012.694-.034.929.228.919.913C111.725-176.487,111.746-174.45,111.746-172.412Z" transform="translate(500.631 7746.534)" fill="#16005f"/>
    <path id="Tracé_11131" data-name="Tracé 11131" d="M109.3-187.339c-2.062,0-2.077,0-2.058-2.026.023-2.4-.333-2.031,2.189-2.054,2.3-.021,2.311,0,2.3,2.252-.013,1.991.266,1.812-1.79,1.827C109.72-187.338,109.507-187.339,109.3-187.339Z" transform="translate(500.619 7753.427)" fill="#16005f"/>
  </g>
</svg>
