<svg xmlns="http://www.w3.org/2000/svg" width="78.117" height="62.606" viewBox="0 0 78.117 62.606">
  <g id="Groupe_10971" data-name="Groupe 10971" transform="translate(-1128 -7543)">
    <path id="Tracé_11073" data-name="Tracé 11073" d="M393.507-238.909c.481.066.966.118,1.444.2a9.1,9.1,0,0,1,4.085,1.743,4.165,4.165,0,0,1,1.246,1.447,1.634,1.634,0,0,1-.353,2.11,8.714,8.714,0,0,0-2.3,3.52,5.432,5.432,0,0,0,4.185,7.043,4.976,4.976,0,0,0,5.347-2.7,7.454,7.454,0,0,0,.761-3.784,14.287,14.287,0,0,0-2.751-7.552.791.791,0,0,1-.22-.491c.014-.235.167-.335.369-.219a1.38,1.38,0,0,1,.254.218l16.775,16.213c.154.149.317.288.467.44a3.36,3.36,0,0,1-.05,4.953q-8.6,8.308-17.2,16.61c-.145.14-.306.392-.529.2-.208-.178-.064-.409.067-.6a15.928,15.928,0,0,0,2.444-5.125,9.329,9.329,0,0,0-.032-5.473,4.961,4.961,0,0,0-4.191-3.548,4.944,4.944,0,0,0-4.872,2.121,5.384,5.384,0,0,0-.279,6.2,9.439,9.439,0,0,0,1.758,2.259,1.809,1.809,0,0,1,.532.874,1.883,1.883,0,0,1-.292,1.427,4.653,4.653,0,0,1-1.442,1.475,9.831,9.831,0,0,1-4.789,1.654,6.774,6.774,0,0,1-3.062-.365,7.454,7.454,0,0,1-3.681-3.263,19.4,19.4,0,0,1-2.3-6.078,41.191,41.191,0,0,1-.809-5.516,63.312,63.312,0,0,1-.165-7.939,40.9,40.9,0,0,1,1.517-10.263,14.79,14.79,0,0,1,2.6-5.242,6.524,6.524,0,0,1,4.1-2.449c.208-.033.432.027.625-.1Z" transform="translate(774.373 7781.909)" fill="#16005f"/>
    <path id="Tracé_11074" data-name="Tracé 11074" d="M309.6-111.268c.067-.408.109-.823.205-1.225a6,6,0,0,1,4.313-4.771,5.167,5.167,0,0,1,5.5,1.784,2.536,2.536,0,0,1,.552,2.028A1.365,1.365,0,0,1,319.1-112.3a1.375,1.375,0,0,1-1.36-.565,1.344,1.344,0,0,1,.02-1.574c.235-.295.147-.47-.056-.7a2.741,2.741,0,0,0-3.688-.171,4.376,4.376,0,0,0-1.391,2.485,7.684,7.684,0,0,0,.325,4.817,3.167,3.167,0,0,0,2.262,2.089,2.587,2.587,0,0,0,2.592-.77c.184-.2.249-.357.039-.621a1.365,1.365,0,0,1,.05-1.723,1.392,1.392,0,0,1,1.617-.332,1.629,1.629,0,0,1,.754,1.675,3.8,3.8,0,0,1-2.2,2.756,5.709,5.709,0,0,1-7.544-2.352,6.691,6.691,0,0,1-.847-2.87.706.706,0,0,0-.072-.324Z" transform="translate(818.404 7709.918)" fill="#16005f"/>
    <path id="Tracé_11075" data-name="Tracé 11075" d="M329.285-216.439a3.315,3.315,0,0,1,1.122-2.515q8.565-8.273,17.129-16.546c.162-.156.34-.421.584-.213.263.225.018.442-.13.627a31.13,31.13,0,0,0-5.291,9.3,27.2,27.2,0,0,0-1.394,6.545,29.127,29.127,0,0,0,1.357,12.166,29.112,29.112,0,0,0,4.027,7.608c.43.594.887,1.169,1.328,1.754a1.8,1.8,0,0,1,.18.282.26.26,0,0,1-.079.33.257.257,0,0,1-.314,0,1.211,1.211,0,0,1-.21-.176L330.8-213.515c-.2-.191-.4-.376-.591-.575A3.186,3.186,0,0,1,329.285-216.439Z" transform="translate(806.732 7780.061)" fill="#16005f"/>
    <path id="Tracé_11076" data-name="Tracé 11076" d="M467.072-103.875c0,.815,0,1.631,0,2.445,0,.74.274,1.023,1,1.025.136,0,.2.03.235.167a.724.724,0,0,1-.223.778,2.712,2.712,0,0,1-2.277.623c-.484-.072-.674-.477-.8-.907-.1-.325-.105-.326-.344-.083a3.26,3.26,0,0,1-3.1.957,2.82,2.82,0,0,1-2.233-2.518,18.548,18.548,0,0,1-.1-1.859c-.019-.672,0-1.345-.007-2.017-.008-.71-.232-.939-.935-.932-.228,0-.307-.081-.324-.291a.878.878,0,0,1,.279-.745,2.635,2.635,0,0,1,2.315-.68,1.1,1.1,0,0,1,.887,1.005,14.248,14.248,0,0,1,.036,2.166,13.631,13.631,0,0,0,.146,2.952c.167.795.544,1.163,1.227,1.24a1.61,1.61,0,0,0,1.688-.9,2.881,2.881,0,0,0,.3-1.266q.012-1.314,0-2.629c0-.593-.273-.852-.865-.856-.35,0-.473-.161-.4-.513a1.158,1.158,0,0,1,.5-.709,2.818,2.818,0,0,1,2.026-.508,1.142,1.142,0,0,1,.971,1.034,5.17,5.17,0,0,1,.032.822c-.015.733-.005,1.467-.005,2.2Z" transform="translate(730.455 7704.283)" fill="#16005f"/>
    <path id="Tracé_11077" data-name="Tracé 11077" d="M346.568-103.5c0,.724,0,1.447,0,2.17a.845.845,0,0,0,.791.975c.491.112.529.189.309.658a1.281,1.281,0,0,1-.985.69,1.74,1.74,0,0,1-1.867-.733c-.124-.194-.2-.183-.367-.059a3.724,3.724,0,0,1-3.626.636,2.763,2.763,0,0,1-1.68-3.781,2.95,2.95,0,0,1,2.213-1.559,5.286,5.286,0,0,1,2.8.121c.18.058.266.049.252-.17a7.5,7.5,0,0,0-.063-1.369,1.226,1.226,0,0,0-1.1-.994,3.3,3.3,0,0,0-1.271.1c-.149.041-.2.1-.179.253a1.679,1.679,0,0,1-.021.637,1.111,1.111,0,0,1-1.345.809,1.157,1.157,0,0,1-.836-1.393,1.783,1.783,0,0,1,.869-1.13,4.033,4.033,0,0,1,1.876-.581,6.38,6.38,0,0,1,2.538.219,2.186,2.186,0,0,1,1.634,2.148c.02.4.044.794.053,1.19s0,.775,0,1.161Zm-2.16,1.479v-.305a.826.826,0,0,0-.7-.957,2.5,2.5,0,0,0-1.474-.011,1.24,1.24,0,0,0-.924.925,1.4,1.4,0,0,0,.457,1.519,1.66,1.66,0,0,0,1.841.15c.534-.241.937-.583.8-1.26A.3.3,0,0,1,344.408-102.021Z" transform="translate(801.043 7704.46)" fill="#16005f"/>
    <path id="Tracé_11078" data-name="Tracé 11078" d="M438.785-108.228A4.365,4.365,0,0,1,443.3-103.6a4.469,4.469,0,0,1-4.647,4.634,4.461,4.461,0,0,1-4.5-4.688A4.528,4.528,0,0,1,438.785-108.228Zm2.1,4.732a4.615,4.615,0,0,0-.694-2.589,1.781,1.781,0,0,0-3.157.232,3.684,3.684,0,0,0-.372,1.376,5.277,5.277,0,0,0,.5,3.056,1.788,1.788,0,0,0,1.707,1.08,1.838,1.838,0,0,0,1.634-1.195A4.92,4.92,0,0,0,440.883-103.5Z" transform="translate(744.57 7704.445)" fill="#16005f"/>
    <path id="Tracé_11079" data-name="Tracé 11079" d="M422.422-110c0,.805-.01,1.611,0,2.415a.951.951,0,0,0,.9,1.1c.244.05.491.066.5.4a.606.606,0,0,1-.421.607,3.349,3.349,0,0,1-1.163.219,9.056,9.056,0,0,1-2.434-.1c-.539-.106-.79-.4-.706-.783a.363.363,0,0,1,.277-.322,1,1,0,0,0,.8-1.078c.011-1.692.006-3.384.012-5.075,0-.171-.068-.242-.232-.244-.3,0-.591-.022-.887-.012-.184.006-.253-.081-.288-.239a.764.764,0,0,1,.787-1.025c.584-.019.584-.019.594-.59a6.611,6.611,0,0,1,.171-1.635,2.925,2.925,0,0,1,2.809-2.223,4.388,4.388,0,0,1,2.312.437,1.771,1.771,0,0,1,1.116,1.678,1.151,1.151,0,0,1-1.077,1.128,1.161,1.161,0,0,1-1.188-.938.9.9,0,0,1,.092-.622c.115-.217.007-.3-.165-.361-.814-.283-1.777-.129-1.872,1.131-.042.558-.022,1.12-.039,1.68-.006.209.07.284.284.279.581-.013,1.162,0,1.743-.008.223,0,.305.093.336.3a.856.856,0,0,1-.8,1.089,6.629,6.629,0,0,1-1.19-.015c-.232-.008-.3.072-.3.3.011.836,0,1.671,0,2.507Z" transform="translate(753.695 7710.586)" fill="#16005f"/>
    <path id="Tracé_11080" data-name="Tracé 11080" d="M402.082-103.584q-1.223,0-2.445,0c-.349,0-.366.024-.307.366a2.621,2.621,0,0,0,1.834,2.265,3.121,3.121,0,0,0,3.165-.635c.255-.222.366-.213.493.107a1.212,1.212,0,0,1-.1,1.085,2.577,2.577,0,0,1-1.58,1.169,4.681,4.681,0,0,1-5.175-1.4c-1.85-2.255-1.082-6.8,2.537-7.527a3.772,3.772,0,0,1,3.753.966,3.162,3.162,0,0,1,.771,3.247.434.434,0,0,1-.5.363C403.713-103.6,402.9-103.584,402.082-103.584Zm-1.012-1.248c.5,0,1,0,1.5,0,.265,0,.386-.108.391-.382a1.7,1.7,0,0,0-1.154-1.656,1.8,1.8,0,0,0-2.056.665,2.842,2.842,0,0,0-.407,1.105c-.04.217.04.271.236.269C400.073-104.836,400.572-104.832,401.07-104.832Z" transform="translate(766.598 7704.474)" fill="#16005f"/>
    <path id="Tracé_11081" data-name="Tracé 11081" d="M365.387-107.019a5.087,5.087,0,0,1,.584-.662,1.917,1.917,0,0,1,2.111-.45,1.267,1.267,0,0,1,.728,1.355,1.217,1.217,0,0,1-1.01,1.077,1.1,1.1,0,0,1-1.206-.676c-.087-.212-.179-.2-.332-.1a1.519,1.519,0,0,0-.554.713,3.22,3.22,0,0,0-.252,1.187q-.018,1.558,0,3.117a.942.942,0,0,0,.878,1.087c.213.051.379.12.407.372a.562.562,0,0,1-.282.621,2.48,2.48,0,0,1-1.095.238,9.292,9.292,0,0,1-2.343-.1,1.179,1.179,0,0,1-.555-.237.512.512,0,0,1,.153-.888.952.952,0,0,0,.728-.941q.07-2.2,0-4.4c-.017-.541-.255-.737-.8-.707-.415.023-.548-.144-.449-.564a1.985,1.985,0,0,1,2.689-.959,1.464,1.464,0,0,1,.442.612C365.267-107.222,365.269-107.1,365.387-107.019Z" transform="translate(787.303 7704.479)" fill="#16005f"/>
    <path id="Tracé_11082" data-name="Tracé 11082" d="M488.263-102.9c.02.5-.022,1.036.039,1.575.068.606.228.834.83.961.285.06.432.193.452.47a.559.559,0,0,1-.373.572,2.631,2.631,0,0,1-.982.193,9.3,9.3,0,0,1-2.4-.1,1.079,1.079,0,0,1-.548-.252.5.5,0,0,1,.173-.867,1,1,0,0,0,.74-1.035c.014-1.436.018-2.873,0-4.309-.006-.53-.276-.733-.817-.7-.405.023-.472-.044-.458-.448a.817.817,0,0,1,.207-.53,2.34,2.34,0,0,1,1.82-.786,1.2,1.2,0,0,1,1.135.913c.029.079.015.21.123.224s.131-.112.184-.18a2.277,2.277,0,0,1,2.11-1.046,1.266,1.266,0,0,1,1.14,1.289,1.206,1.206,0,0,1-1.025,1.279,1.1,1.1,0,0,1-1.181-.674c-.1-.235-.2-.206-.355-.093a1.742,1.742,0,0,0-.643,1.042A10.146,10.146,0,0,0,488.263-102.9Z" transform="translate(714.48 7704.466)" fill="#16005f"/>
    <path id="Tracé_11083" data-name="Tracé 11083" d="M383.33-106.968a3.182,3.182,0,0,1,1.06-1.041,1.769,1.769,0,0,1,1.639-.131,1.275,1.275,0,0,1,.727,1.439,1.19,1.19,0,0,1-1.007,1,1.075,1.075,0,0,1-1.17-.637c-.114-.29-.243-.229-.415-.1a1.906,1.906,0,0,0-.678,1.326,22.906,22.906,0,0,0-.062,3.811.9.9,0,0,0,.849.922c.251.039.4.141.428.414a.549.549,0,0,1-.319.6,2.5,2.5,0,0,1-1.007.214,9.02,9.02,0,0,1-2.433-.1c-.541-.109-.77-.382-.691-.79.025-.129.059-.255.222-.292a1.1,1.1,0,0,0,.861-1.231c0-1.345.014-2.689,0-4.034-.008-.652-.25-.862-.9-.8-.3.027-.379-.089-.385-.352a.88.88,0,0,1,.207-.651,2.379,2.379,0,0,1,1.8-.775,1.17,1.17,0,0,1,1.115.811C383.216-107.251,383.26-107.14,383.33-106.968Z" transform="translate(776.641 7704.479)" fill="#16005f"/>
  </g>
</svg>
