<svg id="Groupe_10854" data-name="Groupe 10854" xmlns="http://www.w3.org/2000/svg" width="35.198" height="35.198" viewBox="0 0 35.198 35.198">
  <path id="Tracé_10080" data-name="Tracé 10080" d="M512.229-114.6a17.627,17.627,0,0,1-17.751,17.547A17.629,17.629,0,0,1,477.031-114.7a17.627,17.627,0,0,1,17.751-17.547A17.629,17.629,0,0,1,512.229-114.6ZM494.588-98.65a16.027,16.027,0,0,0,16.043-16.009,16.035,16.035,0,0,0-15.859-15.993,16.032,16.032,0,0,0-16.143,15.909A16.029,16.029,0,0,0,494.588-98.65Z" transform="translate(-477.031 132.251)" fill="#25cdff"/>
  <path id="Tracé_10081" data-name="Tracé 10081" d="M514.649-90.32c0-1.2,0-2.394,0-3.591.008-1.708,1.9-2.893,3.081-1.707.885.89,1.2.362,1.807.1a3.682,3.682,0,0,1,5.323,2.491c.674,2.408.363,4.9.243,7.339-.067,1.36-1.473.547-2.264.709-.748.153-1.266-.085-1.237-1.036.047-1.528.028-3.059-.007-4.587-.027-1.2-.246-2.406-1.783-2.357-1.488.047-1.718,1.233-1.733,2.438-.019,1.463-.067,2.929.008,4.388s-.907,1.171-1.728,1.17-1.809.276-1.74-1.164c.067-1.393.014-2.792.014-4.188Z" transform="translate(-499.576 110.564)" fill="#25cdff"/>
  <path id="Tracé_10082" data-name="Tracé 10082" d="M505.124-89.845c0,1.325-.075,2.657.022,3.975.094,1.3-.628,1.343-1.591,1.33-.918-.012-1.655.06-1.609-1.287.094-2.781.08-5.568,0-8.35-.032-1.183.561-1.293,1.463-1.231.82.057,1.8-.25,1.728,1.188C505.066-92.764,505.123-91.3,505.124-89.845Z" transform="translate(-491.975 110.158)" fill="#25cdff"/>
  <path id="Tracé_10083" data-name="Tracé 10083" d="M504.789-106.216a1.673,1.673,0,0,1-1.966,1.7,1.635,1.635,0,0,1-1.693-1.79,1.711,1.711,0,0,1,1.88-1.833C504.2-108.127,504.757-107.384,504.789-106.216Z" transform="translate(-491.487 117.788)" fill="#25cdff"/>
</svg>
