<svg xmlns="http://www.w3.org/2000/svg" width="102.391" height="26.852" viewBox="0 0 102.391 26.852">
  <g id="Groupe_10965" data-name="Groupe 10965" transform="translate(-288 -7561)">
    <path id="Tracé_11027" data-name="Tracé 11027" d="M-77.509-464.776c0,2.909,0,5.818.006,8.727a1.034,1.034,0,0,1-.326.809q-3.573,3.56-7.125,7.142a1.086,1.086,0,0,1-.819.342q-8.75,0-17.5,0a.8.8,0,0,1-.907-.918q-.006-5.024,0-10.048c0-.386.014-.4.412-.4q1.862,0,3.724,0c.383,0,.4.018.4.415,0,1.228,0,2.455,0,3.683,0,.455.02.474.475.477q.921.005,1.842,0c.471,0,.506-.035.507-.5,0-1.2,0-2.4,0-3.6,0-.47,0-.472.46-.473q1.7,0,3.4,0c.691,0,.692,0,.693-.71q0-.74,0-1.481c0-.633,0-.633-.652-.633l-3.324,0c-.581,0-.582,0-.581-.6q0-1.721,0-3.443c0-.5-.028-.526-.516-.528-.628,0-1.255,0-1.883,0-.4,0-.436.033-.437.434,0,1.214,0,2.429,0,3.643,0,.493,0,.494-.481.495q-1.8,0-3.6,0c-.437,0-.451-.014-.451-.449,0-1.241.005-2.482,0-3.723a1.177,1.177,0,0,1,.372-.891q3.619-3.6,7.229-7.208a.694.694,0,0,1,.533-.215c4.338.012,8.677,0,13.014.042q2.361.025,4.723.04c.666,0,.774.1.774.758q0,4.4,0,8.807ZM-91.4-466.52v0c-.334,0-.668-.012-1,.005-.2.01-.487-.112-.585.1-.081.173.162.339.277.5Q-90.86-463.405-89-460.9a.459.459,0,0,1,.006.639c-1.3,1.741-2.591,3.491-3.885,5.239-.078.105-.2.206-.132.353s.225.122.354.122c.814,0,1.628,0,2.442.007a.593.593,0,0,0,.531-.282c.565-.776,1.142-1.543,1.716-2.314.231-.31.471-.614.694-.93.149-.21.263-.181.383.017.034.057.079.108.119.161l2.265,3.052c.1.139.2.29.4.29.907,0,1.815.008,2.722,0,.249,0,.308-.126.187-.338a3.281,3.281,0,0,0-.233-.325q-1.821-2.461-3.641-4.921c-.34-.459-.334-.458.009-.919q1.885-2.537,3.765-5.077c.076-.1.2-.206.121-.349-.07-.12-.215-.085-.332-.085-.854,0-1.708.007-2.562,0a.6.6,0,0,0-.534.279c-.748,1.039-1.507,2.069-2.265,3.1-.22.3-.227.3-.44.012-.752-1.02-1.5-2.039-2.246-3.066a.612.612,0,0,0-.565-.3C-90.546-466.509-90.973-466.52-91.4-466.52Z" transform="translate(467.895 8035.423)" fill="#16005f"/>
    <path id="Tracé_11028" data-name="Tracé 11028" d="M-159.073-450.3a18.7,18.7,0,0,1-2.293-.056,4.135,4.135,0,0,1-3.561-3.038,4.131,4.131,0,0,1,1.267-4.548,4.228,4.228,0,0,1,4.786-.676,4.135,4.135,0,0,1,2.517,3.909,3.957,3.957,0,0,1-.855,2.53c-.056.075-.113.148-.168.224-.038.051-.109.1-.075.17s.113.056.176.054c.386-.009.773-.022,1.16-.034a2.037,2.037,0,0,1,.24-.008c.241.021.311.143.174.349-.214.322-.451.628-.68.939a.552.552,0,0,1-.5.185C-157.569-450.3-158.249-450.3-159.073-450.3Zm1.066-4.352a2.833,2.833,0,0,0-1.915-2.76,2.706,2.706,0,0,0-3.063,1.068,2.961,2.961,0,0,0,1.117,4.3A2.749,2.749,0,0,0-158.008-454.653Z" transform="translate(498.496 8027.715)" fill="#16005f"/>
    <path id="Tracé_11029" data-name="Tracé 11029" d="M-219.223-454.569q0-1.821,0-3.642c0-.427.006-.434.416-.434,1.148,0,2.3-.007,3.443,0a3.709,3.709,0,0,1,1.593.332,2.124,2.124,0,0,1,.377,3.5c-.264.191-.259.214.034.358a1.928,1.928,0,0,1,1.089,1.859,2,2,0,0,1-1.034,1.862,3.51,3.51,0,0,1-1.8.461c-1.161.011-2.322.006-3.483,0-.506,0-.63-.133-.632-.653C-219.225-452.141-219.223-453.355-219.223-454.569Zm3.024.815v0c-.36,0-.72.01-1.079,0-.24-.009-.335.076-.329.322q.019.738,0,1.477c-.006.244.091.332.328.328.665-.009,1.332,0,2-.011a1.7,1.7,0,0,0,.984-.285.933.933,0,0,0-.13-1.653,1.691,1.691,0,0,0-.734-.168C-215.507-453.759-215.853-453.754-216.2-453.754Zm-.11-3.53c-.372,0-.679.008-.985,0-.218-.007-.315.069-.311.3q.015.779,0,1.559c0,.246.1.327.334.323.6-.01,1.2,0,1.8-.009a1.594,1.594,0,0,0,.8-.229,1,1,0,0,0,.486-1.091,1.022,1.022,0,0,0-.795-.759A5.009,5.009,0,0,0-216.309-457.284Z" transform="translate(525.641 8027.504)" fill="#16005f"/>
    <path id="Tracé_11030" data-name="Tracé 11030" d="M-175.851-454.462q0,1.881,0,3.763c0,.419-.009.425-.423.432-.824.012-.83.017-1.382-.619q-1.915-2.207-3.82-4.422c-.035-.04-.067-.083-.1-.124s-.067-.094-.127-.078c-.087.023-.062.106-.066.166-.006.08,0,.16,0,.24q0,2.2,0,4.4c0,.411-.015.424-.429.43-.307,0-.614,0-.921,0-.177,0-.273-.083-.267-.269,0-.08,0-.16,0-.24v-7.325c0-.08.006-.16,0-.24-.012-.228.107-.307.319-.3s.427.008.641,0a.523.523,0,0,1,.445.216q2.054,2.43,4.116,4.853c.017.02.032.043.05.062.08.083.135.253.257.215s.07-.207.071-.318q.006-2.2,0-4.4c0-.12,0-.24,0-.36,0-.184.093-.263.274-.262.334,0,.667-.006,1,0s.355.028.356.379C-175.849-457-175.851-455.73-175.851-454.462Z" transform="translate(507.654 8027.504)" fill="#16005f"/>
    <path id="Tracé_11031" data-name="Tracé 11031" d="M-142.593-433.545q0-1.859,0-3.72c0-.436.015-.454.45-.45,1.16.01,2.32-.027,3.48.028a3.556,3.556,0,0,1,1.2.264,2.6,2.6,0,0,1,1.726,2.258,2.681,2.681,0,0,1-1.283,2.66c-.357.235-.356.227-.1.579q.818,1.136,1.628,2.277c.181.257.152.31-.157.316-.4.007-.8-.01-1.2.006a.593.593,0,0,1-.56-.3c-.468-.681-.956-1.349-1.421-2.032a.649.649,0,0,0-.624-.334c-.385.02-.773.015-1.16,0-.262-.008-.352.1-.348.355.01.626.006,1.254,0,1.88,0,.413-.012.421-.431.426-.28,0-.56,0-.84,0-.332-.007-.363-.033-.365-.372-.005-.92,0-1.84,0-2.76Zm1.638-1.3h0c0,.346.007.692,0,1.037-.006.229.067.349.316.344.585-.011,1.17-.008,1.756-.017a1.875,1.875,0,0,0,.7-.157,1.309,1.309,0,0,0,.866-1.225,1.282,1.282,0,0,0-.842-1.2,1.5,1.5,0,0,0-.615-.16c-.625-.009-1.25-.007-1.876-.017-.223,0-.307.1-.3.315C-140.95-435.563-140.956-435.2-140.956-434.845Z" transform="translate(487.176 8016.998)" fill="#16005f"/>
    <path id="Tracé_11032" data-name="Tracé 11032" d="M-235.406-429.324a4.325,4.325,0,0,1-4.36-4.382,4.334,4.334,0,0,1,4.435-4.348,4.358,4.358,0,0,1,4.35,4.4A4.347,4.347,0,0,1-235.406-429.324Zm-2.716-4.155a2.667,2.667,0,0,0,1.145,2.131,2.546,2.546,0,0,0,2.722.274,2.715,2.715,0,0,0,1.6-2.363,2.8,2.8,0,0,0-2.621-3.113A2.825,2.825,0,0,0-238.122-433.479Z" transform="translate(535.953 8017.166)" fill="#16005f"/>
    <path id="Tracé_11033" data-name="Tracé 11033" d="M-256.206-433.515q0-1.88,0-3.759c0-.439.011-.455.447-.45,1.279.012,2.561-.06,3.838.045a2.916,2.916,0,0,1,2.515,1.53,2.984,2.984,0,0,1-1.515,4.136,4.212,4.212,0,0,1-1.6.305c-.573,0-1.147.007-1.72,0-.259-.005-.354.089-.347.351.015.56-.008,1.12.008,1.679.008.27-.1.354-.352.345-.306-.011-.614,0-.92,0-.333-.007-.354-.027-.355-.376Q-256.209-431.616-256.206-433.515Zm1.624-1.176c0,.413.011.827,0,1.24-.008.239.066.335.316.329.6-.014,1.2,0,1.8-.006a2.15,2.15,0,0,0,.744-.141,1.578,1.578,0,0,0,1.035-1.632,1.48,1.48,0,0,0-1.315-1.3,2.286,2.286,0,0,0-.359-.034c-.627,0-1.254.005-1.881-.009-.269-.006-.348.107-.34.358C-254.571-435.492-254.581-435.092-254.582-434.692Z" transform="translate(544.207 8017.008)" fill="#16005f"/>
    <path id="Tracé_11034" data-name="Tracé 11034" d="M-219.222-433.583q0-1.84,0-3.681c0-.45.007-.465.436-.46,1.28.013,2.563-.062,3.84.045a2.884,2.884,0,0,1,2.493,1.5,2.975,2.975,0,0,1-1.759,4.269,4.4,4.4,0,0,1-1.379.2q-.82-.007-1.641,0c-.348,0-.364.018-.368.361-.007.547,0,1.094,0,1.641,0,.345-.022.359-.366.365-.28.005-.56,0-.841,0-.4,0-.409-.011-.41-.4,0-1.147,0-2.294,0-3.44Q-219.222-433.383-219.222-433.583Zm1.621-1.08h0c0,.413,0,.825,0,1.238,0,.161.017.3.226.3a16.808,16.808,0,0,0,2.273-.051,1.526,1.526,0,0,0,1.272-.968,1.468,1.468,0,0,0-1.266-2.064,21.612,21.612,0,0,0-2.236-.03c-.214,0-.272.11-.269.3C-217.6-435.516-217.6-435.09-217.6-434.663Z" transform="translate(525.641 8017.008)" fill="#16005f"/>
    <path id="Tracé_11035" data-name="Tracé 11035" d="M-162.621-429.38c-.812,0-.805,0-1.13-.764-.472-1.108-.143-.873-1.319-.893-.88-.015-1.76.01-2.64-.007-.311-.006-.5.073-.59.391s-.261.642-.376.968a.394.394,0,0,1-.441.31c-.373-.017-.747-.006-1.12-.008-.179,0-.244-.082-.173-.254.03-.074.056-.15.088-.223,1.089-2.534,2.182-5.067,3.261-7.606a.451.451,0,0,1,.5-.343,5.425,5.425,0,0,0,.839,0c.308-.028.442.113.556.383.87,2.063,1.754,4.12,2.634,6.178.215.5.437,1,.644,1.507.133.325.108.354-.253.364C-162.3-429.376-162.461-429.38-162.621-429.38Zm-3.466-3.1c.333,0,.666,0,1,0,.381,0,.385-.008.255-.345-.077-.2-.164-.392-.245-.59q-.469-1.144-.937-2.289c-.024-.058-.036-.142-.115-.147s-.094.082-.117.138q-.6,1.481-1.193,2.962c-.078.194,0,.271.194.27C-166.859-432.484-166.473-432.483-166.087-432.482Z" transform="translate(501.152 8017.047)" fill="#16005f"/>
    <path id="Tracé_11036" data-name="Tracé 11036" d="M-195.588-450.281c-.987-.012-.716.122-1.1-.747-.049-.11-.094-.221-.137-.333-.253-.655-.156-.565-.859-.567-1,0-2,.007-3-.007a.436.436,0,0,0-.5.334c-.111.342-.281.664-.4,1a.419.419,0,0,1-.476.32c-.32-.014-.64,0-.961,0-.381-.007-.393-.03-.238-.395q.74-1.729,1.481-3.458c.588-1.373,1.184-2.744,1.761-4.122a.541.541,0,0,1,.627-.4,4.612,4.612,0,0,0,.8,0,.437.437,0,0,1,.477.327q1.631,3.851,3.275,7.7c.129.3.107.342-.221.354C-195.241-450.276-195.415-450.281-195.588-450.281Zm-3.477-3.083c.386,0,.773,0,1.159,0,.187,0,.24-.074.166-.246s-.141-.345-.212-.517q-.483-1.183-.969-2.366c-.033-.08-.045-.209-.159-.2s-.115.131-.148.214q-.553,1.371-1.1,2.743c-.142.355-.131.368.266.373C-199.731-453.36-199.4-453.364-199.065-453.364Z" transform="translate(517.68 8027.514)" fill="#16005f"/>
    <path id="Tracé_11037" data-name="Tracé 11037" d="M-194.512-434.947c-.027.733.041,1.6-.04,2.465a3.478,3.478,0,0,1-3.493,3.329,3.863,3.863,0,0,1-2.575-.685,3.574,3.574,0,0,1-1.4-2.761c-.078-1.078-.018-2.159-.028-3.24,0-.507,0-1.013,0-1.52,0-.347,0-.35.361-.356.28,0,.56,0,.841,0,.395,0,.4.01.405.4q0,1.92,0,3.84a4.741,4.741,0,0,0,.1,1.152,2.1,2.1,0,0,0,2.056,1.686,2.1,2.1,0,0,0,2.083-1.707,4.04,4.04,0,0,0,.095-.913q-.006-2.02,0-4.04c0-.417.008-.421.428-.424.266,0,.533,0,.8,0,.357.006.378.025.38.4C-194.509-436.574-194.512-435.827-194.512-434.947Z" transform="translate(517.029 8016.999)" fill="#16005f"/>
    <path id="Tracé_11038" data-name="Tracé 11038" d="M-136.516-455.934c0,.707.015,1.414,0,2.12a3.885,3.885,0,0,1-.983,2.638,3.44,3.44,0,0,1-2.264,1.067,4.084,4.084,0,0,1-2.553-.474,3.5,3.5,0,0,1-1.669-2.646,7.916,7.916,0,0,1-.067-1.276c0-1.214,0-2.427,0-3.641,0-.5,0-.5.518-.5.227,0,.453,0,.68,0,.391.006.406.018.407.406,0,1.16,0,2.32,0,3.481a8.08,8.08,0,0,0,.06,1.316,2.109,2.109,0,0,0,2.816,1.744,1.99,1.99,0,0,0,1.262-1.251,3.205,3.205,0,0,0,.192-1.178c0-1.307,0-2.614,0-3.92,0-.6,0-.6.579-.6.227,0,.454.009.68,0,.258-.013.354.1.35.354-.01.786,0,1.573,0,2.36Z" transform="translate(487.91 8027.505)" fill="#16005f"/>
    <path id="Tracé_11039" data-name="Tracé 11039" d="M-125.1-433.649q0-1.821,0-3.642c0-.411.012-.422.431-.423q2.462,0,4.923,0c.414,0,.429.018.434.424,0,.227-.009.454,0,.68.013.261-.1.351-.358.349-.827-.009-1.654,0-2.482,0-.334,0-.667.008-1,0-.231-.007-.343.066-.336.319.014.48.014.96,0,1.44-.006.249.1.325.334.323.76-.007,1.521-.005,2.281,0,.413,0,.416.01.421.433,0,.213,0,.427,0,.64-.007.342-.02.362-.367.365-.747.005-1.494,0-2.241,0-.419,0-.421,0-.424.425q0,.56,0,1.12c0,.423,0,.427.416.428,1.174,0,2.349,0,3.523.005.175,0,.407-.09.505.126.084.185-.1.319-.2.451-.814,1.049-.415.845-1.684.859-1.134.013-2.268,0-3.4,0-.671,0-.781-.115-.781-.8Q-125.1-431.889-125.1-433.649Z" transform="translate(478.393 8016.996)" fill="#16005f"/>
    <path id="Tracé_11040" data-name="Tracé 11040" d="M-125.094-454.575c0-1.214,0-2.427,0-3.641,0-.413.014-.428.429-.429q2.462,0,4.923,0c.423,0,.431.013.436.422,0,.187,0,.374,0,.56,0,.444-.01.453-.445.455-.974,0-1.948,0-2.921,0-.8,0-.8,0-.8.8,0,.267,0,.533,0,.8,0,.473,0,.475.5.476.694,0,1.388,0,2.081,0,.45,0,.451,0,.455.437,0,.213,0,.427,0,.64-.007.351-.014.362-.362.363-.734,0-1.468,0-2.2,0-.466,0-.467,0-.469.449,0,.374,0,.747,0,1.12,0,.4.01.407.4.408,1.147,0,2.295,0,3.442,0,.2,0,.471-.108.587.119s-.133.383-.253.543c-.709.933-.385.762-1.524.772-1.174.011-2.348.005-3.522,0-.632,0-.749-.116-.75-.748Q-125.1-452.8-125.094-454.575Z" transform="translate(478.391 8027.504)" fill="#16005f"/>
    <path id="Tracé_11041" data-name="Tracé 11041" d="M-183.432-433.632c0-1.186,0-2.373,0-3.559,0-.5.014-.523.5-.524.28,0,.56,0,.84,0,.2,0,.3.081.293.285,0,.107,0,.214,0,.32q0,2.919,0,5.839c0,.518,0,.519.535.52.96,0,1.92,0,2.881,0,.494,0,.553.087.356.543-.42.974-.222.874-1.285.878q-1.7.006-3.4,0c-.577,0-.7-.128-.706-.7q0-1.8,0-3.6Z" transform="translate(507.676 8016.996)" fill="#16005f"/>
    <path id="Tracé_11042" data-name="Tracé 11042" d="M-148.581-433.491q0,1.859,0,3.719c0,.436,0,.437-.449.441-.293,0-.587-.006-.88,0-.2,0-.3-.084-.288-.285,0-.067,0-.133,0-.2q0-3.7,0-7.4c0-.5,0-.5.517-.5.253,0,.507.009.76,0s.352.088.349.35c-.012.906,0,1.813-.005,2.719v1.159Z" transform="translate(490.994 8017)" fill="#16005f"/>
  </g>
</svg>
