<svg id="Groupe_10851" data-name="Groupe 10851" xmlns="http://www.w3.org/2000/svg" width="34.602" height="35.197" viewBox="0 0 34.602 35.197">
  <path id="Tracé_10073" data-name="Tracé 10073" d="M279.932-96.6a17.476,17.476,0,0,1-17.337-17.662A17.478,17.478,0,0,1,279.86-131.8,17.477,17.477,0,0,1,297.2-114.14,17.478,17.478,0,0,1,279.932-96.6Zm-15.766-17.667A15.9,15.9,0,0,0,279.878-98.2a15.9,15.9,0,0,0,15.748-15.833A15.9,15.9,0,0,0,280.012-130.2,15.894,15.894,0,0,0,264.165-114.271Z" transform="translate(-262.595 131.802)" fill="#25cdff"/>
  <path id="Tracé_10074" data-name="Tracé 10074" d="M297.534-94.062c0-1.2.005-2.4-.006-3.6,0-.458.051-1.049-.638-1-1.037.075-1.428-.3-1.346-1.36.076-.98-.233-2.048,1.423-1.922.777.059.53-.764.561-1.243.252-3.869,1.168-4.75,5.044-4.692.739.011,1.87-.475,1.8,1.066-.053,1.093.318,2.366-1.581,2.13-1.254-.155-1.28.791-1.342,1.716-.078,1.144.631,1.077,1.4,1.1.64.02,1.7-.323,1.412.95-.2.866.391,2.409-1.435,2.21-1.244-.136-1.429.494-1.393,1.527.058,1.663.03,3.33.01,4.995-.017,1.371.534,2.838-2.012,2.8-2.4-.038-1.871-1.377-1.891-2.681C297.527-92.73,297.536-93.4,297.534-94.062Z" transform="translate(-282.353 117.488)" fill="#25cdff"/>
</svg>
