<svg id="Groupe_10852" data-name="Groupe 10852" xmlns="http://www.w3.org/2000/svg" width="35.198" height="35.197" viewBox="0 0 35.198 35.197">
  <path id="Tracé_10075" data-name="Tracé 10075" d="M404.266-114.656a17.623,17.623,0,0,1-17.693,17.6,17.628,17.628,0,0,1-17.5-17.593,17.623,17.623,0,0,1,17.693-17.6A17.628,17.628,0,0,1,404.266-114.656Zm-33.6-.036a16.027,16.027,0,0,0,16.009,16.043,16.035,16.035,0,0,0,15.993-15.859,16.031,16.031,0,0,0-15.909-16.143A16.029,16.029,0,0,0,370.666-114.692Z" transform="translate(-369.068 132.249)" fill="#25cdff"/>
  <path id="Tracé_10076" data-name="Tracé 10076" d="M394.536-91.331a7.046,7.046,0,0,0,4.1-1.457c-.878-.882-3.059-.823-2.1-2.992.043-.1-.512-.4-.686-.665-.527-.815-1.865-1.414-.557-2.743.261-.266-.448-1.387-.545-2.135-.08-.617-.307-1.477.415-1.8.541-.241.828.524,1.2.862a9.529,9.529,0,0,0,2.856,1.8c2.26.912,2.387.854,3.143-1.386a3.237,3.237,0,0,1,4.65-1.963,2.733,2.733,0,0,0,2.723.2c.557,2.262-.735,4.1-1.154,6.07A9.268,9.268,0,0,1,394.536-91.331Z" transform="translate(-384.345 115.438)" fill="#25cdff"/>
</svg>
