<svg xmlns="http://www.w3.org/2000/svg" width="102.096" height="22.402" viewBox="0 0 102.096 22.402">
  <g id="Groupe_10969" data-name="Groupe 10969" transform="translate(-839.778 -7563)">
    <path id="Tracé_11084" data-name="Tracé 11084" d="M-238.146-165.869a7.81,7.81,0,0,1-7.654-5.746,7.54,7.54,0,0,1,4.608-8.835,8.054,8.054,0,0,1,9.024,2.153c.187.213.156.309-.045.473q-1.055.862-2.082,1.758c-.185.161-.273.181-.44-.04a4.412,4.412,0,0,0-6.308-.769,4.222,4.222,0,0,0-1.563,3.543,4.235,4.235,0,0,0,3.54,4.228,4.18,4.18,0,0,0,4.324-1.656c.176-.225.261-.213.458-.04.683.6,1.379,1.183,2.081,1.759.191.156.219.258.044.454a7.93,7.93,0,0,1-4.857,2.627C-237.414-165.9-237.814-165.9-238.146-165.869Z" transform="translate(1085.799 7744.891)" fill="#16005f"/>
    <path id="Tracé_11085" data-name="Tracé 11085" d="M-210.1-167.4a6.457,6.457,0,0,1-5.006.555,5.252,5.252,0,0,1-2.714-1.907,6.173,6.173,0,0,1-.126-7,5.327,5.327,0,0,1,3.615-2.25,6.673,6.673,0,0,1,4.2.717.651.651,0,0,0,.045-.371c0-1.415.009-2.831,0-4.246,0-.26.094-.3.319-.3.736.011,1.472.015,2.208,0,.27-.006.348.076.347.345-.009,2.4-.006,4.8-.006,7.2,0,2.507-.006,5.014.008,7.521,0,.317-.087.4-.4.388-.7-.024-1.407-.024-2.11,0-.3.01-.409-.081-.365-.374A1.488,1.488,0,0,0-210.1-167.4Zm.018-4.948c0-.637-.015-1.274.008-1.911a.561.561,0,0,0-.3-.549,4.161,4.161,0,0,0-3.252-.62,2.978,2.978,0,0,0-2.43,2.406,3,3,0,0,0,1.23,3.277,4.053,4.053,0,0,0,4.613-.255.376.376,0,0,0,.134-.34C-210.087-171.005-210.085-171.675-210.085-172.343Z" transform="translate(1073.654 7745.416)" fill="#16005f"/>
    <path id="Tracé_11086" data-name="Tracé 11086" d="M-138.92-163.236a6.051,6.051,0,0,1-5.026-2.5,5.52,5.52,0,0,1,1.049-7.6,6.385,6.385,0,0,1,8.317.318,5.594,5.594,0,0,1-1.576,9.167A6.33,6.33,0,0,1-138.92-163.236Zm3.288-5.737a3.242,3.242,0,0,0-3.284-3.19,3.259,3.259,0,0,0-3.294,3.187,3.269,3.269,0,0,0,3.292,3.193A3.247,3.247,0,0,0-135.632-168.973Z" transform="translate(1040.445 7742.061)" fill="#16005f"/>
    <path id="Tracé_11087" data-name="Tracé 11087" d="M-93.294-173.92c.089.026.142-.042.2-.077a5.9,5.9,0,0,1,5.041-.368,3.47,3.47,0,0,1,2.257,2.786,7.927,7.927,0,0,1,.191,1.735c.006,2.042,0,4.084.007,6.127,0,.231-.042.318-.3.312q-1.119-.028-2.24,0c-.264.007-.32-.08-.319-.327q.013-3,0-6a2.563,2.563,0,0,0-.586-1.774,1.99,1.99,0,0,0-1.278-.639,3.788,3.788,0,0,0-2.775.641.524.524,0,0,0-.246.482c.008,2.42,0,4.84.013,7.261,0,.291-.077.36-.358.353-.747-.021-1.494-.013-2.24,0-.2,0-.26-.05-.26-.253q.008-5.3,0-10.6c0-.213.063-.28.275-.277.736.01,1.472.018,2.208,0,.294-.009.418.071.371.372A.307.307,0,0,0-93.294-173.92Z" transform="translate(1018.516 7742.076)" fill="#16005f"/>
    <path id="Tracé_11088" data-name="Tracé 11088" d="M-109.139-168.658c0,1.728-.006,3.457.006,5.185,0,.258-.074.327-.327.322-.725-.017-1.45-.021-2.175,0-.29.009-.375-.075-.358-.359.021-.37.007-.361-.326-.186a5.992,5.992,0,0,1-5.348.188,3.489,3.489,0,0,1-1.961-2.767,7.689,7.689,0,0,1-.153-1.544c0-2,.006-4-.007-6,0-.3.084-.387.381-.378.7.02,1.407.019,2.11,0,.277-.007.343.088.341.35q-.015,2.739,0,5.477a5.966,5.966,0,0,0,.063.936,2.046,2.046,0,0,0,2.066,1.868,3.878,3.878,0,0,0,2.583-.675.546.546,0,0,0,.265-.507c-.008-2.355,0-4.71-.01-7.065,0-.287.064-.4.373-.385.724.023,1.45.016,2.175,0,.244,0,.312.073.31.314C-109.143-172.137-109.139-170.4-109.139-168.658Z" transform="translate(1029.117 7741.823)" fill="#16005f"/>
    <path id="Tracé_11089" data-name="Tracé 11089" d="M-179.913-163.245a9.65,9.65,0,0,1-4.336-.925c-.2-.094-.254-.168-.14-.379.278-.512.543-1.032.788-1.56.111-.239.22-.282.465-.174a8.184,8.184,0,0,0,3.9.764,2.236,2.236,0,0,0,.874-.222.92.92,0,0,0,.564-.809.82.82,0,0,0-.547-.771,9.869,9.869,0,0,0-2.11-.612,9.91,9.91,0,0,1-2.112-.714,2.8,2.8,0,0,1-1.738-2.658,3.064,3.064,0,0,1,1.715-2.841,5.681,5.681,0,0,1,3.117-.564,11.686,11.686,0,0,1,3.5.776c.21.08.257.158.153.371-.256.523-.493,1.055-.72,1.592-.083.2-.174.218-.366.148a10.121,10.121,0,0,0-3.066-.634,2.755,2.755,0,0,0-1.176.176.852.852,0,0,0-.607.763.779.779,0,0,0,.541.768,10.359,10.359,0,0,0,2.241.626,8.886,8.886,0,0,1,2.021.682,2.813,2.813,0,0,1,1.729,2.566,3.116,3.116,0,0,1-1.564,2.962,5.28,5.28,0,0,1-2.673.67C-179.61-163.242-179.762-163.245-179.913-163.245Z" transform="translate(1058.152 7742.063)" fill="#16005f"/>
    <path id="Tracé_11090" data-name="Tracé 11090" d="M-72.9-172.382c0-1.079-.007-1.965,0-2.851,0-.229-.068-.3-.294-.29-.346.017-.693,0-1.039.007-.168,0-.258-.031-.255-.229.01-.637.009-1.275,0-1.912,0-.179.077-.219.235-.215.335.007.672-.015,1.006.007.265.017.352-.061.348-.337-.015-1.21,0-2.421-.013-3.631,0-.29.083-.367.365-.36.725.019,1.45.017,2.175,0,.266-.005.352.068.349.343-.014,1.221,0,2.442-.012,3.663,0,.261.08.326.33.322.833-.014,1.667,0,2.5-.01.225,0,.3.064.3.294-.014.572-.017,1.146,0,1.718.008.263-.062.358-.34.352-.833-.017-1.667,0-2.5-.009-.2,0-.289.037-.287.264.013,1.458.014,2.917.017,4.376a3.341,3.341,0,0,0,.1.769,1.232,1.232,0,0,0,1.176,1.065,5.84,5.84,0,0,0,1.519-.045c.2-.019.269,0,.264.218-.014.551,0,1.1,0,1.653,0,.119.014.233-.147.28a6.231,6.231,0,0,1-3.639.159,2.918,2.918,0,0,1-2.1-2.651C-72.982-170.476-72.869-171.527-72.9-172.382Z" transform="translate(1008.777 7745.416)" fill="#16005f"/>
    <path id="Tracé_11091" data-name="Tracé 11091" d="M-159.427-163.244a6,6,0,0,1-5.837-4.333,5.654,5.654,0,0,1,3.3-6.6,5.649,5.649,0,0,1,6.521,1.135c.478.495.478.494-.032.96-.4.365-.8.725-1.191,1.1-.132.126-.2.134-.324-.017a3.043,3.043,0,0,0-3.677-.9,3.192,3.192,0,0,0-1.947,3.336,3.267,3.267,0,0,0,2.3,2.635,2.983,2.983,0,0,0,3.267-.986c.185-.231.271-.2.453-.017.419.421.854.828,1.3,1.222.2.178.234.3.042.518A5.329,5.329,0,0,1-159.427-163.244Z" transform="translate(1049.615 7742.066)" fill="#16005f"/>
    <path id="Tracé_11092" data-name="Tracé 11092" d="M-193.179-167.652c0-1.587,0-3.174-.006-4.761,0-.25.058-.331.318-.324.745.018,1.492.013,2.238,0,.213,0,.3.037.3.278q-.012,4.842,0,9.685c0,.209-.056.277-.271.274-.768-.012-1.536-.014-2.3,0-.238,0-.282-.079-.281-.3C-193.175-164.413-193.179-166.033-193.179-167.652Z" transform="translate(1062.074 7741.17)" fill="#16005f"/>
    <path id="Tracé_11093" data-name="Tracé 11093" d="M-190.118-180.915a1.589,1.589,0,0,1-1.607,1.629,1.613,1.613,0,0,1-1.615-1.63,1.658,1.658,0,0,1,1.617-1.681A1.636,1.636,0,0,1-190.118-180.915Z" transform="translate(1062.145 7745.597)" fill="#16005f"/>
    <path id="Tracé_11094" data-name="Tracé 11094" d="M-178.623-145.368c-.176.356-.352.712-.53,1.068-.047.094-.075.2-.217.209-.161.007-.19-.117-.241-.22-.183-.364-.364-.73-.58-1.163a1.876,1.876,0,0,0-.046.619c-.008.27,0,.54,0,.81,0,.115-.039.181-.168.182s-.167-.063-.167-.18c0-.626,0-1.253,0-1.879,0-.1.007-.2.148-.2s.292-.024.379.162c.2.429.423.848.668,1.335.23-.457.431-.863.639-1.267.042-.083.064-.183.171-.223.236-.087.385.014.386.273,0,.572,0,1.145,0,1.717,0,.127.03.267-.181.26s-.174-.15-.175-.274c0-.407,0-.814,0-1.222Z" transform="translate(1056.412 7729.228)" fill="#16005f"/>
    <path id="Tracé_11095" data-name="Tracé 11095" d="M-188.907-144.607q0-.608,0-1.216c0-.14-.027-.291.2-.285s.163.162.163.279c0,.562.006,1.123,0,1.685,0,.1.073.256-.111.289a.333.333,0,0,1-.367-.136c-.3-.421-.617-.834-.927-1.249-.031-.041-.069-.077-.172-.191,0,.484,0,.885,0,1.287,0,.131.048.3-.185.3s-.174-.174-.176-.3c0-.54-.007-1.08,0-1.62,0-.113-.08-.279.1-.332s.3.039.4.187c.322.446.657.883.987,1.323Z" transform="translate(1060.869 7729.215)" fill="#16005f"/>
    <path id="Tracé_11096" data-name="Tracé 11096" d="M-208.677-144.6v-1.05c0-.086,0-.173,0-.259,0-.131.044-.2.188-.2s.161.082.161.191q0,.941,0,1.88c0,.089-.006.176-.129.184a.333.333,0,0,1-.34-.127c-.269-.379-.551-.748-.829-1.121a.888.888,0,0,0-.282-.264q0,.619,0,1.239c0,.138.034.286-.2.279-.214-.007-.172-.148-.173-.271,0-.562,0-1.124,0-1.685,0-.1-.077-.257.1-.3a.346.346,0,0,1,.392.153c.275.387.565.765.851,1.145.056.075.121.143.182.214Z" transform="translate(1069.756 7729.213)" fill="#16005f"/>
    <path id="Tracé_11097" data-name="Tracé 11097" d="M-130.135-143.886a.4.4,0,0,1-.56-.222c-.085-.149-.116-.36-.333-.406-.42-.088-.536,0-.56.435-.007.127-.006.235-.183.234s-.2-.08-.2-.221c0-.6,0-1.208,0-1.812,0-.114,0-.226.161-.223a5.3,5.3,0,0,1,1.1.043.657.657,0,0,1,.553.522.724.724,0,0,1-.218.8c-.225.16-.154.272-.037.43C-130.318-144.183-130.237-144.044-130.135-143.886Zm-1.042-1.886c-.334-.059-.463.077-.414.409a2.182,2.182,0,0,1,0,.323c0,.112.036.187.164.193a1.8,1.8,0,0,0,.643-.054.4.4,0,0,0,.292-.419.388.388,0,0,0-.3-.406A2.386,2.386,0,0,0-131.178-145.772Z" transform="translate(1034.588 7729.213)" fill="#16005f"/>
    <path id="Tracé_11098" data-name="Tracé 11098" d="M-140.848-144.96a1.137,1.137,0,0,1,1.168-1.161,1.169,1.169,0,0,1,1.223,1.153,1.165,1.165,0,0,1-1.2,1.145A1.141,1.141,0,0,1-140.848-144.96Zm1.2-.808a.786.786,0,0,0-.819.78.81.81,0,0,0,.819.822.833.833,0,0,0,.813-.806A.806.806,0,0,0-139.651-145.767Z" transform="translate(1038.574 7729.219)" fill="#16005f"/>
    <path id="Tracé_11099" data-name="Tracé 11099" d="M-99.657-143.88c-.3.129-.457-.035-.557-.275a.535.535,0,0,0-.628-.367c-.172.02-.265.051-.244.241.008.074,0,.151,0,.226.012.149-.043.215-.2.212s-.179-.073-.178-.2q0-.924,0-1.847c0-.121.01-.217.167-.21a6.233,6.233,0,0,1,1.068.041.645.645,0,0,1,.557.477.734.734,0,0,1-.193.834c-.26.176-.154.291-.034.461A1.118,1.118,0,0,1-99.657-143.88Zm-1.422-1.413c-.029.256-.052.485.35.457.51-.035.75-.162.749-.482s-.224-.41-.729-.453C-101.132-145.806-101.1-145.568-101.078-145.292Z" transform="translate(1020.891 7729.211)" fill="#16005f"/>
    <path id="Tracé_11100" data-name="Tracé 11100" d="M-185.928-145.023a1.159,1.159,0,0,1,1.238-1.1,1.169,1.169,0,0,1,1.164,1.182,1.186,1.186,0,0,1-1.264,1.115A1.152,1.152,0,0,1-185.928-145.023Zm1.212.855a.819.819,0,0,0,.8-.811.8.8,0,0,0-.848-.789.786.786,0,0,0-.781.818A.812.812,0,0,0-184.716-144.168Z" transform="translate(1058.816 7729.219)" fill="#16005f"/>
    <path id="Tracé_11101" data-name="Tracé 11101" d="M-193.467-144.986a1.142,1.142,0,0,1-1.2,1.163,1.175,1.175,0,0,1-1.194-1.152,1.175,1.175,0,0,1,1.2-1.147A1.14,1.14,0,0,1-193.467-144.986Zm-1.18.818a.8.8,0,0,0,.8-.8.776.776,0,0,0-.8-.8.81.81,0,0,0-.831.779A.829.829,0,0,0-194.647-144.168Z" transform="translate(1063.275 7729.219)" fill="#16005f"/>
    <path id="Tracé_11102" data-name="Tracé 11102" d="M-203.065-143.846c-.814,0-.814,0-.814-.8,0-.4.008-.8,0-1.2-.006-.2.066-.267.263-.261.367.012.735,0,1.1,0,.117,0,.246-.021.249.165s-.112.178-.237.177c-.248,0-.5.013-.745,0-.28-.019-.242.164-.251.337-.01.194.033.309.264.286a4.906,4.906,0,0,1,.583,0c.109,0,.251-.045.255.15,0,.212-.149.171-.271.175-.195,0-.39.012-.583,0-.279-.017-.243.171-.247.344s-.011.323.244.306c.279-.018.561,0,.842,0,.1,0,.19,0,.193.145s-.067.185-.2.183C-202.633-143.848-202.849-143.846-203.065-143.846Z" transform="translate(1066.879 7729.212)" fill="#16005f"/>
    <path id="Tracé_11103" data-name="Tracé 11103" d="M-168.985-144.978c0-.291.007-.583,0-.875-.006-.174.045-.258.236-.253.39.01.779,0,1.169,0,.123,0,.209.022.208.175s-.095.169-.214.169c-.27,0-.541.01-.811,0s-.217.173-.221.327-.028.31.217.295.476,0,.714,0c.113,0,.186.025.185.159s-.066.169-.181.169c-.238,0-.476.008-.714,0-.3-.008-.207.207-.22.363s-.009.3.226.286c.28-.016.563,0,.844,0,.1,0,.218-.029.224.147s-.108.18-.231.18c-.4,0-.8,0-1.2,0-.166,0-.233-.059-.228-.228C-168.979-144.373-168.985-144.675-168.985-144.978Z" transform="translate(1051.209 7729.211)" fill="#16005f"/>
    <path id="Tracé_11104" data-name="Tracé 11104" d="M-163.842-145.764c-.389,0-.709,0-1.029,0-.123,0-.3.069-.293-.176,0-.224.161-.16.275-.161.432-.006.864,0,1.3,0,.091,0,.209-.043.262.071a.293.293,0,0,1-.079.325q-.459.544-.914,1.091c-.1.124-.2.249-.366.444.412,0,.759-.007,1.105,0,.106,0,.277-.088.288.141s-.166.179-.29.18q-.664.01-1.328,0c-.1,0-.231.053-.284-.083s.029-.224.107-.318q.552-.656,1.1-1.315C-163.956-145.605-163.927-145.65-163.842-145.764Z" transform="translate(1049.516 7729.214)" fill="#16005f"/>
    <path id="Tracé_11105" data-name="Tracé 11105" d="M-158.963-144.978c0-.3,0-.6,0-.906,0-.117.013-.222.166-.218a5.064,5.064,0,0,1,1.065.044.668.668,0,0,1,.561.689.713.713,0,0,1-.518.795,1.836,1.836,0,0,1-.674.056c-.186-.009-.257.063-.237.243.007.064,0,.129,0,.194,0,.122.01.238-.174.237s-.193-.091-.191-.227C-158.961-144.374-158.963-144.676-158.963-144.978Zm.8-.783c-.431-.007-.431-.007-.431.434a1.043,1.043,0,0,1,0,.161c-.04.258.073.357.325.323a3.308,3.308,0,0,0,.446-.055.439.439,0,0,0,.24-.654C-157.729-145.764-157.951-145.759-158.168-145.762Z" transform="translate(1046.709 7729.213)" fill="#16005f"/>
    <path id="Tracé_11106" data-name="Tracé 11106" d="M-121.6-144.96c0-.3,0-.6,0-.9,0-.128.007-.244.181-.237a5.473,5.473,0,0,1,1.032.041.685.685,0,0,1,.58.676.728.728,0,0,1-.535.815,1.745,1.745,0,0,1-.642.051c-.2-.013-.275.068-.252.261a1.751,1.751,0,0,1,0,.194c0,.111,0,.216-.159.22s-.21-.06-.207-.211C-121.591-144.357-121.595-144.658-121.6-144.96Zm.731-.8c-.086.072-.327-.113-.355.138s-.114.549.041.715.47.072.706.014a.433.433,0,0,0,.252-.647C-120.362-145.771-120.6-145.757-120.864-145.762Z" transform="translate(1029.93 7729.211)" fill="#16005f"/>
    <path id="Tracé_11107" data-name="Tracé 11107" d="M-127.437-144.984c0-.3,0-.6,0-.906,0-.148.053-.215.209-.213.4.006.8,0,1.2,0,.127,0,.208.031.2.18s-.1.164-.22.163c-.248,0-.5.017-.745,0s-.3.1-.3.324.045.322.287.3c.225-.019.454,0,.681,0,.1,0,.166.021.169.14s-.036.186-.163.186c-.249,0-.5.007-.746,0-.293-.005-.208.21-.221.366s0,.3.233.282c.28-.016.562,0,.843,0,.117,0,.212,0,.208.165s-.106.162-.218.162c-.4,0-.8,0-1.2,0-.175,0-.223-.078-.219-.236C-127.433-144.379-127.437-144.682-127.437-144.984Z" transform="translate(1032.553 7729.21)" fill="#16005f"/>
    <path id="Tracé_11108" data-name="Tracé 11108" d="M-173.066-144.488a1.454,1.454,0,0,0,.733.3c.193,0,.4-.027.441-.244s-.148-.288-.314-.35c-.192-.072-.391-.126-.579-.207a.51.51,0,0,1-.32-.484.538.538,0,0,1,.3-.531,1.3,1.3,0,0,1,1.186.034c.128.057.1.14.054.236s-.083.172-.214.1a1.082,1.082,0,0,0-.592-.137c-.133.01-.267.04-.3.2a.258.258,0,0,0,.193.3c.191.074.388.132.579.206a.572.572,0,0,1,.42.615.6.6,0,0,1-.494.565,1.343,1.343,0,0,1-.975-.1C-173.2-144.1-173.319-144.243-173.066-144.488Z" transform="translate(1053.104 7729.223)" fill="#16005f"/>
    <path id="Tracé_11109" data-name="Tracé 11109" d="M-149.881-146.127a1.565,1.565,0,0,1,.627.138c.1.044.2.085.113.234-.063.111-.1.2-.256.115a.958.958,0,0,0-.561-.123c-.135.011-.265.045-.3.2s.068.244.2.3c.18.072.367.123.547.2.348.138.508.361.462.655a.654.654,0,0,1-.588.557,1.407,1.407,0,0,1-1.049-.213c-.164-.1-.107-.2-.042-.32.084-.156.154-.037.226.006a1.053,1.053,0,0,0,.733.2c.142-.024.28-.08.3-.251a.287.287,0,0,0-.215-.29c-.129-.053-.264-.09-.4-.134-.471-.154-.657-.373-.606-.711S-150.321-146.123-149.881-146.127Z" transform="translate(1043.041 7729.221)" fill="#16005f"/>
    <path id="Tracé_11110" data-name="Tracé 11110" d="M-106.756-146.128a1.561,1.561,0,0,1,.537.113c.122.047.25.078.177.269s-.172.136-.3.079a.984.984,0,0,0-.6-.086.245.245,0,0,0-.213.175.227.227,0,0,0,.13.271,3.961,3.961,0,0,0,.452.172c.495.166.662.365.614.739-.041.328-.348.555-.8.564a1.475,1.475,0,0,1-.8-.226c-.145-.087-.15-.174-.078-.317.105-.209.188-.036.268.006a1.1,1.1,0,0,0,.678.175c.145-.021.285-.071.313-.236s-.084-.259-.224-.314c-.12-.047-.245-.082-.369-.121-.49-.153-.664-.365-.607-.738C-107.528-145.929-107.212-146.131-106.756-146.128Z" transform="translate(1023.682 7729.221)" fill="#16005f"/>
    <path id="Tracé_11111" data-name="Tracé 11111" d="M-153.356-143.851c-.194.041-.249-.1-.285-.237a.349.349,0,0,0-.434-.279,2.032,2.032,0,0,1-.421,0c-.282-.032-.485.033-.549.348-.042.2-.221.215-.358.153s-.011-.193.023-.273c.248-.586.512-1.165.765-1.749a.3.3,0,0,1,.31-.222c.169,0,.218.094.272.22.261.6.527,1.206.792,1.809C-153.185-143.958-153.1-143.819-153.356-143.851Zm-.98-1.822c-.128.292-.232.527-.332.763a1.615,1.615,0,0,0-.053.194c.262,0,.587.094.728-.027s-.125-.387-.185-.6A2.527,2.527,0,0,0-154.336-145.672Z" transform="translate(1045.141 7729.214)" fill="#16005f"/>
    <path id="Tracé_11112" data-name="Tracé 11112" d="M-112.119-143.886c-.264.091-.433.035-.495-.22a.325.325,0,0,0-.408-.262,2.061,2.061,0,0,1-.42,0c-.29-.031-.5.033-.57.36-.038.187-.2.2-.334.147-.192-.075-.026-.2.009-.282.247-.585.51-1.163.761-1.745a.3.3,0,0,1,.307-.223c.167,0,.221.093.275.219C-112.7-145.224-112.412-144.557-112.119-143.886Zm-1.169-1.8c-.068.146-.111.23-.148.317-.317.745-.317.745.554.644Z" transform="translate(1026.715 7729.214)" fill="#16005f"/>
    <path id="Tracé_11113" data-name="Tracé 11113" d="M-198.891-143.816a1.173,1.173,0,0,1-1.161-.81,1.129,1.129,0,0,1,.449-1.282,1.28,1.28,0,0,1,1.432.045c.084.068.12.118.037.2-.067.069-.1.2-.246.081a.779.779,0,0,0-.57-.192.776.776,0,0,0-.719.517.748.748,0,0,0,.18.837.761.761,0,0,0,.863.19.912.912,0,0,0,.255-.136c.126-.1.167.015.232.072.094.084.045.147-.034.207A1.345,1.345,0,0,1-198.891-143.816Z" transform="translate(1065.182 7729.211)" fill="#16005f"/>
    <path id="Tracé_11114" data-name="Tracé 11114" d="M-144.165-144.355l.557-1.442a1.338,1.338,0,0,1,.1-.237c.081-.127.223-.1.323-.061.13.046.02.151,0,.214-.241.612-.494,1.219-.736,1.831a.272.272,0,0,1-.288.2.269.269,0,0,1-.282-.208c-.23-.593-.471-1.182-.7-1.775-.031-.082-.166-.207-.012-.264a.249.249,0,0,1,.367.148c.153.437.326.867.5,1.3C-144.305-144.555-144.3-144.438-144.165-144.355Z" transform="translate(1040.563 7729.221)" fill="#16005f"/>
    <path id="Tracé_11115" data-name="Tracé 11115" d="M-135.378-144.8c0-.227-.014-.455,0-.68s-.078-.309-.3-.283a1.784,1.784,0,0,1-.292,0c-.094,0-.126-.067-.127-.154s.017-.18.133-.181c.509,0,1.017,0,1.526,0,.114,0,.144.07.144.17s-.031.169-.145.169a.212.212,0,0,0-.033,0c-.533.067-.533.067-.533.6,0,.368,0,.734,0,1.1,0,.145-.043.22-.2.214s-.178-.085-.176-.21C-135.375-144.3-135.378-144.547-135.378-144.8Z" transform="translate(1036.438 7729.207)" fill="#16005f"/>
    <path id="Tracé_11116" data-name="Tracé 11116" d="M-117.39-144.969c0-.3,0-.6,0-.9,0-.127,0-.229.181-.234.194,0,.2.1.2.245,0,.484,0,.969,0,1.453,0,.179.048.253.235.24s.388,0,.582,0c.1,0,.161.023.161.143s-.028.185-.159.183q-.517,0-1.035,0c-.159,0-.16-.105-.16-.219C-117.389-144.367-117.39-144.669-117.39-144.969Z" transform="translate(1028.041 7729.212)" fill="#16005f"/>
    <path id="Tracé_11117" data-name="Tracé 11117" d="M-103.1-144.96c0,.3-.006.6,0,.906,0,.149-.042.214-.2.211s-.173-.083-.172-.207c0-.615,0-1.23,0-1.844,0-.15.043-.214.2-.211s.174.083.172.207C-103.1-145.586-103.1-145.273-103.1-144.96Z" transform="translate(1021.791 7729.211)" fill="#16005f"/>
    <path id="Tracé_11118" data-name="Tracé 11118" d="M-174.9-144.961c0-.313,0-.626,0-.94,0-.126.023-.2.175-.2s.208.058.206.21q-.007.924,0,1.848c0,.157-.061.206-.211.2s-.171-.089-.17-.21C-174.9-144.355-174.9-144.658-174.9-144.961Z" transform="translate(1053.867 7729.211)" fill="#16005f"/>
    <path id="Tracé_11119" data-name="Tracé 11119" d="M-109.01-144.97c0,.3,0,.6,0,.906,0,.142-.034.223-.2.221s-.169-.093-.168-.211q0-.922,0-1.844c0-.123.02-.206.174-.206.169,0,.193.092.192.228C-109.013-145.574-109.01-145.272-109.01-144.97Z" transform="translate(1024.441 7729.211)" fill="#16005f"/>
    <path id="Tracé_11120" data-name="Tracé 11120" d="M-202.038-147.188c-.177.153-.316.356-.6.282C-202.484-147.366-202.391-147.412-202.038-147.188Z" transform="translate(1066.318 7729.756)" fill="#16005f"/>
    <path id="Tracé_11121" data-name="Tracé 11121" d="M-205.541-145.608c-.034-.111-.053-.17-.071-.229a.182.182,0,0,1,.085-.218.166.166,0,0,1,.208.009.189.189,0,0,1,.058.254,1.786,1.786,0,0,1-.11.192c-.046.069-.088.165-.193.129C-205.7-145.517-205.523-145.6-205.541-145.608Z" transform="translate(1067.658 7729.203)" fill="#16005f"/>
    <path id="Tracé_11122" data-name="Tracé 11122" d="M-96.834-142.481c-.009.121-.065.209-.193.206a.191.191,0,0,1-.193-.208.188.188,0,0,1,.2-.2C-96.9-142.691-96.84-142.6-96.834-142.481Z" transform="translate(1018.984 7727.678)" fill="#16005f"/>
  </g>
</svg>
