<svg xmlns="http://www.w3.org/2000/svg" width="95.313" height="25.648" viewBox="0 0 95.313 25.648">
  <g id="Groupe_10972" data-name="Groupe 10972" transform="translate(-1257 -7561)">
    <path id="Shape" d="M-211.738,104.547a10.26,10.26,0,0,0,7.28,3.019l-10.289-10.45a10.284,10.284,0,0,0,3.009,7.431" transform="translate(1491.689 7463.884)" fill="#16005f"/>
    <path id="Shape-2" data-name="Shape" d="M-255.612,115.81l.049,4.9h3.79c1.4,0,2.161-.838,2.161-2.363,0-1.625-.815-2.538-2.213-2.538Zm4.017-2.973a5.086,5.086,0,0,1,5.363,5.384,5.187,5.187,0,0,1-5.438,5.436h-3.892v7.493h-3.3V112.837Z" transform="translate(1515.865 7455.27)" fill="#16005f"/>
    <path id="Shape-3" data-name="Shape" d="M-229.443,130.061a4.767,4.767,0,0,1,4.854-4.749c.2,0,.381,0,.738.025v2.795h-.357a2.159,2.159,0,0,0-2.288,2.285v7.569h-2.947Z" transform="translate(1499.742 7448.434)" fill="#16005f"/>
    <path id="Shape-4" data-name="Shape" d="M-212.03,131.551a3.6,3.6,0,0,0,3.456,3.634,3.591,3.591,0,0,0,3.431-3.685,3.583,3.583,0,0,0-3.431-3.656,3.636,3.636,0,0,0-3.456,3.707m3.456-6.576a6.458,6.458,0,0,1,6.46,6.5,6.483,6.483,0,0,1-6.51,6.555,6.45,6.45,0,0,1-6.431-6.555,6.446,6.446,0,0,1,6.481-6.5" transform="translate(1491.857 7448.618)" fill="#16005f"/>
    <path id="Shape-5" data-name="Shape" d="M-177.523,131.15A4.588,4.588,0,0,1-182.1,126.5V112.837h3.306V126.12a2.067,2.067,0,0,0,2.135,2.184h2.492v2.846h-3.358Z" transform="translate(1473.799 7455.27)" fill="#16005f"/>
    <path id="Shape-6" data-name="Shape" d="M-159.839,131.551a3.6,3.6,0,0,0,3.458,3.634,3.593,3.593,0,0,0,3.43-3.685,3.584,3.584,0,0,0-3.43-3.656,3.636,3.636,0,0,0-3.458,3.707m3.458-6.576a6.456,6.456,0,0,1,6.455,6.5,6.481,6.481,0,0,1-6.507,6.555,6.451,6.451,0,0,1-6.431-6.555,6.446,6.446,0,0,1,6.483-6.5" transform="translate(1463.26 7448.618)" fill="#16005f"/>
    <path id="Shape-7" data-name="Shape" d="M-130.552,118.4h2.975v12.47h-2.975Zm1.475-6.07a1.957,1.957,0,0,1,1.958,1.955,1.953,1.953,0,0,1-1.958,1.931,1.953,1.953,0,0,1-1.958-1.931A1.957,1.957,0,0,1-129.077,112.334Z" transform="translate(1445.818 7455.545)" fill="#16005f"/>
    <path id="Shape-8" data-name="Shape" d="M-117.05,134.718c.585.456.914.659,1.271.659a1.027,1.027,0,0,0,.966-1.013,1.6,1.6,0,0,0-.457-.99l-2.11-2.516a3.609,3.609,0,0,1-.941-2.336c0-1.931,1.677-3.378,3.94-3.378a4.28,4.28,0,0,1,3.152,1.193l-1.6,2.032a2.277,2.277,0,0,0-1.271-.536.963.963,0,0,0-.914.992,1.8,1.8,0,0,0,.508.939l2.008,2.414a4.084,4.084,0,0,1,.914,2.515,3.575,3.575,0,0,1-3.811,3.4,5.415,5.415,0,0,1-3.433-1.144Z" transform="translate(1439.129 7448.525)" fill="#16005f"/>
    <path id="Shape-9" data-name="Shape" d="M-97.991,118.4h2.974v12.47h-2.974Zm1.474-6.07a1.958,1.958,0,0,1,1.959,1.955,1.953,1.953,0,0,1-1.959,1.931,1.954,1.954,0,0,1-1.958-1.931A1.958,1.958,0,0,1-96.517,112.334Z" transform="translate(1427.977 7455.545)" fill="#16005f"/>
    <path id="Shape-10" data-name="Shape" d="M-85.539,130.061a4.768,4.768,0,0,1,4.857-4.749c.2,0,.38,0,.735.025v2.795H-80.3a2.159,2.159,0,0,0-2.287,2.285v7.569h-2.949v-7.925Z" transform="translate(1420.887 7448.434)" fill="#16005f"/>
    <path id="Shape-11" data-name="Shape" d="M-69.893,134.718c.585.456.916.659,1.271.659a1.027,1.027,0,0,0,.966-1.013,1.593,1.593,0,0,0-.458-.99l-2.11-2.516a3.608,3.608,0,0,1-.942-2.336c0-1.931,1.679-3.378,3.942-3.378a4.279,4.279,0,0,1,3.151,1.193l-1.6,2.032a2.273,2.273,0,0,0-1.272-.536.964.964,0,0,0-.914.992,1.8,1.8,0,0,0,.509.939l2.009,2.414a4.081,4.081,0,0,1,.914,2.515,3.576,3.576,0,0,1-3.813,3.4,5.414,5.414,0,0,1-3.431-1.144Z" transform="translate(1413.289 7448.525)" fill="#16005f"/>
    <path id="Shape-12" data-name="Shape" d="M-52.105,120.878h.149c.168,0,.31-.061.31-.219,0-.111-.081-.223-.31-.223a.82.82,0,0,0-.149.01Zm0,.707h-.2v-1.277a2.523,2.523,0,0,1,.362-.03.686.686,0,0,1,.4.1.311.311,0,0,1,.118.264.32.32,0,0,1-.251.312v.01c.113.019.191.122.215.309a.992.992,0,0,0,.082.315H-51.6a.938.938,0,0,1-.086-.324.239.239,0,0,0-.276-.224h-.142v.548Zm.215-1.632a.943.943,0,0,0-.917.967.943.943,0,0,0,.921.972.935.935,0,0,0,.918-.967.941.941,0,0,0-.918-.972Zm0-.178a1.131,1.131,0,0,1,1.127,1.145,1.13,1.13,0,0,1-1.131,1.15,1.138,1.138,0,0,1-1.136-1.15,1.139,1.139,0,0,1,1.136-1.145Z" transform="translate(1403.072 7451.467)" fill="#16005f"/>
  </g>
</svg>
