<svg xmlns="http://www.w3.org/2000/svg" width="103.193" height="35.255" viewBox="0 0 103.193 35.255">
  <g id="Groupe_10968" data-name="Groupe 10968" transform="translate(-701.807 -7556)">
    <path id="Tracé_11132" data-name="Tracé 11132" d="M383.284-460.482v.5q0,4.435,0,8.869a1.346,1.346,0,0,1-1.331,1.421,1.323,1.323,0,0,1-1.32-1.417q0-7.353-.006-14.706c0-.122.081-.312-.067-.354-.108-.031-.159.163-.224.264a49.05,49.05,0,0,1-3.2,4.7,8.994,8.994,0,0,1-5.381,3.288,9.288,9.288,0,0,1-9.707-3.977,8.833,8.833,0,0,1-1.506-4.032c-.012-.092.042-.248-.088-.267-.107-.016-.149.132-.2.216-.774,1.225-1.536,2.458-2.371,3.644a11.193,11.193,0,0,1-3.718,3.5,9.423,9.423,0,0,1-4.967,1.088,9.358,9.358,0,0,1-8.578-6.989,9.229,9.229,0,0,1,5.62-11.053,9,9,0,0,1,9.908,1.9c.068.063.129.188.222.156.121-.041.069-.182.069-.28q0-4.521,0-9.041a1.444,1.444,0,0,1,.313-1.012,1.29,1.29,0,0,1,1.4-.4,1.273,1.273,0,0,1,.915,1.131,3.7,3.7,0,0,1,.01.457q0,6.509,0,13.018c0,.048,0,.1,0,.143s0,.129.068.137c.033,0,.081-.043.109-.078.14-.181.273-.367.412-.549a19.125,19.125,0,0,1,4.467-4.433,9.953,9.953,0,0,1,6.007-1.813,9.174,9.174,0,0,1,7.285,3.828,8.654,8.654,0,0,1,1.522,3.178c.018.071.006.172.1.185s.112-.091.154-.15a23.753,23.753,0,0,1,3.381-3.909,11.66,11.66,0,0,1,4.807-2.788,9.336,9.336,0,0,1,11.232,5.3,9.371,9.371,0,0,1-2.209,10.561,9.433,9.433,0,0,1-12.853-.05A.638.638,0,0,0,383.284-460.482Zm-26.848-6.61a6.769,6.769,0,0,0-6.786-6.737,6.8,6.8,0,0,0-6.677,6.935,6.755,6.755,0,0,0,6.875,6.53A6.741,6.741,0,0,0,356.435-467.091Zm33.6-6.719a6.758,6.758,0,0,0-6.771,6.858,6.829,6.829,0,0,0,6.822,6.6,6.8,6.8,0,0,0,6.652-6.9A6.737,6.737,0,0,0,390.033-473.81Zm-20.161,0a6.666,6.666,0,0,0-6.739,6.639,6.69,6.69,0,0,0,6.7,6.8,6.817,6.817,0,0,0,6.759-6.654A6.754,6.754,0,0,0,369.871-473.806Z" transform="translate(381.664 8040.896)" fill="#16005f"/>
    <path id="Tracé_11133" data-name="Tracé 11133" d="M297.435-458.3a9.369,9.369,0,0,1,7.212-8.815,9.17,9.17,0,0,1,6.5.779,9.11,9.11,0,0,1,5.036,7.288c.152,1.364.232,2.735.458,4.09a7.989,7.989,0,0,0,1.5,3.4,4.99,4.99,0,0,1,.317.475.717.717,0,0,1-.013.879.874.874,0,0,1-.978.3,3.05,3.05,0,0,1-.689-.346,11.472,11.472,0,0,1-2.287-1.753c-.155-.154-.248-.178-.4.013a9.179,9.179,0,0,1-6.541,3.391,9.459,9.459,0,0,1-9.151-5.179A10.033,10.033,0,0,1,297.435-458.3Zm9.459-6.418a6.76,6.76,0,0,0-6.811,6.686,6.813,6.813,0,0,0,6.7,6.818,6.825,6.825,0,0,0,6.827-6.747A6.758,6.758,0,0,0,306.895-464.715Z" transform="translate(404.373 8031.811)" fill="#16005f"/>
    <path id="Tracé_11134" data-name="Tracé 11134" d="M468.377-468.664c0,1.545-.007,3.09,0,4.634a4.231,4.231,0,0,0,.429,1.852,3.241,3.241,0,0,0,2.623,1.75,7.505,7.505,0,0,0,.97.069,1.293,1.293,0,0,1,1.324,1.32,1.285,1.285,0,0,1-1.333,1.307,7.888,7.888,0,0,1-3.75-.758,5.247,5.247,0,0,1-2.766-4.042,11.323,11.323,0,0,1-.162-2.05q.006-4.42,0-8.84c0-.4,0-.4-.389-.4-.334,0-.668,0-1,0a1.28,1.28,0,0,1-1.277-1.3,1.283,1.283,0,0,1,1.262-1.32c.362-.011.726-.016,1.087,0,.254.01.324-.087.323-.334-.008-2.1,0-4.2-.006-6.294a1.326,1.326,0,0,1,.719-1.272,1.312,1.312,0,0,1,1.93,1.2c.008,2.088,0,4.177,0,6.265,0,.431,0,.431.442.432.764,0,1.527-.007,2.291,0a1.3,1.3,0,0,1,1.23.864,1.31,1.31,0,0,1-.393,1.453,1.29,1.29,0,0,1-.9.311c-.773,0-1.546.008-2.319-.006-.27-.005-.361.073-.359.355.013,1.6.006,3.2.006,4.806Z" transform="translate(316.688 8040.883)" fill="#16005f"/>
    <path id="Tracé_11135" data-name="Tracé 11135" d="M496.914-480.639a7.725,7.725,0,0,1-1.259,4.037,12.185,12.185,0,0,1-2.985,3.277,4.344,4.344,0,0,1-1.442.8.506.506,0,0,1-.559-.093.5.5,0,0,1-.007-.591,2.267,2.267,0,0,1,.4-.552,4.182,4.182,0,0,0,1.141-2.648,2.867,2.867,0,0,0-.3-1.381,14.622,14.622,0,0,0-1.238-1.916,4.875,4.875,0,0,1-.865-2.151,2.98,2.98,0,0,1,1.415-2.868,3.572,3.572,0,0,1,5.247,1.724A5.868,5.868,0,0,1,496.914-480.639Z" transform="translate(302.533 8041.307)" fill="#16005f"/>
    <path id="Tracé_11136" data-name="Tracé 11136" d="M509.134-479.4a2.007,2.007,0,0,1,1.32.5.793.793,0,0,1-.288,1.315,6.088,6.088,0,0,1-1.614.336,3.729,3.729,0,0,0-1.939.682,5.487,5.487,0,0,0-.818.985c-.081.113-.156.272-.332.2s-.144-.249-.106-.4a4.715,4.715,0,0,1,2.839-3.448,1.538,1.538,0,0,1,.328-.1C508.72-479.359,508.92-479.376,509.134-479.4Z" transform="translate(294.305 8038.181)" fill="#16005f"/>
    <path id="Tracé_11137" data-name="Tracé 11137" d="M335.657-414.652c0-.314,0-.629,0-.943a.287.287,0,0,1,.213-.327.312.312,0,0,1,.367.152c.183.29.368.579.542.874.106.181.192.187.3,0,.159-.271.324-.538.49-.805.1-.153.214-.279.418-.222s.222.236.222.414q0,.872,0,1.743c0,.192-.014.387-.269.384s-.262-.2-.264-.392c0-.248,0-.5-.006-.743,0-.088.051-.223-.064-.249-.1-.023-.135.113-.187.187-.083.116-.155.24-.238.357-.188.265-.334.265-.526,0-.089-.124-.16-.26-.251-.382-.052-.07-.073-.213-.189-.175-.091.029-.045.152-.046.232-.006.286,0,.572,0,.857,0,.17-.048.31-.25.311s-.256-.13-.256-.3v-.972Z" transform="translate(384.137 8004.578)" fill="#16005f"/>
    <path id="Tracé_11138" data-name="Tracé 11138" d="M312.923-414.617c0-.305,0-.61,0-.916,0-.261.123-.39.385-.381a7.486,7.486,0,0,1,1.057.033.742.742,0,0,1,.656.591.766.766,0,0,1-.285.866c-.181.128-.163.221-.031.357a3.389,3.389,0,0,1,.215.267c.1.127.141.267,0,.38a.275.275,0,0,1-.407-.056c-.157-.179-.3-.371-.447-.559a.369.369,0,0,0-.254-.166c-.288-.036-.358.02-.36.312,0,.029,0,.057,0,.086,0,.2.028.442-.271.436s-.259-.251-.263-.448C312.92-414.083,312.923-414.35,312.923-414.617Zm.93-.817c-.1.05-.283-.087-.376.1a.439.439,0,0,0,.405.677c.446,0,.634-.121.626-.4S314.329-415.434,313.853-415.434Z" transform="translate(396.174 8004.568)" fill="#16005f"/>
    <path id="Tracé_11139" data-name="Tracé 11139" d="M355.778-414.667c0-.286,0-.572,0-.858,0-.253.107-.4.377-.388a4.814,4.814,0,0,1,1,.048,1.25,1.25,0,0,1,.985,1.294,1.268,1.268,0,0,1-1.176,1.194c-.285.022-.572.007-.858.008a.271.271,0,0,1-.3-.3c-.005-.333,0-.666,0-1Zm.535.022v.229c0,.593.119.686.7.545a.744.744,0,0,0,.561-.681.785.785,0,0,0-.427-.806.953.953,0,0,0-.751-.042c-.194.088-.054.365-.083.555A1.285,1.285,0,0,0,356.313-414.645Z" transform="translate(373.482 8004.566)" fill="#16005f"/>
    <path id="Tracé_11140" data-name="Tracé 11140" d="M400.549-414.65c0,.3,0,.61,0,.915,0,.144,0,.3-.178.351a.345.345,0,0,1-.4-.156c-.3-.4-.612-.8-.92-1.2-.045-.058-.085-.157-.167-.135-.108.03-.066.144-.067.224,0,.314,0,.629,0,.943,0,.176-.036.335-.255.341s-.259-.161-.26-.333c0-.619,0-1.239,0-1.858,0-.147.012-.3.185-.347a.353.353,0,0,1,.407.134c.3.384.591.771.892,1.152.054.068.084.212.2.166.1-.04.049-.171.051-.261.006-.276,0-.552,0-.829,0-.182.015-.37.248-.375.253,0,.266.2.266.386q0,.443,0,.887Z" transform="translate(350.969 8004.574)" fill="#16005f"/>
    <path id="Tracé_11141" data-name="Tracé 11141" d="M383.473-415.912a3.42,3.42,0,0,1,.626.035.73.73,0,0,1,.616.563.793.793,0,0,1-.257.879c-.193.143-.191.249-.027.4a1.712,1.712,0,0,1,.194.246c.094.126.148.264,0,.376a.28.28,0,0,1-.407-.062c-.143-.166-.273-.342-.412-.512a.732.732,0,0,0-.158-.162.3.3,0,0,0-.494.264c0,.076,0,.152,0,.228-.009.173-.076.3-.273.294s-.243-.13-.245-.29c0-.286,0-.571,0-.857,0-.3,0-.609,0-.914,0-.433.055-.485.5-.488Zm.122.48c-.45,0-.45,0-.441.458,0,.057,0,.114.008.171a.139.139,0,0,0,.148.141,3.778,3.778,0,0,0,.6-.018.337.337,0,0,0,.288-.4C384.18-415.343,384.039-415.428,383.595-415.433Z" transform="translate(359.268 8004.566)" fill="#16005f"/>
    <path id="Tracé_11142" data-name="Tracé 11142" d="M363.913-414.63c0-.3,0-.61,0-.915a.317.317,0,0,1,.367-.365c.41,0,.821,0,1.23,0,.167,0,.32.035.32.239,0,.188-.155.227-.3.232-.286.008-.572.013-.858,0-.183-.007-.234.074-.222.239.011.149-.028.322.213.317s.458,0,.686,0c.152,0,.3.034.315.218.013.207-.148.244-.311.248-.219.006-.44.015-.658,0-.187-.011-.261.052-.249.243.011.173-.025.358.243.353s.553,0,.83,0c.158,0,.325.01.326.227s-.164.226-.324.226c-.42,0-.839,0-1.259,0a.3.3,0,0,1-.348-.35C363.915-414.02,363.912-414.325,363.913-414.63Z" transform="translate(369.176 8004.565)" fill="#16005f"/>
    <path id="Tracé_11143" data-name="Tracé 11143" d="M414.269-414.638c0-.305,0-.61,0-.915,0-.233.1-.359.338-.357.42,0,.839,0,1.259,0,.151,0,.3.025.312.216s-.134.236-.288.241c-.3.01-.591.02-.886.012-.187,0-.228.085-.22.245s-.022.318.218.312.477,0,.715,0c.153,0,.3.059.3.236s-.154.224-.306.229c-.239.007-.477.011-.715,0-.171-.007-.222.076-.21.225s-.063.354.2.363c.3.009.592.007.887.008.165,0,.326.025.324.231s-.177.219-.333.22c-.42,0-.839,0-1.259,0-.223,0-.336-.1-.335-.329C414.271-414.009,414.27-414.323,414.269-414.638Z" transform="translate(342.516 8004.564)" fill="#16005f"/>
    <path id="Tracé_11144" data-name="Tracé 11144" d="M329.843-414.941c0,.191,0,.382,0,.572a1,1,0,0,1-1.081,1.042,1,1,0,0,1-1.119-.968c-.03-.437-.011-.877-.009-1.315,0-.171.071-.305.261-.312s.263.138.267.3c.009.381,0,.762.009,1.143.008.432.219.669.579.663s.568-.233.575-.67c.006-.362,0-.724,0-1.087,0-.184.041-.363.275-.353.215.009.242.179.241.353C329.842-415.361,329.843-415.151,329.843-414.941Z" transform="translate(388.389 8004.572)" fill="#16005f"/>
    <path id="Tracé_11145" data-name="Tracé 11145" d="M298.076-414.631c0-.3,0-.608,0-.913a.326.326,0,0,1,.368-.37c.257,0,.514-.008.771,0a.869.869,0,0,1,.885.831.863.863,0,0,1-.768.911c-.028.005-.056.008-.085.012-.187.028-.405-.061-.558.056s-.04.341-.08.513a.245.245,0,0,1-.252.224.249.249,0,0,1-.27-.269c-.009-.333,0-.665,0-1Zm.922-.8c-.375,0-.376,0-.378.381,0,.066,0,.134,0,.2-.014.184.067.265.251.249a3.544,3.544,0,0,0,.4-.031.349.349,0,0,0,.276-.3.394.394,0,0,0-.114-.392A.578.578,0,0,0,299-415.435Z" transform="translate(404.033 8004.568)" fill="#16005f"/>
    <path id="Tracé_11146" data-name="Tracé 11146" d="M392.439-413.646a.229.229,0,0,1-.281.241.268.268,0,0,1-.2-.142c-.091-.14-.079-.391-.265-.412a7.921,7.921,0,0,0-1.025-.006c-.076,0-.106.07-.134.133-.039.087-.081.172-.119.259a.243.243,0,0,1-.349.146c-.149-.066-.155-.2-.093-.34q.349-.8.7-1.593a4.468,4.468,0,0,1,.192-.414.35.35,0,0,1,.639-.016c.322.679.614,1.371.917,2.058A.425.425,0,0,1,392.439-413.646Zm-1.269-.788c.386,0,.4-.018.252-.35-.072-.158-.074-.439-.244-.437-.149,0-.175.281-.245.441C390.792-414.457,390.813-414.433,391.17-414.434Z" transform="translate(355.398 8004.606)" fill="#16005f"/>
    <path id="Tracé_11147" data-name="Tracé 11147" d="M305.814-413.969a1.772,1.772,0,0,1-.229,0,.37.37,0,0,0-.469.3.664.664,0,0,1-.046.1.249.249,0,0,1-.349.153c-.161-.066-.152-.212-.1-.342.123-.3.259-.594.39-.89.15-.34.3-.679.45-1.02.072-.168.168-.3.373-.3a.376.376,0,0,1,.363.272c.282.636.562,1.273.847,1.908.067.15.073.287-.084.37s-.268.012-.356-.132C306.346-413.972,306.344-413.97,305.814-413.969Zm.047-1.3a.76.76,0,0,0-.226.375c-.209.447-.156.517.341.473l.057,0c.106-.011.162-.066.12-.171C306.062-414.82,305.963-415.039,305.861-415.272Z" transform="translate(400.586 8004.596)" fill="#16005f"/>
    <path id="Tracé_11148" data-name="Tracé 11148" d="M345.137-415.956a1.266,1.266,0,0,1,.662.145c.141.075.282.169.2.352s-.244.177-.41.093a.972.972,0,0,0-.546-.14c-.131.013-.249.049-.281.2a.246.246,0,0,0,.2.3c.216.073.438.131.653.208a.655.655,0,0,1,.5.711.706.706,0,0,1-.574.691,1.556,1.556,0,0,1-1.183-.183c-.154-.088-.273-.211-.165-.393s.253-.124.4-.034a1.084,1.084,0,0,0,.677.187c.151-.013.292-.062.321-.231s-.105-.251-.247-.3c-.19-.062-.385-.109-.574-.176a.678.678,0,0,1-.533-.8.751.751,0,0,1,.738-.634C345.023-415.96,345.08-415.956,345.137-415.956Z" transform="translate(379.641 8004.59)" fill="#16005f"/>
    <path id="Tracé_11149" data-name="Tracé 11149" d="M407.608-415.983a1.238,1.238,0,0,1,.683.168c.146.088.285.2.188.389-.1.205-.266.153-.438.061a.784.784,0,0,0-1.023.088.91.91,0,0,0-.1,1.063.787.787,0,0,0,1.126.235c.09-.051.169-.135.284-.115a.213.213,0,0,1,.187.155.289.289,0,0,1-.137.319,1.338,1.338,0,0,1-1.331.165,1.2,1.2,0,0,1-.789-.975A1.3,1.3,0,0,1,407.608-415.983Z" transform="translate(346.77 8004.604)" fill="#16005f"/>
    <path id="Tracé_11150" data-name="Tracé 11150" d="M375.474-414.651q0-.443,0-.886c0-.255.117-.386.384-.381.41.008.82,0,1.23,0,.164,0,.332.028.338.223.007.213-.167.25-.342.251-.276,0-.553.011-.829,0-.225-.008-.24.123-.238.293s0,.308.232.3.476,0,.714,0c.162,0,.3.055.294.235s-.135.243-.294.247c-.229.006-.458.013-.686,0-.2-.01-.276.074-.261.268.009.123,0,.247,0,.371,0,.187-.053.355-.28.352s-.257-.168-.259-.341c0-.314,0-.628,0-.943Z" transform="translate(363.055 8004.568)" fill="#16005f"/>
    <path id="Tracé_11151" data-name="Tracé 11151" d="M320.592-414.638c0-.3,0-.608,0-.913a.309.309,0,0,1,.344-.358q.657,0,1.314,0c.15,0,.267.06.271.228s-.112.235-.26.24c-.295.009-.591.016-.885.007-.213-.006-.254.1-.251.283s.016.322.254.311.457,0,.686,0c.156,0,.3.041.3.227s-.138.254-.31.256c-.133,0-.266,0-.4,0-.594,0-.52-.054-.528.511,0,.067,0,.134,0,.2-.011.164-.09.275-.263.277a.248.248,0,0,1-.263-.276c-.008-.333,0-.666,0-1Z" transform="translate(392.111 8004.564)" fill="#16005f"/>
  </g>
</svg>
