<svg xmlns="http://www.w3.org/2000/svg" width="110.005" height="29.485" viewBox="0 0 110.005 29.485">
  <g id="Groupe_10974" data-name="Groupe 10974" transform="translate(-1526 -7559)">
    <path id="Tracé_11043" data-name="Tracé 11043" d="M637.508-156.124q0-11.785,0-23.571c0-.687-.074-.609.626-.614.411,0,.822.007,1.234,0,.219,0,.3.088.3.3-.006.41,0,.821,0,1.231a.573.573,0,0,0,.057.373c.226-.2.436-.415.668-.6a7.18,7.18,0,0,1,4.774-1.611,7.211,7.211,0,0,1,6.686,4.244,8.555,8.555,0,0,1,.837,3.348,8.743,8.743,0,0,1-.562,3.868,7.052,7.052,0,0,1-6.276,4.646,7.76,7.76,0,0,1-3.995-.647,6.458,6.458,0,0,1-1.88-1.274c-.075-.073-.131-.175-.27-.2a.842.842,0,0,0-.039.413c0,2.849-.006,5.7.005,8.545a.592.592,0,0,1-.38.646c-.452.2-.881.452-1.318.684a.844.844,0,0,0-.327.219ZM645.07-178.6a4.887,4.887,0,0,0-4.489,2.506,7.209,7.209,0,0,0-.787,5.653,5.078,5.078,0,0,0,1.529,2.539,5.325,5.325,0,0,0,3.569,1.394,5.1,5.1,0,0,0,4.986-2.925A6.569,6.569,0,0,0,649.59-176,4.962,4.962,0,0,0,645.07-178.6Z" transform="translate(918.744 7744.609)" fill="#16005f"/>
    <path id="Tracé_11044" data-name="Tracé 11044" d="M580.514-180.076a.914.914,0,0,0,.155-.36,2.42,2.42,0,0,1,2.54-1.52,2.449,2.449,0,0,1,2.1,1.916,2.452,2.452,0,0,1-1.739,2.824,2.434,2.434,0,0,1-2.936-1.548c-.036-.1-.033-.217-.119-.3Z" transform="translate(945.486 7745.242)" fill="#16005f"/>
    <path id="Tracé_11045" data-name="Tracé 11045" d="M779.511-137.273a2.007,2.007,0,0,1-.931-.589,1.862,1.862,0,0,1-.048-1.982,1.492,1.492,0,0,1,1.944-.4c.093.052.183.11.262.159.094-.036.081-.1.093-.159.028-.13.127-.126.225-.125.122,0,.173.072.174.185q0,.416,0,.832c0,.531.006,1.062,0,1.592,0,.139.085.329-.14.4-.244.073-.253-.142-.32-.308a5.848,5.848,0,0,1-.751.4Zm1.309-1.6a1.384,1.384,0,0,0,0-.252,1.011,1.011,0,0,0-.718-.87,1.033,1.033,0,0,0-1.129.278,1.319,1.319,0,0,0-.107,1.575,1.072,1.072,0,0,0,1.809-.071A1.164,1.164,0,0,0,780.821-138.877Z" transform="translate(852.697 7725.758)" fill="#16005f"/>
    <path id="Tracé_11046" data-name="Tracé 11046" d="M713.12-137.275a.46.46,0,0,0-.12-.075,1.63,1.63,0,0,1-.935-2.269,1.481,1.481,0,0,1,2.062-.64c.1.052.184.114.271.168.029-.012.062-.014.069-.029.051-.11.036-.281.238-.249s.154.19.155.312q.006,1.209,0,2.418c0,.117.016.252-.16.272s-.192-.1-.217-.225c0-.019-.029-.034-.062-.069a4.678,4.678,0,0,1-.793.385Zm.276-2.769a1.1,1.1,0,0,0-1.083,1.153,1.1,1.1,0,0,0,1.078,1.2,1.1,1.1,0,0,0,1.114-1.2A1.069,1.069,0,0,0,713.4-140.044Z" transform="translate(883.832 7725.76)" fill="#16005f"/>
    <path id="Tracé_11047" data-name="Tracé 11047" d="M755.065-137.277a2.033,2.033,0,0,1-.8-.472,1.65,1.65,0,0,1-.328-1.659,1.412,1.412,0,0,1,1.158-1.022,1.474,1.474,0,0,1,1.68,1.435c0,.145-.079.189-.205.189l-.87,0c-.387,0-.774-.006-1.161,0-.268.006-.319.085-.248.339a1.1,1.1,0,0,0,1.757.522c.122-.1.223-.221.4-.205.146.013.2.057.115.2a1.318,1.318,0,0,1-.731.562c-.09.031-.193.028-.266.1Zm.247-1.879h.829c.2,0,.219-.093.152-.255a1.028,1.028,0,0,0-.959-.636,1.1,1.1,0,0,0-1.007.631c-.074.182-.043.247.155.256C754.759-139.147,755.036-139.156,755.312-139.156Z" transform="translate(864.158 7725.762)" fill="#16005f"/>
    <path id="Tracé_11048" data-name="Tracé 11048" d="M772.96-137.277a.59.59,0,0,0-.231-.094,1.494,1.494,0,0,1-1-1.619,1.467,1.467,0,0,1,1.094-1.408,1.43,1.43,0,0,1,1.8,1.294c.011.249-.024.3-.282.3-.627.006-1.255,0-1.882,0-.347,0-.384.055-.286.378a1.07,1.07,0,0,0,1.73.475.527.527,0,0,1,.607-.149,1.365,1.365,0,0,1-.709.685c-.108.051-.242.041-.33.136Zm.2-1.878h0c.254,0,.507.006.761,0,.279-.009.318-.08.186-.334a.974.974,0,0,0-.94-.557,1.023,1.023,0,0,0-.958.6c-.1.2-.054.281.19.291S772.91-139.155,773.164-139.155Z" transform="translate(855.766 7725.762)" fill="#16005f"/>
    <path id="Tracé_11049" data-name="Tracé 11049" d="M725.267-137.278a1.926,1.926,0,0,1-.848-.522,1.675,1.675,0,0,1-.262-1.669,1.4,1.4,0,0,1,1.126-.959,1.4,1.4,0,0,1,1.607,1.026,2.309,2.309,0,0,1,.073.316c.036.231,0,.275-.241.278-.6.006-1.206.016-1.809,0-.469-.014-.562.075-.335.558a1.094,1.094,0,0,0,1.675.312c.122-.1.22-.223.4-.207.145.012.2.053.117.2a1.361,1.361,0,0,1-.732.561c-.089.034-.193.031-.264.107Zm.247-1.878h.83c.16,0,.216-.064.159-.226a1.067,1.067,0,0,0-.941-.668,1.066,1.066,0,0,0-1.039.637c-.075.165-.025.255.16.256C724.962-139.156,725.238-139.157,725.515-139.157Z" transform="translate(878.141 7725.764)" fill="#16005f"/>
    <path id="Tracé_11050" data-name="Tracé 11050" d="M761.059-137.275c-.226-.132-.492-.212-.636-.453-.068-.113-.236-.248-.078-.37.132-.1.294-.042.4.116a.618.618,0,0,0,.62.288.521.521,0,0,0,.5-.441.483.483,0,0,0-.312-.582c-.175-.08-.361-.137-.536-.217a.741.741,0,0,1-.516-.881.824.824,0,0,1,.821-.631.827.827,0,0,1,.82.671.356.356,0,0,1-.45-.107.476.476,0,0,0-.422-.159.353.353,0,0,0-.35.261.33.33,0,0,0,.172.427c.228.109.466.2.693.308a.91.91,0,0,1,.239,1.464c-.145.158-.365.181-.527.305Z" transform="translate(861.139 7725.76)" fill="#16005f"/>
    <path id="Tracé_11051" data-name="Tracé 11051" d="M749.362-137.207c-.082-.082-.2-.076-.3-.125a.885.885,0,0,1-.562-.78c-.015-.651-.009-1.3-.01-1.953,0-.132.025-.245.2-.235.153.01.161.122.162.234,0,.458.006.917,0,1.375a2.489,2.489,0,0,0,.071.609c.079.333.257.456.636.46.4,0,.6-.122.675-.459a2.68,2.68,0,0,0,.072-.645c-.006-.446,0-.892,0-1.339,0-.132.026-.245.2-.234.153.01.161.123.161.234,0,.651.005,1.3-.012,1.953a.887.887,0,0,1-.594.795c-.086.04-.192.035-.263.111Z" transform="translate(866.668 7725.691)" fill="#16005f"/>
    <path id="Tracé_11052" data-name="Tracé 11052" d="M739.489-137.267a1.814,1.814,0,0,1-.61-.435c-.081-.117-.193-.237-.114-.384.055-.1.3-.038.424.126a.657.657,0,0,0,.667.267.566.566,0,0,0,.481-.474.452.452,0,0,0-.269-.5,3.082,3.082,0,0,0-.4-.17,2.876,2.876,0,0,1-.266-.113.743.743,0,0,1-.368-1.084.862.862,0,0,1,1.142-.287.9.9,0,0,1,.4.406c.059.124.009.177-.119.187a.365.365,0,0,1-.315-.14.472.472,0,0,0-.594-.109.343.343,0,0,0-.023.63,5.845,5.845,0,0,0,.593.265.923.923,0,0,1,.383,1.48c-.138.166-.346.213-.505.338Z" transform="translate(871.246 7725.752)" fill="#16005f"/>
    <path id="Tracé_11053" data-name="Tracé 11053" d="M744.251-137.27a1.594,1.594,0,0,1-.675-.521c-.054-.1-.18-.219-.032-.311a.26.26,0,0,1,.357.072.668.668,0,0,0,.6.344.573.573,0,0,0,.6-.474c.049-.232-.065-.424-.35-.562a4.4,4.4,0,0,1-.725-.323.718.718,0,0,1-.228-.986.8.8,0,0,1,.76-.4.9.9,0,0,1,.784.505c.059.114.028.183-.109.193a.343.343,0,0,1-.317-.134.492.492,0,0,0-.492-.159.342.342,0,0,0-.306.269.322.322,0,0,0,.162.4c.237.118.488.209.724.329a.807.807,0,0,1,.486.85.875.875,0,0,1-.6.82.5.5,0,0,0-.194.09Z" transform="translate(869.023 7725.754)" fill="#16005f"/>
    <path id="Tracé_11054" data-name="Tracé 11054" d="M720.251-172.072H714.34c-.1,0-.193,0-.29,0-.151,0-.22.069-.209.223a5.384,5.384,0,0,0,2.487,4.469,5.487,5.487,0,0,0,7.305-1.18.9.9,0,0,1,.844-.412c.518.035,1.039.006,1.559.01.318,0,.334.023.188.3a7.407,7.407,0,0,1-5.461,4.062,7.513,7.513,0,0,1-5.715-1.135,7.369,7.369,0,0,1-3.082-4.657,8.6,8.6,0,0,1,1.234-7.091,7.059,7.059,0,0,1,5.941-3.138,7.3,7.3,0,0,1,3.667.838,7.129,7.129,0,0,1,3.275,3.732,8.85,8.85,0,0,1,.653,3.605c-.01.372-.005.376-.393.376Zm-1.031-2.031q2.5,0,5.006,0c.33,0,.336-.011.255-.326a5.6,5.6,0,0,0-.928-1.95,5.062,5.062,0,0,0-4.987-2.168,5.4,5.4,0,0,0-3.868,2.435,5.176,5.176,0,0,0-.76,1.751c-.048.2.008.27.2.261.084,0,.169,0,.254,0Z" transform="translate(883.934 7744.612)" fill="#16005f"/>
    <path id="Tracé_11055" data-name="Tracé 11055" d="M677.575-180.618a7.97,7.97,0,0,1,8.13,8.053,7.993,7.993,0,0,1-8.174,8.1,8.068,8.068,0,0,1-8.053-8.043A8.075,8.075,0,0,1,677.575-180.618Zm-.058,2.031a5.9,5.9,0,0,0-5.908,6.049,5.888,5.888,0,0,0,5.851,6.039,6,6,0,0,0,6.115-6.03A5.948,5.948,0,0,0,677.516-178.587Z" transform="translate(903.742 7744.609)" fill="#16005f"/>
    <path id="Tracé_11056" data-name="Tracé 11056" d="M773.533-164.477a5.6,5.6,0,0,1-3.9-1.492,5.339,5.339,0,0,1-1.238-1.769c-.077-.173-.032-.263.127-.344.506-.257,1.01-.519,1.509-.789.178-.1.256-.037.324.13a3.645,3.645,0,0,0,.917,1.375,3.124,3.124,0,0,0,3.133.719,2.854,2.854,0,0,0,2.075-2.294,2.207,2.207,0,0,0-1.166-2.563,17.324,17.324,0,0,0-2.216-.894,10.545,10.545,0,0,1-1.985-.964,3.675,3.675,0,0,1-1.764-2.5,4.043,4.043,0,0,1,2.779-4.53,4.689,4.689,0,0,1,5.474,1.959c.084.132.146.278.223.414s.043.219-.094.289c-.495.253-.989.507-1.477.773-.228.124-.27-.043-.335-.182a2.5,2.5,0,0,0-1.315-1.287,2.368,2.368,0,0,0-2.983,1,1.737,1.737,0,0,0,.462,2.151,5.342,5.342,0,0,0,1.239.67c.7.271,1.4.523,2.1.805A6.144,6.144,0,0,1,777.5-172.5a3.9,3.9,0,0,1,1.141,2.59,4.962,4.962,0,0,1-.685,3.055,4.915,4.915,0,0,1-3.7,2.328c-.155.021-.312.038-.468.05C773.7-164.472,773.617-164.477,773.533-164.477Z" transform="translate(857.348 7744.619)" fill="#16005f"/>
    <path id="Tracé_11057" data-name="Tracé 11057" d="M745.668-175.961v-6.155c0-.1-.008-.194,0-.289.02-.223-.082-.3-.3-.292-.532.01-1.064.005-1.6,0-.364,0-.371-.009-.374-.36q-.005-.651,0-1.3c0-.35.01-.357.375-.359.508,0,1.015,0,1.523,0,.361,0,.366-.005.367-.363q0-2.19,0-4.381c0-.1.005-.193,0-.289-.009-.18.062-.264.253-.262.532.006,1.064.007,1.6,0,.208,0,.274.087.271.282-.007.434,0,.869,0,1.3q0,1.666,0,3.331c0,.376,0,.378.386.379.641,0,1.281,0,1.922,0,.287,0,.3.024.219.289-.151.484-.322.961-.463,1.448a.362.362,0,0,1-.425.288c-.447-.011-.895,0-1.342-.006-.214,0-.319.064-.3.289.01.108,0,.217,0,.326q0,6.172,0,12.345c0,.565.034.529-.532.53-.423,0-.846,0-1.269,0-.295,0-.311-.019-.315-.308-.006-.446,0-.893,0-1.34Z" transform="translate(869.059 7749.018)" fill="#16005f"/>
    <path id="Tracé_11058" data-name="Tracé 11058" d="M603.058-169.448a3.52,3.52,0,0,1,3.511-3.5,3.549,3.549,0,0,1,3.523,3.5,3.527,3.527,0,0,1-3.522,3.529A3.509,3.509,0,0,1,603.058-169.448Z" transform="translate(934.908 7741.01)" fill="#16005f"/>
    <path id="Tracé_11059" data-name="Tracé 11059" d="M705.971-172.294v7.13c0,.1,0,.193,0,.29-.008.331-.019.344-.352.347q-.725.006-1.451,0c-.33,0-.338-.015-.347-.352,0-.061,0-.12,0-.181q0-7.2,0-14.4c0-.645.006-.568.571-.572q.581,0,1.16,0c.412,0,.418.007.419.433q0,1.682,0,3.366Z" transform="translate(887.629 7744.337)" fill="#16005f"/>
    <path id="Tracé_11060" data-name="Tracé 11060" d="M762.5-172.293v7.237c0,.109,0,.217,0,.326a.18.18,0,0,1-.2.2h-1.7a.179.179,0,0,1-.2-.2c0-.108,0-.217,0-.325v-14.475c0-.542-.031-.511.512-.511.411,0,.822,0,1.233,0,.362,0,.371.01.372.361,0,.687,0,1.375,0,2.063Z" transform="translate(861.09 7744.337)" fill="#16005f"/>
    <path id="Tracé_11061" data-name="Tracé 11061" d="M596.61-156.35a2.56,2.56,0,0,1,2.579,2.54,2.563,2.563,0,0,1-2.545,2.57,2.557,2.557,0,0,1-2.6-2.553A2.56,2.56,0,0,1,596.61-156.35Z" transform="translate(939.135 7733.223)" fill="#16005f"/>
    <path id="Tracé_11062" data-name="Tracé 11062" d="M618.615-157.1a2.434,2.434,0,0,1,2.447-2.468,2.487,2.487,0,0,1,2.5,2.475,2.471,2.471,0,0,1-2.469,2.461A2.428,2.428,0,0,1,618.615-157.1Z" transform="translate(927.609 7734.732)" fill="#16005f"/>
    <path id="Tracé_11063" data-name="Tracé 11063" d="M593.259-169.211a1.512,1.512,0,0,1-1.534,1.533,1.507,1.507,0,0,1-1.52-1.547,1.492,1.492,0,0,1,1.53-1.527A1.508,1.508,0,0,1,593.259-169.211Z" transform="translate(940.939 7739.979)" fill="#16005f"/>
    <path id="Tracé_11064" data-name="Tracé 11064" d="M703.376-188.723a1.321,1.321,0,0,1,1.368-1.3,1.333,1.333,0,0,1,1.306,1.33,1.349,1.349,0,0,1-1.339,1.343A1.348,1.348,0,0,1,703.376-188.723Z" transform="translate(887.838 7749.021)" fill="#16005f"/>
    <path id="Tracé_11065" data-name="Tracé 11065" d="M761.254-190.02a1.294,1.294,0,0,1,1.33,1.323,1.3,1.3,0,0,1-1.313,1.348,1.3,1.3,0,0,1-1.33-1.331A1.3,1.3,0,0,1,761.254-190.02Z" transform="translate(861.297 7749.021)" fill="#16005f"/>
    <path id="Tracé_11066" data-name="Tracé 11066" d="M620.516-179.264a1.185,1.185,0,0,1-1.224,1.2,1.232,1.232,0,0,1-1.2-1.211,1.214,1.214,0,0,1,1.229-1.208A1.161,1.161,0,0,1,620.516-179.264Z" transform="translate(927.852 7744.547)" fill="#16005f"/>
    <path id="Tracé_11067" data-name="Tracé 11067" d="M703.671-138.882c0-.41-.006-.82,0-1.23,0-.251.115-.337.343-.234a.339.339,0,0,0,.329,0,.907.907,0,0,1,1.071.167c.123.114.208.13.329,0a.948.948,0,0,1,.725-.272.814.814,0,0,1,.869.753c.064.709.02,1.421.021,2.133,0,.105-.036.189-.164.195-.145.007-.192-.077-.193-.2,0-.506,0-1.013,0-1.519a3.015,3.015,0,0,0-.017-.433c-.057-.374-.2-.511-.529-.522a.592.592,0,0,0-.679.511,4.327,4.327,0,0,0-.082.79c.008.374,0,.748,0,1.122,0,.123,0,.254-.178.255s-.175-.132-.176-.255c0-.506,0-1.012,0-1.519a1.642,1.642,0,0,0-.046-.466c-.085-.288-.213-.411-.463-.435a.579.579,0,0,0-.65.348,1.172,1.172,0,0,0-.1.529c0,.506,0,1.013,0,1.519,0,.092.02.2-.082.26a.209.209,0,0,1-.321-.191c-.01-.434,0-.868,0-1.3Z" transform="translate(887.701 7725.764)" fill="#16005f"/>
    <path id="Tracé_11068" data-name="Tracé 11068" d="M721.551-138.218a.553.553,0,0,1-.606-.168c-.314-.334-.643-.653-.969-.975-.081-.08-.15-.227-.29-.161s-.084.212-.087.327c-.006.253,0,.506,0,.759,0,.11,0,.226-.157.236-.172.011-.2-.1-.2-.235q0-1.175,0-2.35c0-.374,0-.747,0-1.12,0-.136-.037-.321.19-.314.2.006.162.177.163.3,0,.47,0,.939,0,1.409,0,.1-.038.216.072.327a9.5,9.5,0,0,0,.847-.819c.239-.223.236-.227.614-.175.041.122-.065.17-.126.233-.268.277-.543.549-.813.824-.223.228-.225.231,0,.454.415.42.833.838,1.248,1.259C721.484-138.359,721.556-138.321,721.551-138.218Z" transform="translate(880.395 7726.592)" fill="#16005f"/>
    <path id="Tracé_11069" data-name="Tracé 11069" d="M733.575-139.544c0-.325,0-.651,0-.976,0-.161.007-.321-.213-.351-.1-.014-.133-.092-.128-.187s.043-.142.127-.149c.2-.016.214-.156.214-.309s0-.338,0-.506c0-.1.026-.195.154-.2s.193.075.2.2c0,.18.007.361,0,.542s.061.274.252.272c.107,0,.229-.006.242.15.015.171-.1.2-.232.2-.236.007-.262.164-.262.348q0,.939,0,1.879c0,.1,0,.193-.01.288a.15.15,0,0,1-.173.144.146.146,0,0,1-.166-.15c-.006-.18-.007-.361-.008-.541C733.574-139.111,733.575-139.327,733.575-139.544Z" transform="translate(873.828 7726.596)" fill="#16005f"/>
    <path id="Tracé_11070" data-name="Tracé 11070" d="M785.427-140.215q0-.815,0-1.629a2,2,0,0,1,.011-.253c.013-.1.084-.139.18-.14s.193.027.206.151a1.308,1.308,0,0,1,.007.144q0,1.719,0,3.439c0,.112.038.252-.133.294s-.266-.036-.268-.269C785.424-139.056,785.428-139.636,785.427-140.215Z" transform="translate(849.34 7726.6)" fill="#16005f"/>
    <path id="Tracé_11071" data-name="Tracé 11071" d="M768.889-138.907c0-.384,0-.769,0-1.154,0-.308.1-.389.364-.277a.3.3,0,0,0,.293-.013.686.686,0,0,1,.488-.082c.069.018.149.037.169.116a.222.222,0,0,1-.1.219.283.283,0,0,1-.13.051c-.552.11-.662.23-.675.806-.012.529,0,1.058-.005,1.587,0,.1.027.223-.11.277-.168.065-.291-.021-.3-.232-.008-.433,0-.866,0-1.3Z" transform="translate(857.1 7725.762)" fill="#16005f"/>
    <path id="Tracé_11072" data-name="Tracé 11072" d="M736.621-138.8c0-.42,0-.841,0-1.261,0-.156.041-.254.224-.247s.188.115.188.245q0,1.261,0,2.522c0,.156-.041.254-.224.247s-.188-.115-.188-.245Q736.622-138.174,736.621-138.8Z" transform="translate(872.24 7725.697)" fill="#16005f"/>
  </g>
</svg>
