<svg xmlns="http://www.w3.org/2000/svg" width="75.254" height="99.869" viewBox="0 0 75.254 99.869">
  <g id="Groupe_10966" data-name="Groupe 10966" transform="translate(-439.298 -7523.999)">
    <path id="Tracé_11152" data-name="Tracé 11152" d="M50.805-532.886a5.825,5.825,0,0,1,.028-1.178.98.98,0,0,0,.5-.215,22.546,22.546,0,0,1,4.207-2.01,33.127,33.127,0,0,1,12.174-1.75,46.47,46.47,0,0,1,7.561.833A44.938,44.938,0,0,1,88.9-532.278a10.245,10.245,0,0,1,1.753,1.124c-.08.044-.1.06-.108.057a1.079,1.079,0,0,1-.188-.063A22.014,22.014,0,0,0,79.682-533.4a27.767,27.767,0,0,0-6.82,1.015,24.979,24.979,0,0,0-10.7,6.118,26.038,26.038,0,0,0-5.731,8.295,19.9,19.9,0,0,0-1.837,9.246,22.869,22.869,0,0,0,2.122,8.305,46.745,46.745,0,0,0,8.2,11.784c1.893,2.1,3.922,4.078,5.935,6.067,1.929,1.907,3.956,3.709,6.006,5.484.3.255.425.255.567-.149,1.17-3.33,2.363-6.653,3.543-9.98q2.122-5.984,4.236-11.971a6.612,6.612,0,0,0,4.635,1.438,5.962,5.962,0,0,0,4.542-1.945,135.908,135.908,0,0,0,.647,17.318,144.354,144.354,0,0,0,.021-27.446,10.932,10.932,0,0,0-.284,1.588c-.176,1.85-.323,3.7-.5,5.553a3.464,3.464,0,0,1-2.221,3.144A6.583,6.583,0,0,1,87-499.566a2.4,2.4,0,0,1-1.336-1.08,3.787,3.787,0,0,0,.226-.446c.579-1.623,1.15-3.25,1.727-4.874q2.2-6.2,4.4-12.395,3.664-10.339,7.324-20.679c.27-.761.312-.793,1.115-.661a28.02,28.02,0,0,1,9.444,3.225,25.368,25.368,0,0,1,5.6,4.3,27.544,27.544,0,0,1,5.5,8.221,20.822,20.822,0,0,1,1.813,7.259,19.948,19.948,0,0,1-.551,5.873,30.577,30.577,0,0,1-4.4,9.635,71.573,71.573,0,0,1-8.656,10.345q-2.877,2.951-5.909,5.745c-2.059,1.892-4.172,3.718-6.372,5.445A96.151,96.151,0,0,1,83.2-470.582c-.558.3-1.114.605-1.715.932a.37.37,0,0,0,.4-.047c2.4-1.148,4.818-2.272,7.2-3.457,3.014-1.5,6-3.056,8.939-4.7,3.247-1.813,6.443-3.712,9.56-5.737a128.893,128.893,0,0,0,12.39-8.989c1.863-1.553,3.794-3.03,5.512-4.752.1-.1.191-.242.37-.228q0,7.166.007,14.332,0,7.292,0,14.583c0,.743.086.651-.63.651q-10.433,0-20.866,0H74.853c-.2,0-.4,0-.6-.007a.826.826,0,0,1,.074-.487c.624-1.765,1.226-3.539,1.883-5.292.154-.41.081-.579-.27-.786-1.743-1.028-3.5-2.043-5.2-3.129A121.871,121.871,0,0,1,51.106-492.75a2.011,2.011,0,0,0-.284-.194l-.011-1.481a10.792,10.792,0,0,1,1.148,1.186c2.619,2.567,5.474,4.861,8.324,7.161a2.426,2.426,0,0,0,.849.568c.014-.185-.1-.245-.185-.318-1.3-1.131-2.593-2.267-3.9-3.388a45.277,45.277,0,0,1-5.5-5.691c-.216-.265-.357-.613-.707-.758a9.553,9.553,0,0,1-.021-1.673l.418.562a48.543,48.543,0,0,0,6.8,7.3c1.186,1.057,2.379,2.107,3.6,3.125,1.476,1.233,2.974,2.439,4.479,3.636a7.815,7.815,0,0,0,1.553,1.1,2.338,2.338,0,0,0-.769-.76,111.244,111.244,0,0,1-9.224-8.339,44.372,44.372,0,0,1-5.932-7.508,4.925,4.925,0,0,0-.9-1.365,14.577,14.577,0,0,1-.026-1.98c.635,1.139,1.228,2.3,1.931,3.4a51.44,51.44,0,0,0,8.689,10.022c2.573,2.371,5.2,4.672,7.919,6.877a31.658,31.658,0,0,0,2.665,2.037c.1.125.185.262.389.253-.023-.249-.2-.262-.353-.3-.169-.417-.581-.594-.892-.855a122.993,122.993,0,0,1-10.238-9.549,47.366,47.366,0,0,1-6.123-7.873,28.572,28.572,0,0,1-3.771-9.3c-.039-.2.077-.456-.189-.583q-.1-3.15,0-6.3c.17-.053.144-.2.166-.331a24.487,24.487,0,0,1,.934-3.946,23.88,23.88,0,0,1,6.336-9.635,24.438,24.438,0,0,1,6.6-4.429A28.385,28.385,0,0,1,78.927-534.6c.547.038,1.094.068,1.641.1a30.045,30.045,0,0,0-4.848-.564,31.181,31.181,0,0,0-6.057.306A28.325,28.325,0,0,0,59.71-531.5a22.676,22.676,0,0,0-6.181,5.068,29.4,29.4,0,0,0-2.72,3.906,11.827,11.827,0,0,1,.026-1.778c.258-.078.321-.331.447-.517a22.934,22.934,0,0,1,6.509-6.4A28.263,28.263,0,0,1,73.078-535.7c1.056-.018,2.114,0,3.171,0a1.939,1.939,0,0,0-.673-.183,48.916,48.916,0,0,0-5.9-.238,35.384,35.384,0,0,0-6.108.733,25.261,25.261,0,0,0-10.181,4.54c-.919.7-1.727,1.524-2.585,2.292l.024-1.283c.147-.017.228-.131.326-.22a23.911,23.911,0,0,1,4.886-3.491,28.42,28.42,0,0,1,9.57-2.973,40.531,40.531,0,0,1,7.757-.2,8.341,8.341,0,0,0,1.771.088,39.5,39.5,0,0,0-6.8-.753,36.5,36.5,0,0,0-5.7.28,27.581,27.581,0,0,0-8.872,2.536C52.743-534.073,51.789-533.455,50.805-532.886Zm23.128,55.053.05.051c0-.012,0-.028-.006-.034a.135.135,0,0,0-.042-.02.147.147,0,0,0-.022-.042c-.007-.007-.024,0-.036,0Zm-.3-.206-.1-.1a.332.332,0,0,0-.289-.216c-.025-.106-.08-.182-.2-.179-.02,0-.061.042-.057.054.036.108.129.139.231.155a.316.316,0,0,0,.309.193l.1.1c.016.03.016.093.072.032ZM68.7-480.855l.048.052c0-.011,0-.027-.007-.033a.165.165,0,0,0-.043-.017.14.14,0,0,0-.019-.04c-.006-.006-.021,0-.032,0Zm-6.439-3.823a.147.147,0,0,0-.022-.042c-.007-.006-.024,0-.036,0l.055.047.05.052c0-.012,0-.028-.005-.034A.148.148,0,0,0,62.265-484.678Zm6.135,3.625a.142.142,0,0,0,.02.042c.006.007.023,0,.035,0l-.053-.049-.1-.1a.134.134,0,0,0-.021-.043c-.007-.007-.024,0-.036,0l.055.05Zm12.676,11.67.131-.027-.034-.052-.092.084-.128.021.028.052ZM67.991-481.349l.065.042-.046-.06c-.012-.086-.044-.154-.146-.151a.046.046,0,0,0-.033.032C67.833-481.382,67.91-481.362,67.991-481.349Zm-6.225-3.739-.189-.114c-.039-.153-.114-.256-.3-.239.022.194.141.24.274.272a.213.213,0,0,0,.2.105.2.2,0,0,0,.21.192l.063.043-.049-.057A.207.207,0,0,0,61.766-485.088Zm10.873,6.232c-.024-.032-.044-.082-.088-.022,0,0,.035.037.054.057.021.082.055.151.156.143a.048.048,0,0,0,.033-.033C72.8-478.813,72.719-478.837,72.639-478.856Zm4.1,2.442c.057.08.114.166.229.156.017,0,.049-.049.044-.067-.032-.124-.146-.109-.237-.133-.045-.219-.228-.33-.38-.451-1.913-1.523-3.738-3.149-5.494-4.846A87.721,87.721,0,0,1,59.59-494.246a29.373,29.373,0,0,1-5.323-11.74,20.061,20.061,0,0,1,.119-7.712,23.034,23.034,0,0,1,2.443-6.4,26.379,26.379,0,0,1,5.232-6.818,25.542,25.542,0,0,1,9.192-5.409,25.349,25.349,0,0,1,6.266-1.281,25.658,25.658,0,0,1,5.455.106q1.115.157,2.229.318a.209.209,0,0,0,.314.029l-.317-.025a1.615,1.615,0,0,0-.268-.117,31.345,31.345,0,0,0-9.146-.817,29.951,29.951,0,0,0-8.558,1.741,24.7,24.7,0,0,0-8.215,4.929,24.036,24.036,0,0,0-6.027,8.615,20,20,0,0,0-1.256,11.6,27.814,27.814,0,0,0,3.674,9.284A58.528,58.528,0,0,0,65.549-486c2.7,2.57,5.465,5.079,8.385,7.406C74.86-477.854,75.749-477.067,76.741-476.414Zm31.621-31.973c-.734-1.58-3.416-3.027-6.131-2.433a6.507,6.507,0,0,0-5.04,7.243,6.523,6.523,0,0,0,6.732,5.646,5.914,5.914,0,0,0,5.7-4.806,5.9,5.9,0,0,1-8.87,2.679,5.544,5.544,0,0,1-.839-8.2A5.894,5.894,0,0,1,108.362-508.387ZM75.924-536.546c-.222-.048-.355-.09-.495,0A.766.766,0,0,0,75.924-536.546Z" transform="translate(388.516 8067.104)" fill="#16005f"/>
    <path id="Tracé_11153" data-name="Tracé 11153" d="M119.926-476.395l-.1.1-.1.1-.1.1-.1.1a.173.173,0,0,0-.2.1.134.134,0,0,0-.038.018c-.006,0,0,.018-.006.028l.038-.052a.177.177,0,0,0,.2-.1l.1-.1.1-.1.1-.1.1-.1.1-.1.132-.035-.036-.058-.1.087Zm-1.1,2.722-.1.1a.176.176,0,0,0-.2.1l-.1.1a.19.19,0,0,0-.2.1.151.151,0,0,0-.039.017c-.006,0-.006.018-.008.027l.041-.05a.189.189,0,0,0,.2-.1l.1-.1a.182.182,0,0,0,.2-.1l.1-.1a.159.159,0,0,0,.044-.013c.008-.005.007-.021.01-.032Zm.908.1a.193.193,0,0,0-.2.1l-.1.1a.189.189,0,0,0-.2.1.152.152,0,0,0-.037.015c-.006,0-.007.016-.01.024l.041-.045a.192.192,0,0,0,.2-.1l.1-.1c.084,0,.162-.01.2-.1a.146.146,0,0,0,.043-.014c.007,0,.007-.019.01-.029Zm0-1.611a.182.182,0,0,0,.206-.094.214.214,0,0,0,.213-.193.588.588,0,0,0,.055-.053c-.045-.06-.063-.009-.086.023a.21.21,0,0,0-.2.2.2.2,0,0,0-.19.114l-.1.1c-.123.009-.2.064-.2.2a.185.185,0,0,0-.2.105c-.065.007-.132.017-.142.1,0,.016.038.056.054.053.078-.011.1-.07.1-.139a.192.192,0,0,0,.2-.1c.119-.014.2-.069.2-.2Zm-13.081-47.1-.1-.1a.191.191,0,0,0-.191-.113c-.021-.034-.038-.082-.087-.026l.061.052a.2.2,0,0,0,.21.093l.1.1.094.079.031-.052Zm-23.729,2.449a166.573,166.573,0,0,0,0,29.883A167,167,0,0,0,82.921-519.826Zm5.96,30.342a3.269,3.269,0,0,0,.136-.468c.185-1.628.36-3.257.433-4.9a18.081,18.081,0,0,1,.2-2.5,3.408,3.408,0,0,1,3.363-3.005A3.838,3.838,0,0,1,97-497.559a11.041,11.041,0,0,1,.162,1.436,3.533,3.533,0,0,0,.163-2.209,4.43,4.43,0,0,0-4.184-3.3,4.538,4.538,0,0,0-4.79,4.5A49.748,49.748,0,0,0,88.881-489.484Zm-3.054-.26a26.843,26.843,0,0,0,0-11.928A26.85,26.85,0,0,0,85.827-489.744Zm.7-17.394a2.431,2.431,0,0,0-.5-1.355c-.1-.128-.176-.231-.352-.067a2.215,2.215,0,0,0-.044,2.761c.165.163.272.137.407-.018A2.236,2.236,0,0,0,86.522-507.138Zm32.607,33.2c-.023.017-.059.03-.066.053-.019.063.019.087.074.066a.1.1,0,0,0,.049-.069C119.187-473.9,119.15-473.917,119.129-473.935Zm1.237-.09.024.016,0-.024Z" transform="translate(373.004 8058.615)" fill="#16005f"/>
    <path id="Tracé_11154" data-name="Tracé 11154" d="M173.607-513.8a33.588,33.588,0,0,1-1.293,4.31,37.222,37.222,0,0,1-5.232,9,76.005,76.005,0,0,1-8.119,8.7c-1.712,1.647-3.51,3.2-5.274,4.8-.329.3-.677.575-1.1.935a.774.774,0,0,1,.359-.563c2.389-2.085,4.6-4.353,6.789-6.644a56.015,56.015,0,0,0,8.317-10.792,25.916,25.916,0,0,0,3.316-8.835,21.377,21.377,0,0,0-1.507-12.032,29.763,29.763,0,0,0-4.484-7.291,24.8,24.8,0,0,0-6.692-5.551,26.784,26.784,0,0,0-10.205-3.417c-.182-.023-.362-.063-.544-.086-.135-.017-.283-.01-.276-.206s.142-.2.284-.2c.435,0,.873-.015,1.307.021a29.717,29.717,0,0,1,11.981,3.368,24.546,24.546,0,0,1,9.713,9.5,22.415,22.415,0,0,1,2.605,6.761c.006.03.038.054.057.081Z" transform="translate(340.75 8068.051)" fill="#16005f"/>
    <path id="Tracé_11155" data-name="Tracé 11155" d="M173.918-526.359c-.573-1.224-1.075-2.481-1.764-3.652a26.576,26.576,0,0,0-9.779-9.938,26.8,26.8,0,0,0-10.084-3.3,22.117,22.117,0,0,0-4.009-.2.946.946,0,0,1,.61-.205,34.328,34.328,0,0,1,12.837,1.778,24.352,24.352,0,0,1,10.192,6.744,23.533,23.533,0,0,1,2,2.635Z" transform="translate(340.445 8069.039)" fill="#16005f"/>
    <path id="Tracé_11156" data-name="Tracé 11156" d="M174.329-535.179a7.347,7.347,0,0,1-1.176-1.355,25.264,25.264,0,0,0-8.37-6.529,27.626,27.626,0,0,0-7.706-2.3,43.853,43.853,0,0,0-6.914-.283,3.237,3.237,0,0,1-1.061.052,15.369,15.369,0,0,1,2.609-.331,34.12,34.12,0,0,1,4.517-.1,31.215,31.215,0,0,1,13.046,3.2,23.074,23.074,0,0,1,5.048,3.525Z" transform="translate(340.041 8070.213)" fill="#16005f"/>
    <path id="Tracé_11157" data-name="Tracé 11157" d="M178.37-475.316c-.92,1.456-1.829,2.918-2.885,4.284a56.659,56.659,0,0,1-7.078,7.586c-1.421,1.271-2.813,2.577-4.259,3.821-2.144,1.844-4.321,3.646-6.578,5.352-.051.039-.107.085-.239-.021.458-.387.9-.775,1.355-1.143q2.5-2.017,4.865-4.193c1.785-1.647,3.574-3.292,5.237-5.063a45.739,45.739,0,0,0,8.509-11.982c.309-.668.578-1.354.86-2.033.063-.152.075-.328.225-.434Z" transform="translate(335.984 8037.217)" fill="#16005f"/>
    <path id="Tracé_11158" data-name="Tracé 11158" d="M187.532-540.458a9.58,9.58,0,0,1-1.484-1.166,25.158,25.158,0,0,0-9.56-4.471c-.208-.051-.473.007-.606-.244,1.869,0,3.738-.063,5.607.034.9.335,1.807.665,2.708,1a35.3,35.3,0,0,1,3.319,1.622Z" transform="translate(326.838 8070.357)" fill="#16005f"/>
    <path id="Tracé_11159" data-name="Tracé 11159" d="M177.606-466.008a51.983,51.983,0,0,1-3.715,4.142c-2.37,2.291-4.865,4.445-7.4,6.547-3.25,2.691-6.625,5.212-10.081,7.63-.186.13-.353.321-.616.3l-.012-.011c.768-.7,1.65-1.248,2.475-1.872,2.989-2.259,5.918-4.59,8.7-7.108,1.674-1.517,3.368-3.015,4.918-4.661a45.99,45.99,0,0,0,5.447-6.87c.08-.126.148-.265.306-.315Z" transform="translate(336.752 8031.832)" fill="#16005f"/>
    <path id="Tracé_11160" data-name="Tracé 11160" d="M68.537-373.457c-.207,1.079-.412,2.158-.622,3.236-.035.181.019.415-.3.425s-.283-.2-.318-.4c-.2-1.116-.41-2.231-.693-3.344q0,1.6,0,3.2c0,.508-.249.68-.736.533-.16-.049-.153-.153-.153-.268,0-1.792,0-3.585,0-5.377,0-.231.109-.267.308-.28.936-.065.931-.069,1.1.855.141.8.3,1.589.445,2.383h.129c.154-.891.331-1.779.452-2.674.061-.453.229-.606.7-.571.758.056.663-.08.665.68,0,1.608-.01,3.217.01,4.825,0,.364-.116.441-.454.441s-.462-.067-.453-.435c.026-1.071.009-2.143.009-3.215Z" transform="translate(381.154 7986.24)" fill="#16005f"/>
    <path id="Tracé_11161" data-name="Tracé 11161" d="M155.23-388.959a3.989,3.989,0,0,0,.374-1.381c.1-.491.192-.986.25-1.484.037-.317.171-.4.478-.393.844.012.844,0,.844.845q0,2.262,0,4.523c0,.292.088.581-.421.582-.481,0-.446-.237-.444-.555.009-1.071,0-2.143-.075-3.226q-.313,1.634-.627,3.268c-.016.082-.028.165-.042.247a.261.261,0,0,1-.305.25c-.2-.005-.241-.109-.272-.279-.2-1.116-.409-2.231-.7-3.348v.782c0,.8-.019,1.609.009,2.412.013.372-.13.433-.462.441-.356.008-.448-.1-.444-.451q.027-2.538,0-5.076c0-.332.092-.419.418-.415.844.011.842,0,.987.816S155.084-389.773,155.23-388.959Z" transform="translate(337.93 7994.357)" fill="#16005f"/>
    <path id="Tracé_11162" data-name="Tracé 11162" d="M133.219-392.165a.763.763,0,0,1,.1-.035c.809-.038.809-.038,1.008.744.128.5.257,1,.421,1.643.187-.767.349-1.4.493-2.043.054-.237.126-.366.416-.36,1.039.021,2.08.023,3.118,0,.39-.009.326.224.33.454s.037.506-.339.441c-.538-.094-.663.138-.648.651.037,1.307,0,2.616.022,3.923.008.388-.116.465-.481.474-.4.01-.463-.135-.458-.491.02-1.392,0-2.784.012-4.175,0-.258-.033-.431-.344-.38-.462.076-.7-.084-.63-.61-.331,1.3-1.006,2.485-1.026,3.85-.006.4,0,.8,0,1.207,0,.631-.016.632-.649.591-.231-.015-.3-.108-.271-.308.232-1.8-.448-3.424-.938-5.087C133.313-391.834,133.268-391.994,133.219-392.165Z" transform="translate(347.873 7994.357)" fill="#16005f"/>
    <path id="Tracé_11163" data-name="Tracé 11163" d="M159.152-444.472c1.109-.8,2.211-1.613,3.327-2.4q4.341-3.074,8.389-6.523c1.728-1.478,3.465-2.947,5.091-4.537a38.215,38.215,0,0,0,2.857-3.094,1.3,1.3,0,0,1,.466-.444q-.011.806-.022,1.612c-1.326,1.226-2.663,2.438-4.04,3.607-3.33,2.826-6.765,5.516-10.338,8.026-1.752,1.23-3.5,2.474-5.31,3.612a.589.589,0,0,1-.411.154Z" transform="translate(335.084 8028.506)" fill="#16005f"/>
    <path id="Tracé_11164" data-name="Tracé 11164" d="M133.279-372.94c0,.928-.023,1.858.011,2.785.015.406-.2.366-.46.373-.284.008-.455-.01-.45-.389.022-1.709.008-3.419.013-5.128,0-.162-.089-.42.219-.4.266.017.608-.165.741.281.225.753.482,1.5.726,2.243a2.091,2.091,0,0,0,.311.648c.013-.132.036-.263.036-.394,0-.821.016-1.643,0-2.464-.009-.391.239-.319.466-.323s.426-.04.424.311c-.013,1.776-.007,3.553,0,5.329,0,.172-.024.321-.238.276-.243-.052-.571.189-.709-.247-.272-.861-.579-1.71-.872-2.565-.041-.119-.085-.236-.127-.354Z" transform="translate(348.285 7986.225)" fill="#16005f"/>
    <path id="Tracé_11165" data-name="Tracé 11165" d="M65.23-388.869c0-.981.016-1.962-.009-2.942-.009-.348.12-.407.43-.41s.427.077.424.415c-.017,1.708-.006,3.416-.011,5.124,0,.165.075.422-.231.385-.247-.03-.572.18-.71-.249a28.09,28.09,0,0,0-1.084-2.877v2.241a3.592,3.592,0,0,0,0,.5c.052.364-.139.4-.436.4-.314.005-.441-.067-.437-.412.016-1.691,0-3.382.013-5.074,0-.167-.125-.452.224-.44.27.01.59-.136.721.306.3,1.022.652,2.031.982,3.045Z" transform="translate(382.416 7994.359)" fill="#16005f"/>
    <path id="Tracé_11166" data-name="Tracé 11166" d="M159.328-369.827a.915.915,0,0,1-.161.044c-.786.048-.786.048-.963-.722-.1-.456-.2-.915-.319-1.366-.042-.155,0-.411-.285-.391-.307.022-.187.271-.191.425-.014.569-.034,1.14,0,1.706.028.43-.238.352-.481.352s-.49.077-.485-.35c.023-1.74.013-3.481.006-5.221,0-.249.061-.368.337-.354.4.02.8-.011,1.2.01a1.091,1.091,0,0,1,1.159.973,2.231,2.231,0,0,1-.351,2.088c-.159.175-.078.345-.036.516C158.949-371.355,159.139-370.594,159.328-369.827Zm-1.057-4.212c-.005-.07-.01-.2-.023-.335-.038-.367-.292-.448-.6-.45-.388,0-.218.3-.235.471a5.279,5.279,0,0,0,0,.8c.008.145-.093.363.17.391.215.023.441.034.582-.184A1.285,1.285,0,0,0,158.271-374.039Z" transform="translate(336.42 7986.217)" fill="#16005f"/>
    <path id="Tracé_11167" data-name="Tracé 11167" d="M127.085-389.3c0-.837.011-1.674-.006-2.511-.006-.291.053-.431.383-.406.4.031.8-.008,1.2.021a1.078,1.078,0,0,1,1.12.956,2.246,2.246,0,0,1-.339,2.091c-.159.177-.088.338-.047.511.159.666.309,1.335.489,2,.069.255.055.339-.245.364-.475.039-.733-.083-.794-.6a11.135,11.135,0,0,0-.321-1.468c-.043-.168,0-.452-.316-.41-.291.039-.17.284-.175.441-.016.519-.029,1.039,0,1.556.022.373-.086.494-.47.484-.349-.009-.51-.058-.494-.462C127.107-387.59,127.085-388.445,127.085-389.3Zm.946-1.206c0,.151-.01.3,0,.451s-.089.4.221.4c.24,0,.493,0,.584-.276a1.647,1.647,0,0,0,.015-1.083c-.107-.3-.357-.314-.617-.305-.319.011-.178.258-.2.412A2.7,2.7,0,0,0,128.031-390.5Z" transform="translate(350.902 7994.359)" fill="#16005f"/>
    <path id="Tracé_11168" data-name="Tracé 11168" d="M145.887-389.252c0-.872.019-1.744-.008-2.615-.014-.434.261-.328.494-.339s.456-.039.433.341c-.033.585.011,1.174-.015,1.76-.018.4.248.307.463.312s.472.072.451-.326c-.032-.585.012-1.174-.015-1.76-.018-.392.227-.335.455-.325s.51-.114.5.326q-.026,2.616,0,5.231c.006.415-.229.36-.482.362s-.5.05-.481-.361c.029-.636-.015-1.275.016-1.911.018-.374-.191-.355-.438-.347s-.5-.057-.479.361c.034.635-.013,1.274.017,1.911.017.372-.19.354-.437.347s-.5.068-.49-.352C145.9-387.508,145.887-388.38,145.887-389.252Z" transform="translate(341.629 7994.357)" fill="#16005f"/>
    <path id="Tracé_11169" data-name="Tracé 11169" d="M165.538-389.356c0,.553.01,1.106,0,1.658a1.306,1.306,0,0,1-1.246,1.422c-.927.043-1.481-.353-1.53-1.266-.066-1.219-.061-2.446-.007-3.665a1.286,1.286,0,0,1,1.536-1.22,1.291,1.291,0,0,1,1.25,1.362c0,.017,0,.033,0,.05Zm-.963.011q0-.829,0-1.658c0-.293-.074-.56-.416-.578-.383-.019-.468.274-.47.578q-.012,1.658,0,3.316c0,.3.087.6.469.578.341-.018.417-.284.417-.578Q164.576-388.516,164.576-389.345Z" transform="translate(333.332 7994.463)" fill="#16005f"/>
    <path id="Tracé_11170" data-name="Tracé 11170" d="M125.289-372.891c0-.6-.047-1.209.011-1.805a1.264,1.264,0,0,1,1.472-1.228,1.229,1.229,0,0,1,1.292,1.252,22.768,22.768,0,0,1-.011,3.709,1.242,1.242,0,0,1-1.306,1.191,1.255,1.255,0,0,1-1.421-1.115A9.91,9.91,0,0,1,125.289-372.891Zm1.845.073v-1.66c0-.315-.092-.6-.45-.608s-.454.283-.454.6q0,1.635,0,3.27c0,.3.064.6.445.6.406,0,.459-.315.458-.641C127.134-371.779,127.135-372.3,127.135-372.819Z" transform="translate(351.799 7986.324)" fill="#16005f"/>
    <path id="Tracé_11171" data-name="Tracé 11171" d="M180.19-372.859c0-.553-.009-1.107,0-1.66a1.3,1.3,0,0,1,1.367-1.405A1.286,1.286,0,0,1,183-374.546a28.828,28.828,0,0,1-.067,3.813c-.014.106-.026.209.091.255.438.174.269.567.218.823-.068.34-.431.167-.555.059a1.179,1.179,0,0,0-1.043-.193c-.856.1-1.412-.467-1.446-1.411C180.175-371.752,180.191-372.306,180.19-372.859Zm.951-.02c0,.568,0,1.135,0,1.7,0,.292.088.546.433.562s.463-.251.466-.531c.014-1.135.012-2.269,0-3.4,0-.286-.117-.552-.458-.542s-.439.264-.442.56C181.138-373.981,181.141-373.43,181.141-372.879Z" transform="translate(324.717 7986.326)" fill="#16005f"/>
    <path id="Tracé_11172" data-name="Tracé 11172" d="M163.351-372.729c0-.854.015-1.709-.008-2.562-.009-.339.105-.443.43-.416.3.025.6,0,.9.006.89.011,1.386.394,1.431,1.271a32.761,32.761,0,0,1,0,3.413c-.044.823-.494,1.181-1.309,1.231-1.443.089-1.443.089-1.443-1.336Zm.905-.031c0,.552.025,1.106-.009,1.656-.023.381.136.45.463.422.386-.034.451-.28.451-.593,0-.9,0-1.807,0-2.71a1.511,1.511,0,0,0-.024-.4.581.581,0,0,0-.657-.423c-.385.014-.207.32-.215.493C164.241-373.8,164.257-373.28,164.257-372.761Z" transform="translate(333.02 7986.221)" fill="#16005f"/>
    <path id="Tracé_11173" data-name="Tracé 11173" d="M109.707-389.252c0-.872.009-1.744-.005-2.615,0-.259.068-.359.337-.344.4.023.806-.011,1.206.021a1.157,1.157,0,0,1,1.2,1.126,19.977,19.977,0,0,1-.01,3.714,1.112,1.112,0,0,1-1.19,1.061c-.4.019-.805-.011-1.207.009-.277.014-.337-.108-.334-.356C109.713-387.508,109.707-388.38,109.707-389.252Zm1.827.076h0c0-.519.017-1.038-.006-1.556a.562.562,0,0,0-.682-.562c-.41.027-.2.358-.2.539-.021,1.054.016,2.11-.022,3.163-.017.447.2.451.507.411s.406-.263.408-.539C111.537-388.206,111.533-388.691,111.533-389.176Z" transform="translate(359.467 7994.357)" fill="#16005f"/>
    <path id="Tracé_11174" data-name="Tracé 11174" d="M95.684-389.732c0,.7.021,1.409-.005,2.112a1.314,1.314,0,0,1-1.491,1.433,1.229,1.229,0,0,1-1.294-1.258c-.047-1.508-.025-3.017-.02-4.526,0-.459.366-.2.563-.245.234-.055.408-.011.4.32-.018,1.106-.007,2.213-.007,3.32,0,.235,0,.469,0,.7,0,.342-.024.747.437.761s.455-.394.455-.737c0-1.291,0-2.582.005-3.873,0-.164-.112-.42.122-.479a1.774,1.774,0,0,1,.747,0c.157.03.085.23.086.354.006.7,0,1.408,0,2.112Z" transform="translate(367.77 7994.373)" fill="#16005f"/>
    <path id="Tracé_11175" data-name="Tracé 11175" d="M81.921-372.751c0-.853.012-1.707-.007-2.56-.007-.308.088-.416.4-.395.367.024.737-.012,1.1.011a1.191,1.191,0,0,1,1.234,1.146,19.94,19.94,0,0,1,0,3.657,1.118,1.118,0,0,1-1.111,1.089c-.448.042-.9.007-1.354.026-.3.013-.259-.181-.259-.363Zm.922,0c0,.551.035,1.1-.011,1.652-.039.457.215.443.51.4.348-.046.4-.324.4-.6.009-.934,0-1.869,0-2.8a.749.749,0,0,0-.132-.474.615.615,0,0,0-.625-.233c-.274.052-.134.3-.139.452C82.831-373.817,82.843-373.282,82.843-372.748Z" transform="translate(373.168 7986.221)" fill="#16005f"/>
    <path id="Tracé_11176" data-name="Tracé 11176" d="M178.65-389.348c0,.569.023,1.14-.005,1.708a1.272,1.272,0,0,1-1.3,1.364c-.9.025-1.429-.372-1.476-1.272-.063-1.219-.058-2.446,0-3.666a1.26,1.26,0,0,1,1.44-1.216,1.264,1.264,0,0,1,1.333,1.274c.034.6.007,1.2.007,1.808Zm-.928.045c0-.551.014-1.1-.006-1.653-.011-.308-.076-.637-.485-.627-.386.009-.427.325-.429.616-.01,1.069-.014,2.137,0,3.205,0,.3.034.654.449.651.438,0,.461-.372.472-.69C177.735-388.3,177.723-388.8,177.722-389.3Z" transform="translate(326.865 7994.463)" fill="#16005f"/>
    <path id="Tracé_11177" data-name="Tracé 11177" d="M74.78-372.9c0-.569-.014-1.139,0-1.707a1.282,1.282,0,0,1,1.177-1.328c.873-.081,1.482.285,1.57,1.1a17.912,17.912,0,0,1,0,3.9c-.094.845-.668,1.209-1.539,1.139a1.256,1.256,0,0,1-1.2-1.349c-.024-.585,0-1.171,0-1.757Zm1.842.038q0-.83,0-1.659c0-.3-.087-.564-.422-.577-.363-.015-.479.256-.48.574,0,1.107-.006,2.213,0,3.319,0,.308.095.59.474.575.348-.013.422-.284.425-.572C76.626-371.75,76.621-372.3,76.622-372.857Z" transform="translate(376.689 7986.334)" fill="#16005f"/>
    <path id="Tracé_11178" data-name="Tracé 11178" d="M189.967-373.17c0,.7.022,1.407-.006,2.109a1.279,1.279,0,0,1-1.282,1.382,1.256,1.256,0,0,1-1.485-1.269c-.067-1.5-.044-3.013-.02-4.52.007-.436.407-.189.627-.239.262-.06.342.082.339.339-.01,1.239,0,2.479,0,3.717,0,.151,0,.3,0,.452-.008.318.073.592.447.593s.454-.3.456-.6c.008-1.34.019-2.68-.006-4.019-.008-.4.105-.5.5-.505s.466.151.454.5c-.023.686-.007,1.373-.007,2.06Z" transform="translate(321.281 7986.23)" fill="#16005f"/>
    <path id="Tracé_11179" data-name="Tracé 11179" d="M170.608-354.072q-4.6,0-9.2,0c-.239,0-.483.042-.446-.34.019-.19.078-.277.27-.266.083.006.167,0,.251,0q9.175,0,18.35.006c.161,0,.4-.121.475.136.108.384-.081.471-.45.47-2.949-.014-5.9-.008-8.848-.008Z" transform="translate(334.195 7975.861)" fill="#16005f"/>
    <path id="Tracé_11180" data-name="Tracé 11180" d="M60.418-354.071H51.224c-.233,0-.486.053-.44-.337.022-.182.059-.286.261-.268.083.007.168,0,.251,0q9.169,0,18.339.006c.161,0,.4-.12.473.137.106.377-.071.471-.445.47-3-.015-6-.009-8.993-.009Z" transform="translate(388.52 7975.859)" fill="#16005f"/>
    <path id="Tracé_11181" data-name="Tracé 11181" d="M183.138-389.394c0-.57-.011-1.14,0-1.71a1.28,1.28,0,0,1,1.387-1.326,1.215,1.215,0,0,1,1.342,1.292c.005.117-.013.237,0,.351.051.348-.08.462-.437.454-.331-.007-.515-.067-.457-.441a1.461,1.461,0,0,0-.006-.3c-.016-.281-.122-.5-.436-.51a.439.439,0,0,0-.46.491q-.019,1.76.005,3.519a.429.429,0,0,0,.479.469c.284-.019.395-.225.408-.485s.009-.5.014-.754c0-.146-.012-.275-.208-.26-.484.036-.3-.329-.321-.555-.026-.355.26-.228.427-.231.992-.022.992-.017.992.977,0,.554.005,1.107,0,1.66,0,.119.077.294-.1.343-.136.036-.311.072-.395-.111s-.152-.127-.285-.026a1.154,1.154,0,0,1-1.92-.887c-.055-.649-.01-1.306-.01-1.96Z" transform="translate(323.262 7994.463)" fill="#16005f"/>
    <path id="Tracé_11182" data-name="Tracé 11182" d="M150.87-375.7c.594-.189.672.15.741.61.243,1.637.53,3.268.787,4.9.018.116.2.4-.115.357-.271-.034-.694.293-.808-.253a2.23,2.23,0,0,1-.075-.5c.012-.443-.193-.574-.617-.537-.267.023-.4.083-.4.369a2.831,2.831,0,0,1-.073.445.582.582,0,0,1-.833.487c-.251-.08-.105-.254-.087-.37.244-1.552.5-3.1.755-4.654.016-.1.041-.2.047-.3C150.216-375.574,150.329-375.914,150.87-375.7Zm.063,1.571-.1-.012c-.083.634-.162,1.268-.252,1.9-.037.259.086.3.309.305.249.005.321-.085.286-.323C151.092-372.877,151.016-373.5,150.933-374.125Z" transform="translate(339.93 7986.248)" fill="#16005f"/>
    <path id="Tracé_11183" data-name="Tracé 11183" d="M174.8-375.725c.508-.125.646.111.714.562.25,1.669.542,3.333.812,5,.023.139.135.393-.164.347-.261-.041-.627.227-.775-.2a1.9,1.9,0,0,1-.088-.593c0-.371-.143-.5-.539-.507-.418-.009-.462.214-.5.509-.012.1-.018.2-.033.3a.608.608,0,0,1-.879.5c-.169-.07-.1-.192-.083-.293.292-1.782.6-3.561.88-5.344C174.231-375.951,174.618-375.6,174.8-375.725Zm.034,1.49-.067.009c-.09.658-.17,1.317-.274,1.972-.039.243.019.328.271.326s.363-.033.316-.332C174.981-372.915,174.918-373.577,174.838-374.236Z" transform="translate(328.139 7986.244)" fill="#16005f"/>
    <path id="Tracé_11184" data-name="Tracé 11184" d="M111.392-375.7c.6-.193.682.141.751.607.241,1.637.528,3.268.787,4.9.02.123.191.4-.119.357-.266-.033-.657.273-.8-.212a1.71,1.71,0,0,1-.084-.543c.021-.462-.212-.554-.621-.529-.278.017-.389.105-.4.377-.011.216-.077.429-.09.645s-.1.289-.312.283c-.787-.024-.665.087-.555-.624.241-1.57.516-3.135.766-4.7C110.781-375.557,110.84-375.947,111.392-375.7Zm.074,1.557-.1,0c-.086.663-.178,1.325-.257,1.989-.033.283.194.2.343.214.185.019.284-.049.258-.252C111.63-372.845,111.548-373.494,111.466-374.143Z" transform="translate(359.387 7986.252)" fill="#16005f"/>
    <path id="Tracé_11185" data-name="Tracé 11185" d="M143.077-372.764c0-.664-.014-1.2,0-1.736a1.318,1.318,0,0,1,1.454-1.424,1.3,1.3,0,0,1,1.359,1.46c.01.658.009.634-.589.647-.338.007-.383-.137-.38-.419,0-.354.1-.845-.448-.834s-.43.5-.434.855c-.011.938-.006,1.877,0,2.816a2.065,2.065,0,0,0,.048.5.378.378,0,0,0,.42.284.362.362,0,0,0,.374-.278,2.358,2.358,0,0,0,.046-.5c.008-.652.1-.73.755-.631.139.021.216.054.209.207a4.08,4.08,0,0,1-.08,1.1,1.269,1.269,0,0,1-1.363.952,1.205,1.205,0,0,1-1.3-1.019A11.167,11.167,0,0,1,143.077-372.764Z" transform="translate(343.016 7986.326)" fill="#16005f"/>
    <path id="Tracé_11186" data-name="Tracé 11186" d="M71.985-386.245a1.461,1.461,0,0,1-1.478-1.354c-.032-.26.086-.366.293-.341s.5-.286.608.15a1.648,1.648,0,0,0,.1.335.481.481,0,0,0,.58.283.486.486,0,0,0,.411-.5,1.2,1.2,0,0,0-.384-.846c-.361-.417-.754-.809-1.112-1.229a1.721,1.721,0,0,1-.41-1.451,1.434,1.434,0,0,1,1.352-1.2,1.332,1.332,0,0,1,1.373,1.147c.034.159.133.368-.151.36-.245-.007-.577.312-.725-.095-.122-.336-.225-.622-.648-.486-.3.1-.373.513-.163.913a5.474,5.474,0,0,0,1.07,1.257,2.083,2.083,0,0,1,.706,1.747A1.352,1.352,0,0,1,71.985-386.245Z" transform="translate(378.797 7994.447)" fill="#16005f"/>
    <path id="Tracé_11187" data-name="Tracé 11187" d="M105.139-369.757a1.416,1.416,0,0,1-1.431-1.336c-.03-.254.067-.364.281-.355s.512-.244.621.166a1.859,1.859,0,0,0,.1.334.475.475,0,0,0,.586.267.482.482,0,0,0,.4-.509,1.26,1.26,0,0,0-.4-.845c-.355-.4-.74-.777-1.083-1.188a1.7,1.7,0,0,1-.37-1.688,1.4,1.4,0,0,1,1.466-.983,1.4,1.4,0,0,1,1.227,1.21c.027.176.02.312-.2.3s-.5.286-.7-.073a1.371,1.371,0,0,1-.072-.24.391.391,0,0,0-.455-.3.436.436,0,0,0-.4.442,1.013,1.013,0,0,0,.288.78c.35.405.721.792,1.082,1.188a1.937,1.937,0,0,1,.532,1.47A1.371,1.371,0,0,1,105.139-369.757Z" transform="translate(362.426 7986.313)" fill="#16005f"/>
    <path id="Tracé_11188" data-name="Tracé 11188" d="M117.079-389.282c0-.854.01-1.708-.006-2.563-.006-.279.066-.381.359-.37.586.022,1.173.025,1.758,0,.363-.016.315.208.3.42s.123.516-.294.477a1.474,1.474,0,0,0-.151,0c-1.016.01-.992.011-1.015,1.033-.01.429.157.516.524.48.285-.028.553-.06.537.406-.013.372-.1.534-.48.469-.46-.079-.65.11-.57.57a.333.333,0,0,1,0,.05c0,1.088,0,1.11,1.078,1.106.389,0,.386.184.378.457-.008.255.046.5-.368.469a15.055,15.055,0,0,0-1.657,0c-.3.013-.408-.072-.4-.389C117.093-387.54,117.079-388.411,117.079-389.282Z" transform="translate(355.836 7994.359)" fill="#16005f"/>
    <path id="Tracé_11189" data-name="Tracé 11189" d="M51.023-372.771c0-.854.01-1.708-.005-2.562-.005-.282.08-.384.369-.374.568.019,1.139.026,1.707,0,.389-.019.323.223.33.453.008.249.023.492-.348.428a.276.276,0,0,0-.05,0c-1.141.025-1.212.117-1.057,1.282.058.44.39.233.582.229.358-.008.484.069.486.463,0,.412-.16.5-.5.441-.46-.077-.648.107-.568.567a.271.271,0,0,1,0,.05c0,1.088,0,1.113,1.07,1.1.435-.006.372.227.388.5.019.309-.049.451-.4.429a13.739,13.739,0,0,0-1.556,0c-.34.017-.467-.069-.456-.436C51.042-371.062,51.023-371.917,51.023-372.771Z" transform="translate(388.406 7986.219)" fill="#16005f"/>
    <path id="Tracé_11190" data-name="Tracé 11190" d="M88.929-372.754c0-.838.018-1.676-.009-2.513-.011-.363.112-.46.456-.443a15.45,15.45,0,0,0,1.607,0c.356-.02.37.162.365.428s.014.526-.381.453a.166.166,0,0,0-.05,0c-.326.038-.824-.159-.943.088a2.587,2.587,0,0,0-.06,1.23c.028.389.371.2.552.193.377-.022.48.094.475.472-.006.358-.113.5-.457.43-.5-.094-.652.126-.584.6.051.358-.15.82.086,1.06.216.22.671.081,1.015.06.428-.026.336.249.344.486s.038.459-.342.438c-.568-.033-1.139-.022-1.708,0-.282.01-.377-.075-.372-.365C88.94-371.012,88.929-371.883,88.929-372.754Z" transform="translate(369.715 7986.219)" fill="#16005f"/>
    <path id="Tracé_11191" data-name="Tracé 11191" d="M194.447-372.737c0-.855.01-1.71-.006-2.565-.005-.295.065-.42.387-.406.552.025,1.107.027,1.659,0,.371-.019.35.195.35.443s.021.493-.349.437a.271.271,0,0,0-.05,0c-1.076.028-1.05.028-1.081,1.059-.013.431.154.493.514.475.244-.013.581-.155.575.357,0,.405-.1.6-.524.524-.473-.088-.609.125-.559.57.041.362-.106.835.074,1.069.2.252.69.1,1.049.079.425-.02.339.248.35.489s.015.454-.352.435c-.568-.03-1.14-.022-1.708,0-.274.009-.337-.095-.334-.348C194.454-370.994,194.447-371.866,194.447-372.737Z" transform="translate(317.688 7986.219)" fill="#16005f"/>
    <path id="Tracé_11192" data-name="Tracé 11192" d="M195.651-392.206h.654c.544,0,.611.091.532.65-.023.162-.074.249-.245.239a1.338,1.338,0,0,0-.2,0c-.327.032-.83-.156-.945.079a2.478,2.478,0,0,0-.064,1.228c.033.373.372.192.562.189.343-.005.516.044.5.457-.011.366-.138.492-.471.431-.524-.1-.636.131-.618.625.038,1.087.012,1.107,1.08,1.105.366,0,.4.149.405.446s-.021.505-.422.48c-.551-.036-1.106-.018-1.659-.005-.243.006-.318-.083-.317-.32.007-1.761.01-3.522,0-5.283,0-.283.11-.339.355-.325C195.08-392.193,195.366-392.206,195.651-392.206Z" transform="translate(317.688 7994.355)" fill="#16005f"/>
    <path id="Tracé_11193" data-name="Tracé 11193" d="M87.22-388.836c0-.671-.021-1.342.008-2.012.016-.37-.083-.508-.47-.48a.518.518,0,0,1-.478-.781c.072-.143.2-.1.305-.1.738,0,1.476.017,2.213-.01.41-.015.3.25.31.462.012.238.039.5-.338.433-.528-.1-.629.136-.616.625.034,1.324-.007,2.649.023,3.973.01.428-.184.436-.509.445-.345.01-.47-.085-.456-.446C87.239-387.426,87.22-388.132,87.22-388.836Z" transform="translate(371.047 7994.357)" fill="#16005f"/>
    <path id="Tracé_11194" data-name="Tracé 11194" d="M100.33-388.832c0-.685-.02-1.372.008-2.057.015-.359-.106-.492-.449-.431-.408.073-.487-.113-.5-.493-.01-.412.189-.408.484-.4.669.014,1.339.028,2.006,0,.376-.019.351.187.344.432s.062.549-.357.465c-.558-.114-.611.181-.6.64.025,1.321-.01,2.642.02,3.963.01.431-.193.43-.512.441-.345.011-.467-.086-.453-.446C100.349-387.427,100.33-388.13,100.33-388.832Z" transform="translate(364.551 7994.359)" fill="#16005f"/>
    <path id="Tracé_11195" data-name="Tracé 11195" d="M77.668-388.817c0-.685-.018-1.372.008-2.057.013-.342-.071-.476-.437-.453a.513.513,0,0,1-.485-.774c.069-.151.193-.1.3-.1.736,0,1.472.015,2.206-.01.359-.012.32.2.3.417s.128.478-.289.489c-.657.016-.656.041-.656.716,0,1.288-.018,2.576.01,3.863.009.411-.157.456-.5.454-.325,0-.482-.056-.466-.434C77.69-387.411,77.668-388.115,77.668-388.817Z" transform="translate(375.744 7994.357)" fill="#16005f"/>
    <path id="Tracé_11196" data-name="Tracé 11196" d="M57-372.332c0-.686-.019-1.373.008-2.058.014-.349-.085-.505-.44-.436-.469.091-.57-.131-.541-.554.019-.278.128-.329.37-.324.7.011,1.406.022,2.108,0,.35-.013.371.159.368.427s.008.528-.382.453c-.522-.1-.589.162-.579.613.029,1.288.008,2.577.011,3.865,0,.315.068.582-.45.6-.565.015-.476-.29-.474-.618C57-371.027,57-371.68,57-372.332Z" transform="translate(385.938 7986.219)" fill="#16005f"/>
    <path id="Tracé_11197" data-name="Tracé 11197" d="M103.621-356.074a6.361,6.361,0,0,1-.007,1.453.963.963,0,0,1-1.014.851.935.935,0,0,1-1-.924c-.037-.9-.036-1.808,0-2.711a.891.891,0,0,1,.952-.9.892.892,0,0,1,1.059.824A12.312,12.312,0,0,1,103.621-356.074Zm-.68.042h-.009c0-.418.006-.835,0-1.253,0-.194-.06-.378-.3-.383-.265-.007-.339.179-.341.4q-.008,1.2,0,2.406c0,.211.043.423.308.434.3.012.338-.229.345-.451C102.95-355.263,102.941-355.648,102.941-356.032Z" transform="translate(363.473 7977.637)" fill="#16005f"/>
    <path id="Tracé_11198" data-name="Tracé 11198" d="M110.422-356c0-.619.007-1.238,0-1.857,0-.233.069-.347.314-.323.1.01.2,0,.3,0,.478.021,1.027-.07,1.272.48a1.658,1.658,0,0,1-.109,1.716.548.548,0,0,0-.069.512c.105.421.215.842.31,1.265.031.139.185.363-.107.38-.2.011-.487.161-.564-.213-.088-.425-.189-.848-.289-1.269-.029-.123-.03-.3-.208-.292-.236.011-.156.217-.16.349-.01.384-.017.77,0,1.153.012.269-.128.293-.34.291s-.355-.017-.35-.287C110.43-354.726,110.422-355.362,110.422-356Zm.648-.9c.136.195-.195.591.287.6.417.01.4-.342.4-.607s-.024-.612-.419-.6C110.859-357.489,111.218-357.088,111.07-356.9Z" transform="translate(359.115 7977.576)" fill="#16005f"/>
    <path id="Tracé_11199" data-name="Tracé 11199" d="M116.493-372.283c0-.687-.018-1.375.008-2.062.014-.358-.065-.557-.461-.477-.551.111-.547-.23-.525-.615.011-.2.087-.263.275-.261.754,0,1.509.011,2.263,0,.374-.007.275.252.281.449s.062.486-.3.424c-.555-.1-.645.162-.632.657.034,1.306,0,2.615.019,3.922.006.353-.054.489-.454.49s-.5-.136-.484-.514C116.514-370.941,116.493-371.613,116.493-372.283Z" transform="translate(356.605 7986.215)" fill="#16005f"/>
    <path id="Tracé_11200" data-name="Tracé 11200" d="M121.149-355.964c-.02.417-.023.836-.065,1.251a.87.87,0,0,1-.891.9c-1.131.128-1.131.128-1.131-.994,0-.988.016-1.975-.009-2.962-.009-.346.112-.413.427-.415,1.384-.01,1.649.238,1.651,1.618v.6Zm-.7.011c-.022-.385-.033-.8-.074-1.216-.024-.243-.228-.324-.438-.323-.28,0-.176.236-.178.376-.01.751-.008,1.5,0,2.252,0,.164-.079.391.234.382.233-.007.386-.083.4-.34C120.4-355.188,120.424-355.554,120.446-355.953Z" transform="translate(354.857 7977.58)" fill="#16005f"/>
    <path id="Tracé_11201" data-name="Tracé 11201" d="M93.581-353.812c-.509.161-.57-.159-.558-.647.028-1.1.023-2.207,0-3.31-.007-.342.108-.453.427-.414.116.014.234,0,.351,0a1.165,1.165,0,0,1,.994,1.923c-.081.132-.167.2-.018.366a1.417,1.417,0,0,1,.163,1.6C94.7-353.751,94.152-353.816,93.581-353.812Zm.088-1.284c.131.2-.19.6.291.6.409.007.406-.318.408-.6s-.039-.61-.424-.6C93.464-355.689,93.812-355.284,93.669-355.1Zm0-1.882c.13.192-.181.567.238.6.35.028.418-.284.424-.561s-.059-.573-.412-.571C93.509-357.506,93.79-357.15,93.671-356.977Z" transform="translate(367.691 7977.582)" fill="#16005f"/>
    <path id="Tracé_11202" data-name="Tracé 11202" d="M95.941-373.187c0,.72.013,1.441-.006,2.162-.008.29.089.389.37.36.183-.019.371.017.552-.008.39-.053.521.084.507.489-.012.331-.1.428-.426.412-.535-.026-1.072-.017-1.608,0-.24.007-.316-.073-.315-.314.008-1.76.014-3.52,0-5.279,0-.437.276-.314.5-.333.256-.021.446-.013.432.351C95.921-374.63,95.941-373.908,95.941-373.187Z" transform="translate(366.709 7986.219)" fill="#16005f"/>
    <path id="Tracé_11203" data-name="Tracé 11203" d="M51.022-389.3c0-.821.022-1.642-.009-2.462-.015-.383.1-.464.475-.475.415-.013.451.156.447.5-.016,1.357.007,2.713-.015,4.069-.007.384.082.567.492.5a2.531,2.531,0,0,1,.4,0c.5,0,.66.228.524.709-.044.156-.14.164-.262.164-.586,0-1.173-.012-1.758.005-.316.009-.3-.182-.3-.392C51.024-387.554,51.022-388.425,51.022-389.3Z" transform="translate(388.404 7994.367)" fill="#16005f"/>
    <path id="Tracé_11204" data-name="Tracé 11204" d="M170.231-389.261c0-.854.02-1.709-.01-2.563-.013-.374.158-.39.446-.392.3,0,.488.008.48.413-.027,1.39,0,2.781-.019,4.171-.005.361.07.538.463.476.147-.023.3.015.451-.008.438-.068.543.133.513.535-.019.254-.08.356-.348.347-.519-.017-1.039-.022-1.557,0-.324.015-.436-.079-.427-.418C170.247-387.552,170.231-388.406,170.231-389.261Z" transform="translate(329.629 7994.357)" fill="#16005f"/>
    <path id="Tracé_11205" data-name="Tracé 11205" d="M144.1-356.355c0-.469.011-.939,0-1.408-.009-.274.024-.429.368-.431.373,0,.344.207.343.452,0,.821,0,1.642,0,2.463,0,.1,0,.2,0,.3,0,.266.022.56.354.551.3-.008.318-.289.318-.536,0-.955.011-1.911-.007-2.866-.006-.3.115-.361.383-.362s.335.113.332.362c-.011.989.007,1.978-.009,2.967-.012.736-.417,1.156-1.055,1.145s-1.006-.433-1.019-1.18C144.1-355.384,144.1-355.87,144.1-356.355Z" transform="translate(342.512 7977.584)" fill="#16005f"/>
    <path id="Tracé_11206" data-name="Tracé 11206" d="M137.284-353.824c-.356.087-.35-.186-.39-.416s.025-.5-.375-.522c-.443-.024-.363.3-.421.527-.05.2,0,.432-.347.427-.306-.006-.411-.057-.349-.4.215-1.186.4-2.378.589-3.568.045-.28.125-.448.469-.424.3.021.52.006.576.41.169,1.21.373,2.416.591,3.619C137.687-353.837,137.568-353.781,137.284-353.824ZM136.542-357a6,6,0,0,0-.234,1.257c-.024.107-.085.248.036.318a.4.4,0,0,0,.291,0c.17-.055.068-.2.057-.3C136.65-356.127,136.6-356.54,136.542-357Z" transform="translate(346.807 7977.586)" fill="#16005f"/>
    <path id="Tracé_11207" data-name="Tracé 11207" d="M83.424-389.276c0-.852.025-1.705-.01-2.556-.019-.455.256-.362.511-.376.274-.014.461-.009.455.38q-.034,2.581,0,5.163c.006.438-.242.373-.509.384-.286.012-.466-.014-.455-.389C83.442-387.538,83.424-388.407,83.424-389.276Z" transform="translate(372.428 7994.355)" fill="#16005f"/>
    <path id="Tracé_11208" data-name="Tracé 11208" d="M121.874-372.744c0-.869.018-1.739-.008-2.608-.012-.421.249-.349.491-.345s.5-.089.5.339q-.027,2.633,0,5.266c0,.4-.249.323-.464.308s-.53.153-.521-.3C121.886-370.971,121.874-371.858,121.874-372.744Z" transform="translate(353.469 7986.217)" fill="#16005f"/>
    <path id="Tracé_11209" data-name="Tracé 11209" d="M59.213-389.273c0-.855.024-1.711-.01-2.565-.018-.462.267-.359.52-.368s.47-.045.463.365q-.039,2.591,0,5.182c.005.391-.188.39-.46.376-.256-.013-.537.081-.521-.374C59.235-387.528,59.213-388.4,59.213-389.273Z" transform="translate(384.365 7994.355)" fill="#16005f"/>
    <path id="Tracé_11210" data-name="Tracé 11210" d="M153.537-355.211c-.147.435-.251.766-.373,1.091-.043.113-.046.285-.234.28-.165,0-.371.035-.484-.047-.137-.1.006-.289.069-.405a3.43,3.43,0,0,0,0-3.507c-.051-.094-.284-.326.029-.383.195-.036.484-.154.6.176.1.3.2.6.314.939a1.354,1.354,0,0,0,.342-.768c.085-.348.293-.4.589-.368.165.016.268.047.175.239-.022.045-.027.1-.052.141a3.4,3.4,0,0,0,.007,3.5c.064.121.331.372,0,.47-.247.073-.57.115-.649-.318A8.908,8.908,0,0,0,153.537-355.211Z" transform="translate(338.426 7977.602)" fill="#16005f"/>
    <path id="Tracé_11211" data-name="Tracé 11211" d="M127.884-355.976c0-.62.01-1.239,0-1.858-.006-.259.078-.361.344-.349a10.55,10.55,0,0,0,1.1,0c.281-.016.332.107.332.355s-.064.347-.31.311a.609.609,0,0,0-.1,0c-.662.011-.851.284-.683.942.059.234.224.153.353.16.231.012.456-.05.444.338-.011.331-.171.352-.409.326-.31-.033-.43.1-.388.4a1.146,1.146,0,0,1,0,.151c0,.687,0,.705.674.689.323-.008.448.075.418.413-.018.214-.081.293-.3.286-.385-.013-.771-.019-1.154,0-.287.016-.332-.124-.328-.363C127.891-354.771,127.884-355.373,127.884-355.976Z" transform="translate(350.504 7977.58)" fill="#16005f"/>
    <path id="Tracé_11212" data-name="Tracé 11212" d="M171.367-372.7c0,.855-.024,1.711.01,2.566.017.43-.24.348-.481.35s-.483.071-.477-.354q.038-2.591,0-5.182c-.006-.434.232-.379.506-.389.293-.012.462.024.451.394C171.349-374.439,171.367-373.567,171.367-372.7Z" transform="translate(329.531 7986.219)" fill="#16005f"/>
    <path id="Tracé_11213" data-name="Tracé 11213" d="M101.51-372.746c0,.872-.024,1.745.01,2.616.017.43-.24.349-.481.35s-.484.071-.478-.354q.038-2.59,0-5.182c-.006-.434.231-.38.506-.39.291-.011.462.023.451.394C101.492-374.457,101.51-373.6,101.51-372.746Z" transform="translate(363.977 7986.219)" fill="#16005f"/>
    <path id="Tracé_11214" data-name="Tracé 11214" d="M191.413-389.264c0,.872-.021,1.744.009,2.616.014.411-.223.363-.478.363s-.483.048-.478-.363q.032-2.616,0-5.232c-.005-.446.28-.314.5-.324s.465-.074.452.324C191.393-391.009,191.412-390.137,191.413-389.264Z" transform="translate(319.648 7994.357)" fill="#16005f"/>
    <path id="Tracé_11215" data-name="Tracé 11215" d="M190.573-546.336c1.284,0,2.568,0,3.852-.018.288,0,.377.093.366.374-.022.533-.013,1.067-.017,1.6a1.381,1.381,0,0,1-.278-.093,24.981,24.981,0,0,0-3.336-1.562C190.959-546.117,190.686-546.078,190.573-546.336Z" transform="translate(319.596 8070.355)" fill="#16005f"/>
    <path id="Tracé_11216" data-name="Tracé 11216" d="M56.268-391.7a2.435,2.435,0,0,1-.39,1.326c-.074.188-.239.18-.378.132-.177-.061-.066-.225-.022-.291.271-.407-.063-.752-.086-1.126-.017-.28-.107-.587.4-.577C56.236-392.228,56.355-392.082,56.268-391.7Z" transform="translate(386.252 7994.369)" fill="#16005f"/>
    <path id="Tracé_11217" data-name="Tracé 11217" d="M91.936-378.021c-.424.331-.513.954-1.184.9-.2-.018-.247-.059-.175-.271C90.814-378.091,90.909-378.149,91.936-378.021Z" transform="translate(368.912 7987.387)" fill="#16005f"/>
    <path id="Tracé_11218" data-name="Tracé 11218" d="M92.691-420.448c.157.034.33.048.353.3-.2.009-.293-.128-.389-.253C92.669-420.419,92.68-420.433,92.691-420.448Z" transform="translate(367.873 8008.277)" fill="#9f9f9f"/>
    <path id="Tracé_11219" data-name="Tracé 11219" d="M71.753-432.341c-.133-.031-.252-.078-.274-.272.187-.016.262.086.3.239Z" transform="translate(378.314 8014.275)" fill="#9f9f9f"/>
    <path id="Tracé_11220" data-name="Tracé 11220" d="M99.891-533.471a.765.765,0,0,1-.495,0C99.536-533.561,99.669-533.519,99.891-533.471Z" transform="translate(364.549 8064.029)" fill="#9f9f9f"/>
    <path id="Tracé_11221" data-name="Tracé 11221" d="M94.813-418.779a.25.25,0,0,1-.23-.156c0-.012.037-.053.057-.054.119,0,.174.073.2.179Z" transform="translate(366.922 8007.559)" fill="#9f9f9f"/>
    <path id="Tracé_11222" data-name="Tracé 11222" d="M102.019-414.891c.091.024.205.01.237.133,0,.018-.027.066-.044.067-.115.01-.171-.076-.229-.156Z" transform="translate(363.273 8005.537)" fill="#9f9f9f"/>
    <path id="Tracé_11223" data-name="Tracé 11223" d="M95.063-418.634a.331.331,0,0,1,.289.216l-.006.006a.318.318,0,0,1-.309-.192Z" transform="translate(366.697 8007.385)" fill="#9f9f9f"/>
    <path id="Tracé_11224" data-name="Tracé 11224" d="M118.668-526.777l.317.025a.209.209,0,0,1-.314-.029Z" transform="translate(355.047 8060.705)" fill="#9f9f9f"/>
    <path id="Tracé_11225" data-name="Tracé 11225" d="M93.859-419.621c.08.019.156.043.155.146a.048.048,0,0,1-.033.032c-.1.008-.135-.061-.156-.143Z" transform="translate(367.297 8007.871)" fill="#9f9f9f"/>
    <path id="Tracé_11226" data-name="Tracé 11226" d="M72.616-431.7a.2.2,0,0,1-.209-.192l.02-.023a.207.207,0,0,1,.2.2Z" transform="translate(377.857 8013.93)" fill="#9f9f9f"/>
    <path id="Tracé_11227" data-name="Tracé 11227" d="M84.568-424.7c-.082-.013-.159-.033-.16-.138a.046.046,0,0,1,.033-.032c.1,0,.134.065.146.151Z" transform="translate(371.939 8010.459)" fill="#9f9f9f"/>
    <path id="Tracé_11228" data-name="Tracé 11228" d="M110.539-401.01l.092-.084.034.052-.131.027Z" transform="translate(359.059 7998.736)" fill="#9f9f9f"/>
    <path id="Tracé_11229" data-name="Tracé 11229" d="M110.414-400.938l-.1.078-.028-.052.128-.021Z" transform="translate(359.176 7998.658)" fill="#9f9f9f"/>
    <path id="Tracé_11230" data-name="Tracé 11230" d="M72.046-432.139l.189.114-.02.023a.212.212,0,0,1-.2-.105Z" transform="translate(378.049 8014.041)" fill="#9f9f9f"/>
    <path id="Tracé_11231" data-name="Tracé 11231" d="M84.743-424.575l.046.06-.065-.041Z" transform="translate(371.781 8010.313)" fill="#9f9f9f"/>
    <path id="Tracé_11232" data-name="Tracé 11232" d="M85.278-424.2l-.055-.05c.012,0,.029,0,.036,0a.135.135,0,0,1,.021.043Z" transform="translate(371.535 8010.152)" fill="#9f9f9f"/>
    <path id="Tracé_11233" data-name="Tracé 11233" d="M85.432-424.057l-.1-.1,0,0,.1.1Z" transform="translate(371.482 8010.107)" fill="#9f9f9f"/>
    <path id="Tracé_11234" data-name="Tracé 11234" d="M85.532-423.961l.053.049c-.012,0-.029,0-.035,0a.14.14,0,0,1-.02-.042Z" transform="translate(371.385 8010.01)" fill="#9f9f9f"/>
    <path id="Tracé_11235" data-name="Tracé 11235" d="M73.426-431.107a.149.149,0,0,1,.043.02c.007.006,0,.022.005.034l-.05-.052Z" transform="translate(377.355 8013.533)" fill="#9f9f9f"/>
    <path id="Tracé_11236" data-name="Tracé 11236" d="M73.369-431.148l-.055-.047c.012,0,.029,0,.036,0a.145.145,0,0,1,.022.042Z" transform="translate(377.408 8013.576)" fill="#9f9f9f"/>
    <path id="Tracé_11237" data-name="Tracé 11237" d="M72.834-431.517l.049.057-.063-.043Z" transform="translate(377.65 8013.736)" fill="#9f9f9f"/>
    <path id="Tracé_11238" data-name="Tracé 11238" d="M86.078-423.606l-.054-.042c.011,0,.026,0,.032,0a.142.142,0,0,1,.019.04Z" transform="translate(371.141 8009.855)" fill="#9f9f9f"/>
    <path id="Tracé_11239" data-name="Tracé 11239" d="M86.125-423.562a.162.162,0,0,1,.043.017c.007.006.005.022.007.033l-.048-.052Z" transform="translate(371.092 8009.814)" fill="#9f9f9f"/>
    <path id="Tracé_11240" data-name="Tracé 11240" d="M93.773-419.635c-.019-.02-.056-.053-.054-.057.044-.06.064-.01.088.022Z" transform="translate(367.346 8007.92)" fill="#9f9f9f"/>
    <path id="Tracé_11241" data-name="Tracé 11241" d="M95.852-418.01l.067.038c-.056.061-.057,0-.073-.032Z" transform="translate(366.299 8007.076)" fill="#9f9f9f"/>
    <path id="Tracé_11242" data-name="Tracé 11242" d="M96.391-417.651l-.056-.047c.012,0,.029,0,.036,0a.146.146,0,0,1,.022.042Z" transform="translate(366.059 8006.922)" fill="#9f9f9f"/>
    <path id="Tracé_11243" data-name="Tracé 11243" d="M96.447-417.609a.136.136,0,0,1,.042.02c.007.006,0,.022.006.034l-.05-.051Z" transform="translate(366.004 8006.877)" fill="#9f9f9f"/>
    <path id="Tracé_11244" data-name="Tracé 11244" d="M95.653-418.208l.1.1-.006.006-.1-.1Z" transform="translate(366.398 8007.174)" fill="#9f9f9f"/>
    <path id="Tracé_11245" data-name="Tracé 11245" d="M158.869-427.927c-.021.191-.158.2-.305.2l-.005-.005a.341.341,0,0,1,.3-.2Z" transform="translate(335.379 8011.969)" fill="#5c5c5c"/>
    <path id="Tracé_11246" data-name="Tracé 11246" d="M156.553-429.541a.21.21,0,0,1,.2-.2l.031.031a.215.215,0,0,1-.213.192Z" transform="translate(336.369 8012.859)" fill="#5c5c5c"/>
    <path id="Tracé_11247" data-name="Tracé 11247" d="M155.571-428.734c0-.133.082-.188.2-.2l.011.011c0,.131-.085.185-.2.2Z" transform="translate(336.854 8012.461)" fill="#5c5c5c"/>
    <path id="Tracé_11248" data-name="Tracé 11248" d="M155.055-428.323c0,.069-.02.129-.1.139-.016,0-.056-.037-.054-.053.01-.08.077-.09.142-.1Z" transform="translate(337.182 8012.166)" fill="#5c5c5c"/>
    <path id="Tracé_11249" data-name="Tracé 11249" d="M155.635-427.132c-.007.086-.037.151-.136.152-.012,0-.034-.02-.033-.03,0-.1.079-.12.158-.133Z" transform="translate(336.904 8011.578)" fill="#5c5c5c"/>
    <path id="Tracé_11250" data-name="Tracé 11250" d="M154.93-426.658c.02.017.057.037.055.049a.1.1,0,0,1-.049.069c-.055.021-.093,0-.074-.066C154.87-426.628,154.907-426.641,154.93-426.658Z" transform="translate(337.203 8011.34)" fill="#5c5c5c"/>
    <path id="Tracé_11251" data-name="Tracé 11251" d="M129.789-522.441a.191.191,0,0,1,.191.113l-.007.006a.2.2,0,0,1-.21-.093Z" transform="translate(349.576 8058.566)" fill="#5c5c5c"/>
    <path id="Tracé_11252" data-name="Tracé 11252" d="M130.383-522.015l.126.026-.031.052-.094-.079Z" transform="translate(349.27 8058.355)" fill="#5c5c5c"/>
    <path id="Tracé_11253" data-name="Tracé 11253" d="M156.772-431.789l.1-.087.036.058-.132.034Z" transform="translate(336.26 8013.912)" fill="#5c5c5c"/>
    <path id="Tracé_11254" data-name="Tracé 11254" d="M155.389-430.607a.173.173,0,0,1,.2-.1l0,0a.177.177,0,0,1-.2.1Z" transform="translate(336.943 8013.338)" fill="#5c5c5c"/>
    <path id="Tracé_11255" data-name="Tracé 11255" d="M156.179-429.234a.2.2,0,0,1,.19-.114l.021.024a.182.182,0,0,1-.206.094Z" transform="translate(336.553 8012.666)" fill="#5c5c5c"/>
    <path id="Tracé_11256" data-name="Tracé 11256" d="M155.184-428.437a.185.185,0,0,1,.2-.105l.012.013a.193.193,0,0,1-.2.1Z" transform="translate(337.043 8012.27)" fill="#5c5c5c"/>
    <path id="Tracé_11257" data-name="Tracé 11257" d="M158.17-427.335a.179.179,0,0,1-.2.1h0a.177.177,0,0,1,.2-.1Z" transform="translate(335.67 8011.676)" fill="#5c5c5c"/>
    <path id="Tracé_11258" data-name="Tracé 11258" d="M155.192-425.447a.189.189,0,0,1,.2-.1l-.006-.006a.192.192,0,0,1-.2.1Z" transform="translate(337.041 8010.795)" fill="#5c5c5c"/>
    <path id="Tracé_11259" data-name="Tracé 11259" d="M153.4-425.552a.189.189,0,0,1-.2.1l.006.006a.19.19,0,0,1,.2-.1Z" transform="translate(338.02 8010.795)" fill="#5c5c5c"/>
    <path id="Tracé_11260" data-name="Tracé 11260" d="M155.787-425.844a.193.193,0,0,1,.2-.1l-.006-.006c-.039.09-.116.1-.2.1Z" transform="translate(336.748 8010.99)" fill="#5c5c5c"/>
    <path id="Tracé_11261" data-name="Tracé 11261" d="M154-425.947a.182.182,0,0,1-.2.1l.006.006a.176.176,0,0,1,.2-.1Z" transform="translate(337.727 8010.988)" fill="#5c5c5c"/>
    <path id="Tracé_11262" data-name="Tracé 11262" d="M156.182-425.985l.046-.05c0,.01,0,.025-.01.029a.143.143,0,0,1-.043.014Z" transform="translate(336.555 8011.031)" fill="#5c5c5c"/>
    <path id="Tracé_11263" data-name="Tracé 11263" d="M154.2-426.04l.1-.1h0l-.1.1Z" transform="translate(337.529 8011.084)" fill="#5c5c5c"/>
    <path id="Tracé_11264" data-name="Tracé 11264" d="M154.4-426.187l.054-.046c0,.011,0,.027-.01.032a.156.156,0,0,1-.044.013Z" transform="translate(337.432 8011.131)" fill="#5c5c5c"/>
    <path id="Tracé_11265" data-name="Tracé 11265" d="M153.7-425.752l-.1.1.006.006.1-.1Z" transform="translate(337.826 8010.893)" fill="#5c5c5c"/>
    <path id="Tracé_11266" data-name="Tracé 11266" d="M157.44-426.844l.028-.008,0,.024Z" transform="translate(335.932 8011.436)" fill="#5c5c5c"/>
    <path id="Tracé_11267" data-name="Tracé 11267" d="M157.917-427.136l-.053.051c0-.012,0-.028.008-.034a.145.145,0,0,1,.046-.017Z" transform="translate(335.721 8011.576)" fill="#5c5c5c"/>
    <path id="Tracé_11268" data-name="Tracé 11268" d="M155.682-425.752l-.1.1.006.006.1-.1Z" transform="translate(336.846 8010.893)" fill="#5c5c5c"/>
    <path id="Tracé_11269" data-name="Tracé 11269" d="M153.161-425.355l-.041.05c0-.01,0-.023.008-.027a.15.15,0,0,1,.039-.017Z" transform="translate(338.061 8010.697)" fill="#5c5c5c"/>
    <path id="Tracé_11270" data-name="Tracé 11270" d="M158.365-427.434l.1-.1.005.005-.1.1Z" transform="translate(335.475 8011.771)" fill="#5c5c5c"/>
    <path id="Tracé_11271" data-name="Tracé 11271" d="M155.146-425.355l-.041.045c0-.009,0-.02.01-.024a.153.153,0,0,1,.037-.015Z" transform="translate(337.082 8010.697)" fill="#5c5c5c"/>
    <path id="Tracé_11272" data-name="Tracé 11272" d="M155.975-429.026l.1-.1,0,0-.1.1Z" transform="translate(336.652 8012.555)" fill="#5c5c5c"/>
    <path id="Tracé_11273" data-name="Tracé 11273" d="M156.954-429.789c.023-.031.041-.083.086-.023a.634.634,0,0,1-.055.053Z" transform="translate(336.168 8012.908)" fill="#5c5c5c"/>
    <path id="Tracé_11274" data-name="Tracé 11274" d="M155.347-430.516l-.037.052c0-.01,0-.023.006-.028a.134.134,0,0,1,.038-.018Z" transform="translate(336.98 8013.242)" fill="#5c5c5c"/>
    <path id="Tracé_11275" data-name="Tracé 11275" d="M155.786-430.8l.1-.1,0,0-.1.1Z" transform="translate(336.748 8013.434)" fill="#5c5c5c"/>
    <path id="Tracé_11276" data-name="Tracé 11276" d="M156.088-431.106l-.1.1,0,0,.1-.1Z" transform="translate(336.65 8013.539)" fill="#5c5c5c"/>
    <path id="Tracé_11277" data-name="Tracé 11277" d="M156.283-431.3l-.1.1-.01-.01.1-.1Z" transform="translate(336.555 8013.633)" fill="#5c5c5c"/>
    <path id="Tracé_11278" data-name="Tracé 11278" d="M156.485-431.5l-.1.1-.007-.007.1-.1Z" transform="translate(336.455 8013.732)" fill="#5c5c5c"/>
    <path id="Tracé_11279" data-name="Tracé 11279" d="M156.57-431.607l.1-.1.007.006-.1.1Z" transform="translate(336.359 8013.828)" fill="#5c5c5c"/>
    <path id="Tracé_11280" data-name="Tracé 11280" d="M130.185-522.218l.1.1h0l-.1-.1Z" transform="translate(349.371 8058.455)" fill="#5c5c5c"/>
    <path id="Tracé_11281" data-name="Tracé 11281" d="M129.7-522.465l-.061-.052c.049-.056.065-.008.087.026Z" transform="translate(349.637 8058.615)" fill="#5c5c5c"/>
  </g>
</svg>
