<svg xmlns="http://www.w3.org/2000/svg" xmlns:xlink="http://www.w3.org/1999/xlink" width="72.837" height="57.6" viewBox="0 0 72.837 57.6">
  <defs>
    <linearGradient id="linear-gradient" x1="0.22" y1="0.901" x2="0.634" y2="0.059" gradientUnits="objectBoundingBox">
      <stop offset="0" stop-color="#25eaff"/>
      <stop offset="0.109" stop-color="#24e5fb"/>
      <stop offset="0.239" stop-color="#23d6f1"/>
      <stop offset="0.379" stop-color="#22bee1"/>
      <stop offset="0.527" stop-color="#209cca"/>
      <stop offset="0.681" stop-color="#1d71ac"/>
      <stop offset="0.839" stop-color="#193d88"/>
      <stop offset="0.999" stop-color="#16005f"/>
    </linearGradient>
  </defs>
  <g id="Groupe_10766" data-name="Groupe 10766" transform="translate(-167.792 -238.081)">
    <g id="Groupe_10759" data-name="Groupe 10759" transform="translate(218.652 250.463)">
      <path id="Tracé_10045" data-name="Tracé 10045" d="M643.238,380.325l-1.982-4.338a10.749,10.749,0,1,0-8.935-19.554l-1.982-4.338a15.519,15.519,0,0,1,12.9,28.23Z" transform="translate(-630.338 -350.692)" fill="url(#linear-gradient)"/>
    </g>
    <g id="Groupe_10760" data-name="Groupe 10760" transform="translate(167.792 245.116)">
      <path id="Tracé_10046" data-name="Tracé 10046" d="M167.792,325.886v-15.8c0-4.652,3.622-8.024,8.648-8.024,5.214,0,8.992,3.653,8.992,8.648s-3.434,8.617-8.117,8.617a6.557,6.557,0,0,1-4.558-1.748v8.3Zm8.711-19.45a4.273,4.273,0,1,0,3.965,4.277A3.97,3.97,0,0,0,176.5,306.436Z" transform="translate(-167.792 -302.065)" fill="#16005f"/>
    </g>
    <g id="Groupe_10761" data-name="Groupe 10761" transform="translate(187.74 244.637)">
      <path id="Tracé_10047" data-name="Tracé 10047" d="M366.75,306.291a12.266,12.266,0,0,1-.156,1.967H354.449a3.851,3.851,0,0,0,3.746,2.966,3.594,3.594,0,0,0,3.4-1.842h4v1.811c-1.031,2.31-4.121,3.777-7.493,3.777-5.276,0-8.9-3.59-8.9-8.742,0-5.026,3.684-8.523,9.023-8.523A8.179,8.179,0,0,1,366.75,306.291Zm-12.551-.905h7.555a3.794,3.794,0,0,0-3.809-3.934C355.854,301.451,354.48,303.044,354.2,305.385Z" transform="translate(-349.204 -297.705)" fill="#16005f"/>
    </g>
    <g id="Groupe_10762" data-name="Groupe 10762" transform="translate(208.53 238.081)">
      <path id="Tracé_10048" data-name="Tracé 10048" d="M538.283,238.081h4.964v23.2h-4.964Z" transform="translate(-538.283 -238.081)" fill="#16005f"/>
    </g>
    <g id="Groupe_10763" data-name="Groupe 10763" transform="translate(167.792 271.86)">
      <path id="Tracé_10049" data-name="Tracé 10049" d="M167.792,569.1V553.3c0-4.652,3.622-8.024,8.648-8.024,5.214,0,8.992,3.653,8.992,8.648s-3.434,8.617-8.117,8.617a6.557,6.557,0,0,1-4.558-1.748v8.3Zm8.711-19.45a4.273,4.273,0,1,0,3.965,4.277A3.97,3.97,0,0,0,176.5,549.65Z" transform="translate(-167.792 -545.279)" fill="#16005f"/>
    </g>
    <g id="Groupe_10764" data-name="Groupe 10764" transform="translate(188.364 264.929)">
      <path id="Tracé_10050" data-name="Tracé 10050" d="M357.725,482.246a2.764,2.764,0,1,1-2.841,2.779A2.714,2.714,0,0,1,357.725,482.246Zm-2.466,7.555h4.964v16.016h-4.964Z" transform="translate(-354.884 -482.246)" fill="#16005f"/>
    </g>
    <g id="Groupe_10765" data-name="Groupe 10765" transform="translate(197.948 271.86)">
      <path id="Tracé_10051" data-name="Tracé 10051" d="M446.819,547.839a5.38,5.38,0,0,1,4.683-2.56,5.609,5.609,0,0,1,5.12,2.841,6.168,6.168,0,0,1,5.339-2.81c3.621,0,6.119,2.654,6.119,6.463v10.146h-4.964v-9.085a2.953,2.953,0,0,0-2.81-3.184,2.9,2.9,0,0,0-2.872,3.184v9.085h-4.964v-9.085c0-1.9-1.061-3.184-2.685-3.184-1.686,0-2.778,1.28-2.778,3.184v9.085h-4.964V545.9h4.777Z" transform="translate(-442.042 -545.279)" fill="#16005f"/>
    </g>
  </g>
</svg>
