<svg xmlns="http://www.w3.org/2000/svg" width="52.604" height="34.658" viewBox="0 0 52.604 34.658">
  <path id="Tracé_10991" data-name="Tracé 10991" d="M-1245.83,1100.148a5.878,5.878,0,0,1-1.984,2.181,3.254,3.254,0,0,1-3.972-.6c-.787-.684-1.48-1.826-2.349-1.974-.939-.159-1.467,1.243-2.247,1.885-1.652,1.361-3.731,1.075-5.172-.877-.494-.669-.829-.85-1.651-.593a3.387,3.387,0,0,1-3.885-1.81,1.313,1.313,0,0,0-1.5-.733,3.71,3.71,0,0,1-3.819-4.374.948.948,0,0,0-.508-1.166c-2.653-1.81-2.811-3.787-.559-6.15,1.533-1.609,1.532-1.608-.207-3.079-.949-.8-1.92-1.584-2.832-2.427a3.114,3.114,0,0,1-.286-4.641c1.553-1.812,3.151-3.587,4.765-5.345a4.347,4.347,0,0,1,5.031-1.135c.832.325,1.64.712,2.47,1.04a5.12,5.12,0,0,0,4.336-.192c2.7-1.363,5.4-2.035,8.2-.277.478.3.825-.024,1.219-.232a5.336,5.336,0,0,1,5.143-.055c1.066.533,2.153,1.023,3.219,1.556a3.825,3.825,0,0,0,3.966-.2c1.225-.759,2.435-1.545,3.681-2.267a3.5,3.5,0,0,1,4.792.872q2.025,2.487,3.95,5.053a3.723,3.723,0,0,1-.229,5.152q-3.014,3.409-6.106,6.748c-.5.538-.737.857-.079,1.544,1.826,1.906,1.374,4.425-1.007,5.689a1.646,1.646,0,0,0-1.071,1.5,3.842,3.842,0,0,1-3.507,3.31c-.5.049-.855.038-1.166.627-1.564,2.964-3.573,3.311-6.231,1.176A2.4,2.4,0,0,0-1245.83,1100.148Zm-7.382-28.821a4.566,4.566,0,0,0-4.339-.341c-1.1.447-2.189.96-3.326,1.3-2.264.673-4.3-.173-6.3-1.122a2.751,2.751,0,0,0-3.54.5c-1.538,1.694-3.048,3.413-4.582,5.11a1.55,1.55,0,0,0,.2,2.55c1.107.924,2.236,1.829,3.277,2.824.784.75,1.3.857,2.111-.051a3.082,3.082,0,0,1,4.172-.622c1.12.685,1.369,2.193,2.189,2.821.885.677,2.18.92,3.073,1.865s.131,2.486,1.017,3.159a5.871,5.871,0,0,1,2.313,2.6,1.455,1.455,0,0,0,1.16,1.1,3.678,3.678,0,0,1,2.878,4.368c-.056.473-.1.843.315,1.194.719.611,1.377,1.3,2.09,1.914.91.789,1.717.531,2.456-.3a1.5,1.5,0,0,0-.086-2.349c-.614-.581-1.271-1.119-1.854-1.729-.431-.45-1.432-.712-.485-1.689.863-.891,1.2-.047,1.639.35q2.44,2.2,4.821,4.456c.916.869,1.784,1.01,2.7.031.934-1,.669-1.838-.261-2.676-1.7-1.532-3.354-3.113-5.047-4.651-.49-.444-.816-.757-.2-1.424s.942-.332,1.409.1q2.888,2.7,5.813,5.362c1.15,1.047,1.911,1.047,2.792.076.931-1.028.575-1.855-.329-2.677q-3.146-2.861-6.24-5.779c-.37-.348-1.089-.592-.368-1.373.637-.69,1-.484,1.557.04,1.951,1.846,3.943,3.648,5.907,5.479a1.617,1.617,0,0,0,2.591-.036,1.622,1.622,0,0,0-.141-2.587,92.906,92.906,0,0,0-12.87-10.616,3.16,3.16,0,0,0-3.627-.129,16.111,16.111,0,0,1-1.679.966,3.7,3.7,0,0,1-4.8-1.845c-.916-1.6-.514-3.2,1.122-4.414C-1254.928,1072.532-1254.157,1072-1253.212,1071.327Zm4.579,4.783a4.884,4.884,0,0,1,3.1,1.037,73.88,73.88,0,0,1,10.208,8.2c.7.7,1.09.661,1.73-.081,1.915-2.219,3.9-4.381,5.882-6.536a2.173,2.173,0,0,0,.167-3.186q-1.856-2.332-3.672-4.7a1.912,1.912,0,0,0-2.855-.524c-1.089.692-2.2,1.353-3.285,2.049a5.64,5.64,0,0,1-5.931.338q-1.664-.831-3.353-1.612a3.26,3.26,0,0,0-3.277.141c-1.663,1.083-3.274,2.249-4.882,3.416a1.409,1.409,0,0,0-.294,2.2,1.883,1.883,0,0,0,2.827.607C-1251.122,1076.768-1250.014,1075.966-1248.633,1076.11Zm-20.148,19.767a1.219,1.219,0,0,0,.947-.386c2.036-2.1,4.083-4.2,6.069-6.351.7-.756.433-1.551-.268-2.229a1.512,1.512,0,0,0-2.358-.116c-1.989,2.011-3.939,4.062-5.885,6.116a1.357,1.357,0,0,0-.264,1.768A2.173,2.173,0,0,0-1268.781,1095.878Zm3.365-11.589a2.245,2.245,0,0,0-1.147-1.338,1.426,1.426,0,0,0-1.881.333c-1.379,1.424-2.731,2.874-4.115,4.293a1.584,1.584,0,0,0-.013,2.565,1.563,1.563,0,0,0,2.556-.075c1.321-1.41,2.665-2.8,4-4.192A1.824,1.824,0,0,0-1265.416,1084.288Zm6.9,8.8a1.89,1.89,0,0,0-1.066-1.837,1.369,1.369,0,0,0-1.79.153c-1.4,1.416-2.793,2.834-4.115,4.318a1.429,1.429,0,0,0,.248,2.12c.672.672,1.466,1.041,2.228.31,1.469-1.411,2.849-2.914,4.24-4.4A1.617,1.617,0,0,0-1258.514,1093.09Zm3.911,3.567a1.962,1.962,0,0,0-1.18-1.755,1.354,1.354,0,0,0-1.767.253c-.779.762-1.5,1.579-2.268,2.358a1.6,1.6,0,0,0,.017,2.576,1.6,1.6,0,0,0,2.579-.109q1.016-1.086,2.048-2.158A1.682,1.682,0,0,0-1254.6,1096.657Z" transform="translate(1277.7 -1068.104)" fill="#16005f"/>
</svg>
