<svg xmlns="http://www.w3.org/2000/svg" width="99.348" height="30.716" viewBox="0 0 99.348 30.716">
  <g id="Groupe_10973" data-name="Groupe 10973" transform="translate(-1393.36 -7559)">
    <path id="Tracé_11282" data-name="Tracé 11282" d="M85.843,140.377a3.008,3.008,0,0,0,.609-1.865,2.839,2.839,0,0,0-.868-2.071,2.8,2.8,0,0,0-2.082-.865H80.618a.658.658,0,0,0-.688.687v9.314a.665.665,0,0,0,.688.688h3.228a3.1,3.1,0,0,0,3.083-3.069v-.41a3.149,3.149,0,0,0-.5-1.713A3.055,3.055,0,0,0,85.843,140.377Zm-1.726-1.1a.992.992,0,0,1-.76.283H81.981v-1.932H83.5a.815.815,0,0,1,.636.251.828.828,0,0,1,.264.635A1.008,1.008,0,0,1,84.116,139.275Zm-2.136,2.333H83.7a1.2,1.2,0,0,1,1.178,1.178v.41a1.038,1.038,0,0,1-1.032,1.018H81.981v-2.607Z" transform="translate(1343.16 7443.266)" fill="#16005f"/>
    <path id="Tracé_11283" data-name="Tracé 11283" d="M103.273,135.245a3.613,3.613,0,0,0-3.612,3.612v3.8a3.611,3.611,0,0,0,7.223,0v-3.8a3.615,3.615,0,0,0-3.611-3.612Zm-1.562,3.611a1.561,1.561,0,1,1,3.123,0v3.8a1.422,1.422,0,0,1-.463,1.1,1.534,1.534,0,0,1-2.2-.006,1.43,1.43,0,0,1-.457-1.092v-3.8Z" transform="translate(1332.129 7443.451)" fill="#16005f"/>
    <path id="Tracé_11284" data-name="Tracé 11284" d="M145.1,135.575h-2.3a.658.658,0,0,0-.688.687v9.314a.665.665,0,0,0,.688.687h2.646a3.522,3.522,0,0,0,3.519-3.52v-3.32a3.862,3.862,0,0,0-3.863-3.85Zm.344,8.639h-1.283v-6.589h.939a1.684,1.684,0,0,1,1.271.529,1.724,1.724,0,0,1,.543,1.27v3.321a1.35,1.35,0,0,1-.437,1.032A1.378,1.378,0,0,1,145.445,144.214Z" transform="translate(1308.395 7443.266)" fill="#16005f"/>
    <path id="Tracé_11285" data-name="Tracé 11285" d="M168.048,144.214h-3.4v-2.619h2.831a.667.667,0,0,0,.675-.688v-.675a.652.652,0,0,0-.675-.688h-2.831v-1.919h3.308a.673.673,0,0,0,.688-.688v-.675a.665.665,0,0,0-.688-.687h-4.67a.658.658,0,0,0-.688.687v9.314a.666.666,0,0,0,.688.688h4.763a.665.665,0,0,0,.687-.688V144.9A.666.666,0,0,0,168.048,144.214Z" transform="translate(1296.939 7443.266)" fill="#16005f"/>
    <path id="Tracé_11286" data-name="Tracé 11286" d="M185.412,136.052a.669.669,0,0,0-.647-.477h-1.243a.668.668,0,0,0-.65.489l-2.826,9.241a.654.654,0,0,0-.056.272.665.665,0,0,0,.687.688h.7a.658.658,0,0,0,.655-.489l.835-2.713h2.549l.829,2.731.014.037a.675.675,0,0,0,.65.435h.7a.673.673,0,0,0,.688-.688.6.6,0,0,0-.051-.254Zm-.506,4.961h-1.517l.754-2.556Z" transform="translate(1287.215 7443.266)" fill="#16005f"/>
    <path id="Tracé_11287" data-name="Tracé 11287" d="M208.473,135.575H207.8a.665.665,0,0,0-.688.687v6.8a1.224,1.224,0,0,1-.384.94,1.311,1.311,0,0,1-1.887-.007,1.251,1.251,0,0,1-.389-.933v-6.8a.658.658,0,0,0-.687-.687h-.675a.665.665,0,0,0-.688.687v6.8a3.386,3.386,0,0,0,5.785,2.39,3.314,3.314,0,0,0,.975-2.39v-6.8A.658.658,0,0,0,208.473,135.575Z" transform="translate(1274.686 7443.266)" fill="#16005f"/>
    <path id="Tracé_11288" data-name="Tracé 11288" d="M226.316,140.871,228.7,136.5l.045-.125a.683.683,0,0,0-.123-.6.669.669,0,0,0-.539-.246H227.4a.639.639,0,0,0-.612.391l-1.593,2.9-1.586-2.888a.646.646,0,0,0-.619-.408H222.3a.67.67,0,0,0-.54.246.69.69,0,0,0-.116.618l.048.124,2.379,4.353-2.38,4.339-.037.091a.691.691,0,0,0,.092.63.672.672,0,0,0,.56.266h.7a.665.665,0,0,0,.617-.4l1.57-2.87,1.564,2.86a.671.671,0,0,0,.622.415h.7a.671.671,0,0,0,.559-.266.7.7,0,0,0,.089-.645Z" transform="translate(1263.939 7443.291)" fill="#16005f"/>
    <path id="Tracé_11289" data-name="Tracé 11289" d="M128.1,145.308l-1.864-3.552a3.113,3.113,0,0,0,.655-.5,2.914,2.914,0,0,0,.886-2.129v-.529a3,3,0,0,0-3.016-3.016h-3a.658.658,0,0,0-.688.687v9.314a.666.666,0,0,0,.688.688h.675a.672.672,0,0,0,.687-.688v-3.441h1.092l1.921,3.673a.672.672,0,0,0,.624.419h.7a.67.67,0,0,0,.559-.266.689.689,0,0,0,.092-.63A.108.108,0,0,0,128.1,145.308Zm-2.372-6.715v.529a.995.995,0,0,1-.966.966h-1.641v-2.461h1.641a.9.9,0,0,1,.667.269A.939.939,0,0,1,125.723,138.592Z" transform="translate(1320.16 7443.266)" fill="#16005f"/>
    <path id="Tracé_11290" data-name="Tracé 11290" d="M63.355,140.224h-.206a.06.06,0,0,1-.069-.069V140.1a.06.06,0,0,0-.069-.069c-.019,0-.031,0-.038.012a1.194,1.194,0,0,1-.758.269,1.219,1.219,0,0,1-1.209-1.209v-.952a1.159,1.159,0,0,1,.357-.852,1.145,1.145,0,0,1,.852-.351,1.116,1.116,0,0,1,.633.182.1.1,0,0,0,.05.013c.044,0,.062-.019.062-.056v-1.341a.06.06,0,0,1,.069-.069h.326c.044,0,.063.019.063.069v4.411C63.418,140.2,63.4,140.224,63.355,140.224Zm-.395-2.074a.694.694,0,0,0-.219-.526.749.749,0,0,0-1.278.526v.952a.744.744,0,0,0,.22.533.731.731,0,0,0,.533.219.748.748,0,0,0,.745-.752Z" transform="translate(1353.742 7443.21)" fill="#16005f"/>
    <path id="Tracé_11291" data-name="Tracé 11291" d="M70.5,140.446h-1.7a.063.063,0,0,0-.069.069v.194a.76.76,0,0,0,.752.758,1.212,1.212,0,0,0,.714-.226.057.057,0,0,1,.088.012l.188.269a.061.061,0,0,1-.019.094,1.6,1.6,0,0,1-.971.306,1.22,1.22,0,0,1-1.21-1.215v-1a1.106,1.106,0,0,1,.339-.814,1.121,1.121,0,0,1,.808-.332,1.144,1.144,0,0,1,1.147,1.146v.671C70.558,140.421,70.54,140.446,70.5,140.446Zm-.4-.74a.684.684,0,0,0-.689-.689.639.639,0,0,0-.482.2.67.67,0,0,0-.207.488v.213a.063.063,0,0,0,.069.069h1.246c.044,0,.063-.025.063-.069Z" transform="translate(1349.684 7441.598)" fill="#16005f"/>
    <path id="Tracé_11292" data-name="Tracé 11292" d="M17.286,108.83v3.2a2.111,2.111,0,0,0,.641,1.552,2.078,2.078,0,0,0,1.552.641,2.031,2.031,0,0,0,1.531-.641,2.13,2.13,0,0,0,.662-1.552v-6.909c0-.145.062-.206.207-.206h1.075c.145,0,.228.062.228.206v6.909a3.744,3.744,0,0,1-3.7,3.7,3.614,3.614,0,0,1-2.627-1.1,3.546,3.546,0,0,1-1.076-2.607v-1.649Z" transform="translate(1379.031 7460.408)" fill="#16005f"/>
    <path id="Tracé_11293" data-name="Tracé 11293" d="M79.15,107.285,77.439,112a.155.155,0,0,1-.165.1.133.133,0,0,1-.145-.1l-2.565-7.073c-.062-.145-.145-.225-.269-.225H73.177c-.207,0-.29.122-.207.328l3.661,10.091c.041.124.1.244.228.244h.848c.1,0,.186-.11.228-.235l2.474-6.858Z" transform="translate(1347.07 7460.529)" fill="#16005f"/>
    <path id="Tracé_11294" data-name="Tracé 11294" d="M120.641,114.373v6.15a.207.207,0,0,1-.228.227h-1.055a.207.207,0,0,1-.228-.227v-4.386Z" transform="translate(1321.242 7455.121)" fill="#16005f"/>
    <path id="Tracé_11295" data-name="Tracé 11295" d="M137.57,106.223a5.611,5.611,0,0,0-2.028-.363,1.355,1.355,0,0,0-1.013.414,1.339,1.339,0,0,0-.393.993,1.235,1.235,0,0,0,1.014,1.3l2.172.579a3.093,3.093,0,0,1,1.717,1.138,3.2,3.2,0,0,1-.331,4.22,3.207,3.207,0,0,1-2.3.951,7.929,7.929,0,0,1-4.179-1.138.209.209,0,0,1-.082-.331l.538-.91c.062-.124.165-.124.289-.062a6.689,6.689,0,0,0,3.434.931,1.766,1.766,0,0,0,1.759-1.758,1.66,1.66,0,0,0-.352-.993,1.555,1.555,0,0,0-.869-.579l-2.192-.6a2.885,2.885,0,0,1,.786-5.668,7.124,7.124,0,0,1,2.606.477Z" transform="translate(1313.992 7460.725)" fill="#16005f"/>
    <path id="Tracé_11296" data-name="Tracé 11296" d="M156.815,97.71a.938.938,0,0,1-.724.31,1.063,1.063,0,0,1-1.014-1.013.94.94,0,0,1,.31-.724.907.907,0,0,1,.7-.29.921.921,0,0,1,.724.29.94.94,0,0,1,.31.724A.925.925,0,0,1,156.815,97.71Zm-.186,12.743h-1.055a.2.2,0,0,1-.227-.228v-10.1c0-.145.062-.206.227-.206h1.055c.144,0,.228.062.228.206v10.1A.207.207,0,0,1,156.628,110.454Z" transform="translate(1301.145 7465.396)" fill="#16005f"/>
    <path id="Tracé_11297" data-name="Tracé 11297" d="M191.179,110.437h-5.627a.207.207,0,0,0-.227.227v.641a2.508,2.508,0,0,0,2.483,2.5,4,4,0,0,0,2.359-.745.187.187,0,0,1,.29.041l.62.89a.2.2,0,0,1-.062.31,5.289,5.289,0,0,1-3.207,1.014,4.025,4.025,0,0,1-3.993-4.014V108a3.656,3.656,0,0,1,1.117-2.69,3.7,3.7,0,0,1,2.668-1.1A3.778,3.778,0,0,1,191.386,108v2.213C191.386,110.355,191.324,110.437,191.179,110.437Zm-1.3-2.441a2.26,2.26,0,0,0-2.275-2.276,2.108,2.108,0,0,0-1.593.662,2.207,2.207,0,0,0-.683,1.614v.7a.207.207,0,0,0,.228.227h4.116c.145,0,.207-.083.207-.227Z" transform="translate(1285.076 7460.803)" fill="#16005f"/>
    <path id="Tracé_11298" data-name="Tracé 11298" d="M65.787,111.956v7.218a.207.207,0,0,1-.227.227H64.5a.2.2,0,0,1-.227-.227v-7.218Z" transform="translate(1351.912 7456.472)" fill="#16005f"/>
    <path id="Tracé_11299" data-name="Tracé 11299" d="M96.471,110.768V108.04a3.657,3.657,0,0,1,1.118-2.689,3.7,3.7,0,0,1,2.669-1.1,3.779,3.779,0,0,1,3.786,3.785v2.214c0,.145-.062.228-.207.228H98.209a.207.207,0,0,0-.227.227v.641a2.663,2.663,0,0,0,.053.539Zm6.062-2.728a2.26,2.26,0,0,0-2.276-2.275,2.108,2.108,0,0,0-1.593.662,2.206,2.206,0,0,0-.682,1.613v.7a.207.207,0,0,0,.227.228h4.117c.145,0,.207-.082.207-.228Z" transform="translate(1333.912 7460.778)" fill="#16005f"/>
    <path id="Tracé_11300" data-name="Tracé 11300" d="M169.643,110.608v4.235A2.331,2.331,0,0,0,172,117.2a3.1,3.1,0,0,0,1.655-.517.219.219,0,0,1,.331.062l.6.848a.2.2,0,0,1-.062.31,4.22,4.22,0,0,1-2.524.807,3.886,3.886,0,0,1-3.869-3.869v-4.758Z" transform="translate(1293.846 7457.519)" fill="#16005f"/>
    <path id="Tracé_11301" data-name="Tracé 11301" d="M45.874,112.3v-4.251a2.03,2.03,0,0,0-.641-1.53,2.193,2.193,0,0,0-3.744,1.53v6.909a.2.2,0,0,1-.228.228H40.206a.207.207,0,0,1-.228-.228v-6.909a3.7,3.7,0,0,1,7.406,0v3.42Z" transform="translate(1365.498 7460.713)" fill="#16005f"/>
    <path id="Tracé_11302" data-name="Tracé 11302" d="M192.154,92.255c-.213.266-.444.693-.675.959-.266.231-.621.782-.87.995,0,.053-.16.231-.16.231-.089.249-.16.2-.284.3a.414.414,0,0,1-.551.107c-.3-.2.2-.888.444-1.172a.213.213,0,0,0,.035-.142c.071-.124.124-.266.2-.373a.656.656,0,0,1,.178-.106c-.018-.125.142-.3.178-.408.089-.107.053-.284.16-.391a.867.867,0,0,0,.248-.373c.071,0,.178-.124.178-.124a2.162,2.162,0,0,1,.142-.48s.053-.071.089-.071c.142-.16.16-.408.3-.551a.679.679,0,0,1,.462-.071,1.214,1.214,0,0,1,.745.5C193.007,91.6,192.474,91.936,192.154,92.255Z" transform="translate(1281.887 7468.428)" fill="#16005f"/>
    <path id="Tracé_11303" data-name="Tracé 11303" d="M120.578,104.266c-.694,0-1.092.319-1.607,1.219h-.03v-1.028h-2.827v.9h.813c.36,0,.481.078.481.451l.037,4.62,1.51-1.773.021-1.83a1.76,1.76,0,0,1,1.585-1.884.685.685,0,0,1,.535.179.786.786,0,0,0-.85.771.828.828,0,0,0,.912.823.967.967,0,0,0,.977-1.056A1.4,1.4,0,0,0,120.578,104.266Z" transform="translate(1322.93 7460.771)" fill="#16005f"/>
    <path id="Tracé_11304" data-name="Tracé 11304" d="M145.082,104.354a1.169,1.169,0,0,0,1.076-.849h.858v5.467h-1a5.216,5.216,0,0,0-1.507-3.222Z" transform="translate(1307.057 7461.197)" fill="#16005f"/>
    <rect id="Rectangle_388" data-name="Rectangle 388" width="1.474" height="1.921" transform="translate(1416.209 7561.383)" fill="#16005f"/>
    <path id="Tracé_11305" data-name="Tracé 11305" d="M64.09,103.532c-.509.771-.926,1.047-2.468,1.169v.488c.385,0,.969-.052,1.132.416.055.167.039-.017.038,1.653H64.3a21.954,21.954,0,0,1,.216-3.726Z" transform="translate(1353.396 7461.182)" fill="#16005f"/>
    <path id="Tracé_11306" data-name="Tracé 11306" d="M88.572,105.427c.677,0,.677.021.889.021a.357.357,0,0,0,.317-.381.351.351,0,0,0-.317-.359,10.2,10.2,0,0,1-1.713.106h-.063a8.878,8.878,0,0,1-1.692-.106.353.353,0,0,0-.338.359.359.359,0,0,0,.338.381c.212,0,.233-.021.952-.021l-.685,1.94,1.26.968Z" transform="translate(1339.961 7460.524)" fill="#16005f"/>
    <path id="Tracé_11307" data-name="Tracé 11307" d="M99.494,121.938a4.622,4.622,0,0,0,2.375.642,5.01,5.01,0,0,0,2.286-.538c.112,0,.112.134.112.18a5.643,5.643,0,0,1-3.518,1.434c-1.838,0-4.277-.886-4.277-4.629l1.563,1.122a3.429,3.429,0,0,0,1.459,1.79" transform="translate(1333.912 7452.519)" fill="#16005f"/>
    <path id="Tracé_11308" data-name="Tracé 11308" d="M165.862,103.877v-.806a3.894,3.894,0,0,0-1.652.2l-.14-.1a1.872,1.872,0,0,1,1.754-1.136c.339-.2.319-2.058.6-2.4.12-.139.523-.4.823-.658.139.219-.239,2.876.139,2.935a8.637,8.637,0,0,0,4.042-.1c.259.2,0,.439-.12.618-1.077,1-2.539.578-3.934.618v1.35Z" transform="translate(1296.115 7463.728)" fill="#16005f"/>
    <path id="Tracé_11309" data-name="Tracé 11309" d="M15.453,104.919H12.495v1.13h1.447v4.335l1.51-1.552Z" transform="translate(1380.865 7460.406)" fill="#16005f"/>
    <path id="Tracé_11310" data-name="Tracé 11310" d="M54.944,123.321a16.005,16.005,0,0,1-.15-3.013l-1.489.83.038,1.626a5.759,5.759,0,0,0,.229,1.682c.919-.339,1.858-.631,2.629-.876v-.533A2.956,2.956,0,0,1,54.944,123.321Z" transform="translate(1358.047 7451.803)" fill="#16005f"/>
  </g>
</svg>
